<svg width="767" height="696" viewBox="0 0 767 696" fill="none" xmlns="http://www.w3.org/2000/svg">
<g clip-path="url(#clip0_795_15594)">
<path d="M355.466 198.864C354.957 198.3 354.271 197.928 353.522 197.807C352.775 197.683 352.008 197.78 351.316 198.086C350.617 198.378 350.026 198.88 349.626 199.523C349.22 200.166 349.039 200.926 349.111 201.682C349.183 202.439 349.504 203.151 350.023 203.707C350.554 204.233 351.226 204.594 351.958 204.746C352.688 204.949 353.463 204.917 354.173 204.653C354.876 204.364 355.456 203.837 355.812 203.166C356.148 202.491 356.291 201.736 356.226 200.985C356.198 200.216 355.932 199.475 355.466 198.864Z" fill="#C7D5DD"/>
<path d="M370.036 161.491C363.274 152.473 353.462 152 345.095 152C339.855 152 333.348 155.575 328.37 161.491C324.09 166.745 321.544 173.197 321.084 179.958C320.829 183.672 321.377 187.397 322.689 190.881C324.002 194.365 326.049 197.526 328.691 200.148C333.939 205.498 344.96 208.144 352.71 207.341C359.987 206.589 363.165 204.18 368.244 199.532C371.008 197.074 373.22 194.059 374.734 190.686C376.249 187.312 377.033 183.656 377.034 179.958C377 172.875 377 170.779 370.036 161.491ZM347.217 160.071C347.589 158.955 348.376 158.023 349.414 157.468C350.461 156.878 351.668 156.635 352.862 156.775C353.861 156.849 354.811 157.241 355.571 157.893C356.332 158.546 356.863 159.424 357.088 160.401C357.255 161.025 357.282 161.679 357.165 162.315C357.048 162.951 356.791 163.553 356.412 164.077C355.716 165.002 354.731 165.668 353.614 165.97C352.468 166.338 351.236 166.338 350.09 165.97C348.968 165.547 348.058 164.7 347.555 163.612C347.01 162.511 346.884 161.25 347.2 160.063L347.217 160.071ZM340.599 170.864C340.89 170.182 341.356 169.588 341.95 169.143C342.543 168.698 343.243 168.417 343.98 168.328C344.742 168.333 345.481 168.595 346.076 169.072C346.527 169.413 346.894 169.855 347.146 170.361C347.398 170.868 347.529 171.426 347.529 171.992C347.529 172.558 347.398 173.116 347.146 173.623C346.894 174.13 346.527 174.571 346.076 174.912C345.477 175.373 344.744 175.625 343.988 175.631C343.224 175.632 342.479 175.386 341.867 174.929C341.278 174.478 340.843 173.855 340.624 173.146C340.386 172.405 340.377 171.61 340.599 170.864ZM327.972 177.549C327.435 177.371 326.987 176.993 326.722 176.493C326.431 175.98 326.315 175.387 326.392 174.802C326.429 174.323 326.618 173.868 326.931 173.504C327.244 173.139 327.665 172.884 328.133 172.774C328.433 172.694 328.748 172.683 329.053 172.74C329.359 172.797 329.648 172.921 329.899 173.104C330.343 173.439 330.663 173.911 330.812 174.447C330.985 174.997 330.985 175.588 330.812 176.138C330.604 176.673 330.199 177.109 329.68 177.355C329.153 177.626 328.546 177.695 327.972 177.549ZM339.669 195.956C339.364 196.757 338.757 197.406 337.979 197.765C337.19 198.148 336.289 198.232 335.444 198.002C334.643 197.736 333.974 197.174 333.576 196.43C333.157 195.679 332.986 194.816 333.086 193.962C333.143 193.249 333.426 192.573 333.892 192.031C334.358 191.489 334.984 191.109 335.68 190.945C336.128 190.826 336.597 190.808 337.052 190.891C337.508 190.975 337.94 191.157 338.317 191.426C338.977 191.926 339.452 192.631 339.669 193.429C339.931 194.251 339.931 195.135 339.669 195.956ZM355.812 203.166C355.474 203.846 354.909 204.387 354.214 204.695C353.505 204.959 352.73 204.992 352 204.788C351.268 204.636 350.596 204.275 350.065 203.749C349.545 203.193 349.225 202.482 349.153 201.725C349.081 200.968 349.262 200.208 349.667 199.565C350.068 198.922 350.659 198.42 351.358 198.129C352.05 197.822 352.817 197.725 353.564 197.85C354.314 197.966 355.001 198.339 355.507 198.906C355.963 199.507 356.225 200.232 356.26 200.985C356.314 201.739 356.159 202.494 355.812 203.166ZM365.108 183.989C363.506 184.513 361.779 184.524 360.17 184.019C358.561 183.514 357.15 182.52 356.133 181.175C355.108 179.844 354.544 178.215 354.527 176.535C354.511 174.859 355.041 173.223 356.039 171.876C357.037 170.529 358.446 169.545 360.054 169.072C361.631 168.445 363.376 168.384 364.992 168.898C366.609 169.413 367.997 170.472 368.92 171.895C369.984 173.195 370.621 174.792 370.746 176.467C370.734 178.162 370.157 179.803 369.106 181.132C368.088 182.453 366.695 183.434 365.108 183.947V183.989ZM370.932 190.463C370.496 190.678 369.997 190.726 369.529 190.598C369.09 190.458 368.721 190.156 368.498 189.753C368.265 189.34 368.17 188.863 368.227 188.392C368.251 187.994 368.403 187.615 368.661 187.31C368.918 187.006 369.267 186.792 369.655 186.702C369.902 186.637 370.16 186.626 370.411 186.671C370.663 186.717 370.901 186.817 371.109 186.964C371.47 187.243 371.731 187.632 371.853 188.071C371.997 188.522 371.997 189.006 371.853 189.457C371.679 189.884 371.35 190.228 370.932 190.421V190.463Z" fill="#E1EAF3"/>
<path d="M330.812 174.49C330.664 173.954 330.343 173.482 329.9 173.146C329.648 172.963 329.359 172.839 329.053 172.782C328.748 172.725 328.434 172.737 328.133 172.816C327.665 172.926 327.245 173.182 326.932 173.546C326.619 173.911 326.43 174.366 326.392 174.845C326.316 175.429 326.431 176.022 326.722 176.535C326.987 177.035 327.435 177.413 327.973 177.591C328.536 177.746 329.136 177.692 329.663 177.439C330.182 177.193 330.587 176.758 330.795 176.222C330.983 175.661 330.989 175.055 330.812 174.49Z" fill="#C7D5DD"/>
<path d="M371.87 188.037C371.748 187.598 371.487 187.209 371.126 186.93C370.918 186.783 370.68 186.683 370.428 186.637C370.177 186.592 369.919 186.603 369.672 186.668C369.284 186.759 368.935 186.972 368.678 187.276C368.42 187.581 368.268 187.961 368.244 188.359C368.187 188.829 368.282 189.306 368.514 189.719C368.738 190.122 369.107 190.424 369.546 190.564C370.014 190.692 370.513 190.644 370.949 190.429C371.376 190.23 371.71 189.872 371.878 189.432C372.021 188.978 372.018 188.49 371.87 188.037Z" fill="#C7D5DD"/>
<path d="M338.3 191.427C337.923 191.157 337.491 190.975 337.036 190.891C336.58 190.808 336.111 190.826 335.663 190.945C334.967 191.109 334.341 191.489 333.875 192.031C333.409 192.573 333.127 193.249 333.069 193.962C332.969 194.816 333.14 195.679 333.559 196.43C333.957 197.174 334.626 197.736 335.427 198.002C336.273 198.232 337.173 198.148 337.962 197.765C338.74 197.406 339.347 196.757 339.653 195.957C339.916 195.132 339.916 194.246 339.653 193.421C339.434 192.625 338.959 191.924 338.3 191.427Z" fill="#C7D5DD"/>
<path d="M347.36 173.061C347.587 172.339 347.585 171.565 347.353 170.844C347.122 170.124 346.672 169.493 346.067 169.038C345.472 168.561 344.734 168.299 343.971 168.295C343.235 168.383 342.535 168.664 341.941 169.11C341.348 169.555 340.882 170.148 340.591 170.83C340.389 171.57 340.413 172.352 340.658 173.078C340.877 173.787 341.311 174.41 341.901 174.862C342.513 175.319 343.258 175.565 344.022 175.563C344.778 175.558 345.511 175.305 346.11 174.845C346.696 174.389 347.132 173.768 347.36 173.061Z" fill="#C7D5DD"/>
<path d="M350.057 165.979C351.203 166.346 352.435 166.346 353.581 165.979C354.698 165.676 355.682 165.01 356.378 164.086C356.757 163.562 357.014 162.96 357.131 162.324C357.248 161.688 357.222 161.034 357.054 160.409C356.83 159.433 356.298 158.554 355.538 157.902C354.777 157.249 353.828 156.857 352.829 156.784C351.635 156.643 350.427 156.886 349.38 157.477C348.342 158.032 347.556 158.963 347.183 160.08C346.858 161.266 346.975 162.531 347.513 163.638C348.022 164.721 348.935 165.562 350.057 165.979Z" fill="#C7D5DD"/>
<path d="M368.921 171.895C368.003 170.461 366.614 169.39 364.994 168.868C363.373 168.345 361.621 168.402 360.038 169.03C358.43 169.503 357.02 170.487 356.022 171.834C355.025 173.181 354.494 174.817 354.511 176.493C354.528 178.173 355.091 179.801 356.116 181.132C357.134 182.481 358.548 183.478 360.161 183.982C361.774 184.487 363.504 184.475 365.109 183.947C366.698 183.427 368.092 182.437 369.106 181.107C370.157 179.778 370.734 178.136 370.746 176.442C370.616 174.775 369.979 173.188 368.921 171.895Z" fill="#C7D5DD"/>
</g>
<path d="M339.593 181.654C338.73 181.964 337.8 182.041 336.898 181.875C335.995 181.709 335.153 181.306 334.457 180.709" stroke="black" stroke-width="2" stroke-linecap="round" stroke-linejoin="round"/>
<path d="M352.727 183.719C351.864 184.029 350.934 184.105 350.031 183.939C349.129 183.773 348.287 183.371 347.591 182.774" stroke="black" stroke-width="2" stroke-linecap="round" stroke-linejoin="round"/>
<path d="M345.666 188.724C345.294 189.179 344.761 189.474 344.178 189.546C343.629 189.605 343.073 189.557 342.542 189.406C342.04 189.326 341.559 189.146 341.128 188.877C340.697 188.608 340.324 188.255 340.031 187.84" stroke="black" stroke-width="2" stroke-linecap="round" stroke-linejoin="round"/>
<path d="M324.256 245H334.856V242.52H327.896L334.776 231.96V230.2H324.916V232.66H331.156L324.256 243.22V245ZM336.482 245H345.322V242.68H340.142L345.162 235.38V233.8H337.042V236.12H341.482L336.482 243.42V245ZM346.697 245H355.537V242.68H350.357L355.377 235.38V233.8H347.257V236.12H351.697L346.697 243.42V245ZM359.332 245.28C360.392 245.28 361.172 244.44 361.172 243.36C361.172 242.28 360.392 241.44 359.332 241.44C358.292 241.44 357.512 242.28 357.512 243.36C357.512 244.44 358.292 245.28 359.332 245.28ZM365.836 245.28C366.896 245.28 367.676 244.44 367.676 243.36C367.676 242.28 366.896 241.44 365.836 241.44C364.796 241.44 364.016 242.28 364.016 243.36C364.016 244.44 364.796 245.28 365.836 245.28ZM372.34 245.28C373.4 245.28 374.18 244.44 374.18 243.36C374.18 242.28 373.4 241.44 372.34 241.44C371.3 241.44 370.52 242.28 370.52 243.36C370.52 244.44 371.3 245.28 372.34 245.28Z" fill="white"/>
<path fill-rule="evenodd" clip-rule="evenodd" d="M101.102 308.812C95.9845 307.979 90.7777 307.56 85.5582 307.562C74.4806 307.556 63.527 309.451 53.4171 313.121C43.3072 316.792 34.27 322.155 26.8995 328.859C19.529 335.562 13.992 343.455 10.6525 352.017C9.6297 354.639 8.82014 357.306 8.2258 360H0V696H706V360H629.945C623.248 354.62 615.401 350.254 606.772 347.121C596.662 343.451 585.709 341.556 574.631 341.562C569.412 341.56 564.205 341.979 559.088 342.812C553.767 330.359 543.809 319.553 530.587 311.884C517.366 304.215 501.533 300.063 485.276 300.001C469.019 299.938 453.139 303.968 439.829 311.535C426.518 319.101 416.433 329.831 410.967 342.242C404.791 342.971 398.76 344.293 392.997 346.171C389.308 342.973 385.202 340.076 380.732 337.535C367.421 329.968 351.541 325.938 335.284 326.001C323.132 326.047 311.218 328.379 300.453 332.757C294.495 326.389 287.106 320.984 278.67 316.829C269.664 312.394 259.65 309.473 249.222 308.242C243.756 295.831 233.672 285.101 220.361 277.535C207.05 269.968 191.17 265.938 174.913 266.001C158.656 266.063 142.824 270.215 129.602 277.884C116.381 285.553 106.422 296.359 101.102 308.812Z" fill="#32355D"/>
<path d="M687.854 309.562C682.634 309.56 677.428 309.979 672.31 310.812C666.99 298.359 657.031 287.553 643.81 279.884C630.588 272.215 614.756 268.063 598.499 268.001C582.242 267.938 566.362 271.968 553.051 279.535C539.741 287.101 529.656 297.831 524.19 310.242C513.763 311.473 503.748 314.394 494.743 318.829C485.737 323.264 477.925 329.124 471.773 336.058C465.62 342.993 461.253 350.86 458.93 359.192C456.608 367.523 456.379 376.149 458.256 384.554C460.133 392.959 464.078 400.972 469.856 408.115C475.634 415.258 483.127 421.385 491.888 426.131C500.65 430.876 510.5 434.144 520.852 435.738C531.204 437.333 541.846 437.222 552.143 435.412C559.62 442.048 568.726 447.344 578.877 450.959C589.027 454.574 599.999 456.428 611.085 456.402C622.172 456.377 633.13 454.473 643.256 450.811C653.381 447.15 662.45 441.813 669.88 435.142C680.662 437.204 691.86 437.392 702.738 435.696C713.616 433.999 723.928 430.456 732.996 425.298C742.064 420.141 749.683 413.486 755.352 405.771C761.021 398.056 764.612 389.456 765.889 380.536C767.166 371.617 766.099 362.579 762.76 354.017C759.42 345.455 753.883 337.562 746.513 330.859C739.142 324.155 730.105 318.792 719.995 315.121C709.885 311.451 698.931 309.556 687.854 309.562Z" fill="#32355D"/>
<path fill-rule="evenodd" clip-rule="evenodd" d="M70.6811 351.562C74.9122 351.56 79.1329 351.979 83.2811 352.812C87.5941 340.359 95.6667 329.553 106.384 321.884C117.102 314.215 129.936 310.063 143.114 310.001C156.293 309.938 169.165 313.968 179.955 321.535C190.745 329.101 198.92 339.831 203.351 352.242C211.804 353.473 219.922 356.394 227.222 360.829C234.522 365.264 240.854 371.124 245.841 378.058C246.992 379.658 248.065 381.307 249.059 383C251.612 380.405 254.395 378.023 257.384 375.884C268.102 368.215 280.936 364.063 294.114 364.001C307.293 363.938 320.165 367.968 330.955 375.535C341.745 383.101 349.92 393.831 354.351 406.242C359.358 406.971 364.247 408.293 368.918 410.172C371.909 406.973 375.238 404.076 378.861 401.535C389.651 393.968 402.524 389.938 415.702 390.001C425.553 390.047 435.211 392.379 443.937 396.757C448.767 390.389 454.756 384.984 461.595 380.829C468.895 376.394 477.013 373.473 485.465 372.242C489.896 359.831 498.071 349.101 508.861 341.535C519.651 333.968 532.524 329.938 545.702 330.001C558.881 330.063 571.715 334.215 582.432 341.884C593.15 349.553 601.222 360.359 605.535 372.812C609.684 371.979 613.904 371.56 618.135 371.562C627.115 371.556 635.994 373.451 644.19 377.121C652.385 380.792 659.711 386.155 665.685 392.859C671.66 399.562 676.149 407.455 678.856 416.017C681.563 424.579 682.427 433.617 681.392 442.536C680.357 451.456 677.447 460.056 672.851 467.771C668.255 475.486 662.079 482.141 654.728 487.298C654.158 487.698 653.582 488.088 653 488.469V675H70V478.839C66.189 478.8 62.3789 478.42 58.616 477.696C49.798 475.999 41.4388 472.456 34.088 467.298C26.7371 462.141 20.561 455.486 15.9654 447.771C11.3699 440.056 8.45898 431.456 7.42407 422.536C6.38916 413.617 7.25366 404.579 9.96075 396.017C12.6678 387.455 17.1562 379.562 23.131 372.859C29.1057 366.155 36.4315 360.792 44.6268 357.121C52.8221 353.451 61.7014 351.556 70.6811 351.562Z" fill="#68698A"/>
<path fill-rule="evenodd" clip-rule="evenodd" d="M624.135 412.562C619.904 412.56 615.684 412.979 611.535 413.812C607.222 401.359 599.15 390.553 588.432 382.884C577.714 375.215 564.881 371.063 551.702 371.001C538.524 370.938 525.651 374.968 514.861 382.535C504.071 390.101 495.896 400.831 491.465 413.242C483.013 414.473 474.895 417.394 467.595 421.829C460.295 426.264 453.962 432.124 448.975 439.058C447.825 440.658 446.751 442.307 445.757 444C443.204 441.405 440.421 439.023 437.432 436.884C426.715 429.215 413.881 425.063 400.702 425.001C387.524 424.938 374.651 428.968 363.861 436.535C353.071 444.101 344.896 454.831 340.465 467.242C335.459 467.971 330.57 469.293 325.898 471.172C322.907 467.973 319.579 465.076 315.955 462.535C305.165 454.968 292.293 450.938 279.114 451.001C269.264 451.047 259.606 453.379 250.88 457.757C246.05 451.389 240.06 445.984 233.222 441.829C225.922 437.394 217.804 434.473 209.351 433.242C204.92 420.831 196.745 410.101 185.955 402.535C175.165 394.968 162.293 390.938 149.114 391.001C135.936 391.063 123.102 395.215 112.384 402.884C101.667 410.553 93.5941 421.359 89.2811 433.812C85.1329 432.979 80.9121 432.56 76.6811 432.562C67.7014 432.556 58.8221 434.451 50.6268 438.121C42.4314 441.792 35.1057 447.155 29.131 453.859C23.1563 460.562 18.6679 468.455 15.9608 477.017C13.2537 485.579 12.3892 494.617 13.4241 503.536C14.459 512.456 17.3698 521.056 21.9654 528.771C26.5609 536.486 32.7371 543.141 40.088 548.298C47.2675 553.335 55.4088 556.833 64 558.574V696H635V538.915C635.401 538.846 635.801 538.773 636.2 538.696C645.018 536.999 653.378 533.456 660.728 528.298C668.079 523.141 674.255 516.486 678.851 508.771C683.447 501.056 686.357 492.456 687.392 483.536C688.427 474.617 687.563 465.579 684.856 457.017C682.149 448.455 677.66 440.562 671.685 433.859C665.711 427.155 658.385 421.792 650.19 418.121C641.994 414.451 633.115 412.556 624.135 412.562Z" fill="#A4A6BE"/>
<path d="M228.358 112.358L230.808 107.868C230.96 107.604 231.178 107.385 231.442 107.233C231.705 107.08 232.004 107 232.308 107C232.612 107 232.911 107.08 233.175 107.233C233.438 107.385 233.656 107.604 233.808 107.868L236.268 112.358L240.758 114.808C241.022 114.96 241.241 115.178 241.394 115.442C241.546 115.705 241.626 116.004 241.626 116.308C241.626 116.612 241.546 116.911 241.394 117.175C241.241 117.438 241.022 117.656 240.758 117.808L236.268 120.268L233.808 124.748C233.656 125.012 233.438 125.231 233.175 125.384C232.911 125.536 232.612 125.616 232.308 125.616C232.004 125.616 231.705 125.536 231.442 125.384C231.178 125.231 230.96 125.012 230.808 124.748L228.358 120.268L223.868 117.808C223.604 117.656 223.385 117.438 223.233 117.175C223.08 116.911 223 116.612 223 116.308C223 116.004 223.08 115.705 223.233 115.442C223.385 115.178 223.604 114.96 223.868 114.808L228.358 112.358Z" fill="#8388B0"/>
<path d="M223 52C224.657 52 226 50.6569 226 49C226 47.3431 224.657 46 223 46C221.343 46 220 47.3431 220 49C220 50.6569 221.343 52 223 52Z" fill="#8388B0"/>
<path d="M308 10C310.761 10 313 7.76142 313 5C313 2.23858 310.761 0 308 0C305.239 0 303 2.23858 303 5C303 7.76142 305.239 10 308 10Z" fill="#8388B0"/>
<path d="M416.338 10.3481L418.798 5.86808C418.95 5.60426 419.168 5.38508 419.432 5.23267C419.695 5.08025 419.994 5 420.298 5C420.602 5 420.901 5.08025 421.165 5.23267C421.428 5.38508 421.646 5.60426 421.798 5.86808L424.248 10.3481L428.738 12.8081C429.002 12.9597 429.221 13.1782 429.374 13.4415C429.526 13.7049 429.606 14.0038 429.606 14.3081C429.606 14.6124 429.526 14.9113 429.374 15.1746C429.221 15.438 429.002 15.6565 428.738 15.8081L424.248 18.2581L421.868 22.7881C421.716 23.0519 421.498 23.2711 421.235 23.4235C420.971 23.5759 420.672 23.6562 420.368 23.6562C420.064 23.6562 419.765 23.5759 419.502 23.4235C419.238 23.2711 419.02 23.0519 418.868 22.7881L416.408 18.2981L411.868 15.8481C411.604 15.6965 411.385 15.478 411.233 15.2146C411.08 14.9513 411 14.6524 411 14.3481C411 14.0438 411.08 13.7449 411.233 13.4815C411.385 13.2182 411.604 12.9997 411.868 12.8481L416.338 10.3481Z" fill="#8388B0"/>
<path d="M363.362 85.3581L365.822 80.8681C365.974 80.6043 366.192 80.3851 366.456 80.2327C366.719 80.0803 367.018 80 367.322 80C367.626 80 367.925 80.0803 368.189 80.2327C368.452 80.3851 368.671 80.6043 368.822 80.8681L371.302 85.3581L375.792 87.8081C376.065 87.9582 376.293 88.1789 376.452 88.4471C376.611 88.7154 376.694 89.0214 376.694 89.3331C376.694 89.6448 376.611 89.9508 376.452 90.219C376.293 90.4873 376.065 90.708 375.792 90.8581L371.302 93.3081L368.852 97.7981C368.701 98.0619 368.482 98.2811 368.219 98.4335C367.955 98.5859 367.656 98.6662 367.352 98.6662C367.048 98.6662 366.749 98.5859 366.486 98.4335C366.222 98.2811 366.004 98.0619 365.852 97.7981L363.392 93.3081L358.902 90.8581C358.629 90.708 358.401 90.4873 358.242 90.219C358.084 89.9508 358 89.6448 358 89.3331C358 89.0214 358.084 88.7154 358.242 88.4471C358.401 88.1789 358.629 87.9582 358.902 87.8081L363.362 85.3581Z" fill="#8388B0"/>
<path d="M476 92C477.657 92 479 90.6569 479 89C479 87.3431 477.657 86 476 86C474.343 86 473 87.3431 473 89C473 90.6569 474.343 92 476 92Z" fill="#8388B0"/>
<defs>
<clipPath id="clip0_795_15594">
<rect width="56" height="55.4845" fill="white" transform="translate(321 152)"/>
</clipPath>
</defs>
</svg>
