<svg width="375" height="810" viewBox="0 0 375 810" fill="none" xmlns="http://www.w3.org/2000/svg">
<mask id="mask0_602_10821" style="mask-type:alpha" maskUnits="userSpaceOnUse" x="0" y="0" width="375" height="810">
<rect width="375" height="810" fill="#C4C4C4"/>
</mask>
<g mask="url(#mask0_602_10821)">
</g>
<mask id="mask1_602_10821" style="mask-type:alpha" maskUnits="userSpaceOnUse" x="0" y="73" width="375" height="737">
<path d="M0 73.5H375V810H0V73.5Z" fill="#C4C4C4"/>
</mask>
<g mask="url(#mask1_602_10821)">
<g opacity="0.4">
<path d="M-82.4212 598.562C-78.1964 598.56 -73.9819 598.979 -69.8397 599.812C-65.533 587.359 -57.4723 576.553 -46.7705 568.884C-36.0686 561.215 -23.2535 557.063 -10.0945 557.001C3.06453 556.938 15.9184 560.968 26.6925 568.535C37.4665 576.101 45.6293 586.831 50.0539 599.242C58.494 600.473 66.6002 603.394 73.8894 607.829C81.1786 612.264 87.5017 618.124 92.4818 625.058C97.462 631.993 100.997 639.86 102.877 648.192C104.757 656.523 104.942 665.149 103.423 673.554C101.904 681.959 98.7103 689.972 94.0333 697.115C89.3562 704.258 83.2912 710.385 76.1997 715.131C69.1081 719.876 61.1351 723.144 52.7559 724.739C44.3767 726.333 35.7627 726.222 27.4272 724.412C21.3753 731.048 14.0047 736.344 5.78838 739.959C-2.42791 743.574 -11.3082 745.428 -20.2824 745.403C-29.2566 745.377 -38.1262 743.473 -46.322 739.811C-54.5177 736.15 -61.8584 730.813 -67.8726 724.142C-76.5997 726.204 -85.6636 726.392 -94.4686 724.696C-103.274 722.999 -111.621 719.456 -118.961 714.298C-126.301 709.141 -132.468 702.486 -137.057 694.771C-141.645 687.056 -144.552 678.456 -145.585 669.536C-146.619 660.617 -145.755 651.579 -143.052 643.017C-140.349 634.455 -135.867 626.563 -129.901 619.859C-123.936 613.155 -116.621 607.792 -108.437 604.121C-100.254 600.451 -91.3878 598.556 -82.4212 598.562Z" fill="#C6C7DB"/>
<path d="M47.3874 658.562C51.6122 658.56 55.8267 658.979 59.9689 659.812C64.2756 647.359 72.3363 636.553 83.0381 628.884C93.74 621.215 106.555 617.063 119.714 617.001C132.873 616.938 145.727 620.968 156.501 628.535C167.275 636.101 175.438 646.831 179.862 659.242C188.303 660.473 196.409 663.394 203.698 667.829C210.987 672.264 217.31 678.124 222.29 685.058C227.271 691.993 230.806 699.86 232.686 708.192C234.565 716.523 234.751 725.149 233.232 733.554C231.712 741.959 228.519 749.972 223.842 757.115C219.165 764.258 213.1 770.385 206.008 775.131C198.917 779.876 190.944 783.144 182.564 784.739C174.185 786.333 165.571 786.222 157.236 784.412C151.184 791.048 143.813 796.344 135.597 799.959C127.381 803.574 118.5 805.428 109.526 805.403C100.552 805.377 91.6823 803.473 83.4866 799.811C75.2909 796.15 67.9502 790.813 61.936 784.142C53.2089 786.204 44.145 786.392 35.34 784.696C26.5349 782.999 18.1881 779.456 10.848 774.298C3.50793 769.141 -2.65917 762.486 -7.24797 754.771C-11.8368 747.056 -14.7434 738.456 -15.7768 729.536C-16.8101 720.617 -15.9469 711.579 -13.2438 703.017C-10.5406 694.455 -6.05884 686.563 -0.0929029 679.859C5.87303 673.155 13.188 667.792 21.3713 664.121C29.5546 660.451 38.4208 658.556 47.3874 658.562Z" fill="#C6C7DB"/>
<path d="M313.451 632.562C309.226 632.56 305.011 632.979 300.869 633.812C296.562 621.359 288.502 610.553 277.8 602.884C267.098 595.215 254.283 591.063 241.124 591.001C227.965 590.938 215.111 594.968 204.337 602.535C193.563 610.101 185.4 620.831 180.975 633.242C172.535 634.473 164.429 637.394 157.14 641.829C149.851 646.264 143.528 652.124 138.547 659.058C133.567 665.993 130.032 673.86 128.152 682.192C126.273 690.523 126.087 699.149 127.606 707.554C129.126 715.959 132.319 723.972 136.996 731.115C141.673 738.258 147.738 744.385 154.83 749.131C161.921 753.876 169.894 757.144 178.273 758.739C186.653 760.333 195.267 760.222 203.602 758.412C209.654 765.048 217.025 770.344 225.241 773.959C233.457 777.574 242.338 779.428 251.312 779.403C260.286 779.377 269.156 777.473 277.351 773.811C285.547 770.15 292.888 764.813 298.902 758.142C307.629 760.204 316.693 760.392 325.498 758.696C334.303 756.999 342.65 753.456 349.99 748.298C357.33 743.141 363.497 736.486 368.086 728.771C372.675 721.056 375.581 712.456 376.615 703.536C377.648 694.617 376.785 685.579 374.082 677.017C371.379 668.455 366.897 660.563 360.931 653.859C354.965 647.155 347.65 641.792 339.467 638.121C331.283 634.451 322.417 632.556 313.451 632.562Z" fill="#C6C7DB"/>
<path d="M464.229 578.562C460.004 578.56 455.789 578.979 451.647 579.812C447.341 567.359 439.28 556.553 428.578 548.884C417.876 541.215 405.061 537.063 391.902 537.001C378.743 536.938 365.889 540.968 355.115 548.535C344.341 556.101 336.178 566.831 331.754 579.242C323.314 580.473 315.207 583.394 307.918 587.829C300.629 592.264 294.306 598.124 289.326 605.058C284.346 611.993 280.81 619.86 278.931 628.192C277.051 636.523 276.865 645.149 278.385 653.554C279.904 661.959 283.097 669.972 287.774 677.115C292.451 684.258 298.516 690.385 305.608 695.131C312.699 699.876 320.672 703.144 329.052 704.739C337.431 706.333 346.045 706.222 354.38 704.412C360.432 711.048 367.803 716.344 376.019 719.959C384.236 723.574 393.116 725.428 402.09 725.403C411.064 725.377 419.934 723.473 428.13 719.811C436.325 716.15 443.666 710.813 449.68 704.142C458.407 706.204 467.471 706.392 476.276 704.696C485.081 702.999 493.428 699.456 500.768 694.298C508.108 689.141 514.275 682.486 518.864 674.771C523.453 667.056 526.36 658.456 527.393 649.536C528.426 640.617 527.563 631.579 524.86 623.017C522.157 614.455 517.675 606.563 511.709 599.859C505.743 593.155 498.428 587.792 490.245 584.121C482.062 580.451 473.195 578.556 464.229 578.562Z" fill="#C6C7DB"/>
<rect x="2.77246" y="651" width="374.449" height="159" fill="#C6C7DB"/>
</g>
<g opacity="0.2">
<path d="M458.238 537.562C454.013 537.56 449.798 537.979 445.656 538.812C441.349 526.359 433.289 515.553 422.587 507.884C411.885 500.215 399.07 496.063 385.911 496.001C372.752 495.938 359.898 499.968 349.124 507.535C338.35 515.101 330.187 525.831 325.763 538.242C317.322 539.473 309.216 542.394 301.927 546.829C294.638 551.264 288.315 557.124 283.335 564.058C278.354 570.993 274.819 578.86 272.939 587.192C271.06 595.523 270.874 604.149 272.393 612.554C273.913 620.959 277.106 628.972 281.783 636.115C286.46 643.258 292.525 649.385 299.617 654.131C306.708 658.876 314.681 662.144 323.061 663.739C331.44 665.333 340.054 665.222 348.389 663.412C354.441 670.048 361.812 675.344 370.028 678.959C378.244 682.574 387.125 684.428 396.099 684.403C405.073 684.377 413.943 682.473 422.138 678.811C430.334 675.15 437.675 669.813 443.689 663.142C452.416 665.204 461.48 665.392 470.285 663.696C479.09 661.999 487.437 658.456 494.777 653.298C502.117 648.141 508.284 641.486 512.873 633.771C517.462 626.056 520.368 617.456 521.402 608.536C522.435 599.617 521.572 590.579 518.869 582.017C516.166 573.455 511.684 565.563 505.718 558.859C499.752 552.155 492.437 546.792 484.254 543.121C476.07 539.451 467.204 537.556 458.238 537.562Z" fill="#C6C7DB"/>
<path d="M328.429 597.562C324.204 597.56 319.99 597.979 315.848 598.812C311.541 586.359 303.48 575.553 292.778 567.884C282.076 560.215 269.261 556.063 256.102 556.001C242.943 555.938 230.089 559.968 219.315 567.535C208.541 575.101 200.378 585.831 195.954 598.242C187.514 599.473 179.408 602.394 172.118 606.829C164.829 611.264 158.506 617.124 153.526 624.058C148.546 630.993 145.011 638.86 143.131 647.192C141.251 655.523 141.065 664.149 142.585 672.554C144.104 680.959 147.298 688.972 151.975 696.115C156.652 703.258 162.717 709.385 169.808 714.131C176.9 718.876 184.873 722.144 193.252 723.739C201.631 725.333 210.245 725.222 218.581 723.412C224.632 730.048 232.003 735.344 240.219 738.959C248.436 742.574 257.316 744.428 266.29 744.403C275.264 744.377 284.134 742.473 292.33 738.811C300.526 735.15 307.866 729.813 313.88 723.142C322.607 725.204 331.671 725.392 340.476 723.696C349.281 721.999 357.628 718.456 364.968 713.298C372.308 708.141 378.476 701.486 383.064 693.771C387.653 686.056 390.56 677.456 391.593 668.536C392.627 659.617 391.763 650.579 389.06 642.017C386.357 633.455 381.875 625.563 375.909 618.859C369.943 612.155 362.628 606.792 354.445 603.121C346.262 599.451 337.396 597.556 328.429 597.562Z" fill="#C6C7DB"/>
<path d="M62.3659 571.562C66.5907 571.56 70.8053 571.979 74.9474 572.812C79.2541 560.359 87.3148 549.553 98.0167 541.884C108.719 534.215 121.534 530.063 134.693 530.001C147.852 529.938 160.706 533.968 171.48 541.535C182.254 549.101 190.416 559.831 194.841 572.242C203.281 573.473 211.387 576.394 218.677 580.829C225.966 585.264 232.289 591.124 237.269 598.058C242.249 604.993 245.784 612.86 247.664 621.192C249.544 629.523 249.73 638.149 248.21 646.554C246.691 654.959 243.497 662.972 238.82 670.115C234.143 677.258 228.078 683.385 220.987 688.131C213.895 692.876 205.922 696.144 197.543 697.739C189.164 699.333 180.55 699.222 172.214 697.412C166.162 704.048 158.792 709.344 150.576 712.959C142.359 716.574 133.479 718.428 124.505 718.403C115.531 718.377 106.661 716.473 98.4651 712.811C90.2694 709.15 82.9288 703.813 76.9145 697.142C68.1875 699.204 59.1236 699.392 50.3185 697.696C41.5135 695.999 33.1666 692.456 25.8265 687.298C18.4864 682.141 12.3193 675.486 7.73055 667.771C3.14175 660.056 0.235139 651.456 -0.798243 642.536C-1.83163 633.617 -0.968386 624.579 1.73474 616.017C4.43787 607.455 8.91968 599.563 14.8856 592.859C20.8516 586.155 28.1665 580.792 36.3498 577.121C44.5331 573.451 53.3993 571.556 62.3659 571.562Z" fill="#C6C7DB"/>
<path d="M-88.4124 517.562C-84.1876 517.56 -79.9731 517.979 -75.8309 518.812C-71.5242 506.359 -63.4635 495.553 -52.7617 487.884C-42.0598 480.215 -29.2447 476.063 -16.0857 476.001C-2.92668 475.938 9.9272 479.968 20.7013 487.535C31.4753 495.101 39.6381 505.831 44.0627 518.242C52.5028 519.473 60.609 522.394 67.8982 526.829C75.1874 531.264 81.5105 537.124 86.4906 544.058C91.4707 550.993 95.006 558.86 96.8858 567.192C98.7655 575.523 98.9512 584.149 97.4318 592.554C95.9124 600.959 92.7191 608.972 88.042 616.115C83.365 623.258 77.3 629.385 70.2084 634.131C63.1169 638.876 55.1439 642.144 46.7647 643.739C38.3855 645.333 29.7715 645.222 21.436 643.412C15.3841 650.048 8.01346 655.344 -0.202831 658.959C-8.41912 662.574 -17.2994 664.428 -26.2736 664.403C-35.2478 664.377 -44.1175 662.473 -52.3132 658.811C-60.5089 655.15 -67.8496 649.813 -73.8638 643.142C-82.5909 645.204 -91.6548 645.392 -100.46 643.696C-109.265 641.999 -117.612 638.456 -124.952 633.298C-132.292 628.141 -138.459 621.486 -143.048 613.771C-147.637 606.056 -150.543 597.456 -151.577 588.536C-152.61 579.617 -151.747 570.579 -149.044 562.017C-146.34 553.455 -141.859 545.563 -135.893 538.859C-129.927 532.155 -122.612 526.792 -114.429 523.121C-106.245 519.451 -97.379 517.556 -88.4124 517.562Z" fill="#C6C7DB"/>
<rect width="406.402" height="212" transform="matrix(-1 0 0 1 404.997 590)" fill="#C6C7DB"/>
</g>
<g opacity="0.1">
<path d="M-82.4212 474.562C-78.1964 474.56 -73.9819 474.979 -69.8397 475.812C-65.533 463.359 -57.4723 452.553 -46.7705 444.884C-36.0686 437.215 -23.2535 433.063 -10.0945 433.001C3.06453 432.938 15.9184 436.968 26.6925 444.535C37.4665 452.101 45.6293 462.831 50.0539 475.242C58.494 476.473 66.6002 479.394 73.8894 483.829C81.1786 488.264 87.5017 494.124 92.4818 501.058C97.462 507.993 100.997 515.86 102.877 524.192C104.757 532.523 104.942 541.149 103.423 549.554C101.904 557.959 98.7103 565.972 94.0333 573.115C89.3562 580.258 83.2912 586.385 76.1997 591.131C69.1081 595.876 61.1351 599.144 52.7559 600.739C44.3767 602.333 35.7627 602.222 27.4272 600.412C21.3753 607.048 14.0047 612.344 5.78838 615.959C-2.42791 619.574 -11.3082 621.428 -20.2824 621.403C-29.2566 621.377 -38.1262 619.473 -46.322 615.811C-54.5177 612.15 -61.8584 606.813 -67.8726 600.142C-76.5997 602.204 -85.6636 602.392 -94.4686 600.696C-103.274 598.999 -111.621 595.456 -118.961 590.298C-126.301 585.141 -132.468 578.486 -137.057 570.771C-141.645 563.056 -144.552 554.456 -145.585 545.536C-146.619 536.617 -145.755 527.579 -143.052 519.017C-140.349 510.455 -135.867 502.563 -129.901 495.859C-123.936 489.155 -116.621 483.792 -108.437 480.121C-100.254 476.451 -91.3878 474.556 -82.4212 474.562Z" fill="#C6C7DB"/>
<path d="M47.3874 534.562C51.6122 534.56 55.8267 534.979 59.9689 535.812C64.2756 523.359 72.3363 512.553 83.0381 504.884C93.74 497.215 106.555 493.063 119.714 493.001C132.873 492.938 145.727 496.968 156.501 504.535C167.275 512.101 175.438 522.831 179.862 535.242C188.303 536.473 196.409 539.394 203.698 543.829C210.987 548.264 217.31 554.124 222.29 561.058C227.271 567.993 230.806 575.86 232.686 584.192C234.565 592.523 234.751 601.149 233.232 609.554C231.712 617.959 228.519 625.972 223.842 633.115C219.165 640.258 213.1 646.385 206.008 651.131C198.917 655.876 190.944 659.144 182.564 660.739C174.185 662.333 165.571 662.222 157.236 660.412C151.184 667.048 143.813 672.344 135.597 675.959C127.381 679.574 118.5 681.428 109.526 681.403C100.552 681.377 91.6823 679.473 83.4866 675.811C75.2909 672.15 67.9502 666.813 61.936 660.142C53.2089 662.204 44.145 662.392 35.34 660.696C26.5349 658.999 18.1881 655.456 10.848 650.298C3.50793 645.141 -2.65917 638.486 -7.24797 630.771C-11.8368 623.056 -14.7434 614.456 -15.7768 605.536C-16.8101 596.617 -15.9469 587.579 -13.2438 579.017C-10.5406 570.455 -6.05884 562.563 -0.0929029 555.859C5.87303 549.155 13.188 543.792 21.3713 540.121C29.5546 536.451 38.4208 534.556 47.3874 534.562Z" fill="#C6C7DB"/>
<path d="M313.451 508.562C309.226 508.56 305.011 508.979 300.869 509.812C296.562 497.359 288.502 486.553 277.8 478.884C267.098 471.215 254.283 467.063 241.124 467.001C227.965 466.938 215.111 470.968 204.337 478.535C193.563 486.101 185.4 496.831 180.975 509.242C172.535 510.473 164.429 513.394 157.14 517.829C149.851 522.264 143.528 528.124 138.547 535.058C133.567 541.993 130.032 549.86 128.152 558.192C126.273 566.523 126.087 575.149 127.606 583.554C129.126 591.959 132.319 599.972 136.996 607.115C141.673 614.258 147.738 620.385 154.83 625.131C161.921 629.876 169.894 633.144 178.273 634.739C186.653 636.333 195.267 636.222 203.602 634.412C209.654 641.048 217.025 646.344 225.241 649.959C233.457 653.574 242.338 655.428 251.312 655.403C260.286 655.377 269.156 653.473 277.351 649.811C285.547 646.15 292.888 640.813 298.902 634.142C307.629 636.204 316.693 636.392 325.498 634.696C334.303 632.999 342.65 629.456 349.99 624.298C357.33 619.141 363.497 612.486 368.086 604.771C372.675 597.056 375.581 588.456 376.615 579.536C377.648 570.617 376.785 561.579 374.082 553.017C371.379 544.455 366.897 536.563 360.931 529.859C354.965 523.155 347.65 517.792 339.467 514.121C331.283 510.451 322.417 508.556 313.451 508.562Z" fill="#C6C7DB"/>
<path d="M464.229 454.562C460.004 454.56 455.789 454.979 451.647 455.812C447.341 443.359 439.28 432.553 428.578 424.884C417.876 417.215 405.061 413.063 391.902 413.001C378.743 412.938 365.889 416.968 355.115 424.535C344.341 432.101 336.178 442.831 331.754 455.242C323.314 456.473 315.207 459.394 307.918 463.829C300.629 468.264 294.306 474.124 289.326 481.058C284.346 487.993 280.81 495.86 278.931 504.192C277.051 512.523 276.865 521.149 278.385 529.554C279.904 537.959 283.097 545.972 287.774 553.115C292.451 560.258 298.516 566.385 305.608 571.131C312.699 575.876 320.672 579.144 329.052 580.739C337.431 582.333 346.045 582.222 354.38 580.412C360.432 587.048 367.803 592.344 376.019 595.959C384.236 599.574 393.116 601.428 402.09 601.403C411.064 601.377 419.934 599.473 428.13 595.811C436.325 592.15 443.666 586.813 449.68 580.142C458.407 582.204 467.471 582.392 476.276 580.696C485.081 578.999 493.428 575.456 500.768 570.298C508.108 565.141 514.275 558.486 518.864 550.771C523.453 543.056 526.36 534.456 527.393 525.536C528.426 516.617 527.563 507.579 524.86 499.017C522.157 490.455 517.675 482.563 511.709 475.859C505.743 469.155 498.428 463.792 490.245 460.121C482.062 456.451 473.195 454.556 464.229 454.562Z" fill="#C6C7DB"/>
<rect x="-29.1807" y="527" width="406.402" height="261" fill="#C6C7DB"/>
</g>
<path opacity="0.6" d="M76.0231 266.358L78.4695 261.868C78.6208 261.604 78.839 261.385 79.102 261.233C79.365 261.08 79.6634 261 79.9673 261C80.2711 261 80.5696 261.08 80.8325 261.233C81.0955 261.385 81.3137 261.604 81.4651 261.868L83.9214 266.358L88.4049 268.808C88.6683 268.96 88.8872 269.178 89.0393 269.442C89.1915 269.705 89.2717 270.004 89.2717 270.308C89.2717 270.612 89.1915 270.911 89.0393 271.175C88.8872 271.438 88.6683 271.656 88.4049 271.808L83.9214 274.268L81.4651 278.748C81.3137 279.012 81.0955 279.231 80.8325 279.384C80.5696 279.536 80.2711 279.616 79.9673 279.616C79.6634 279.616 79.365 279.536 79.102 279.384C78.839 279.231 78.6208 279.012 78.4695 278.748L76.0231 274.268L71.5397 271.808C71.2762 271.656 71.0574 271.438 70.9052 271.175C70.753 270.911 70.6729 270.612 70.6729 270.308C70.6729 270.004 70.753 269.705 70.9052 269.442C71.0574 269.178 71.2762 268.96 71.5397 268.808L76.0231 266.358Z" fill="#999EC6"/>
<path opacity="0.6" d="M70.6723 206C72.3268 206 73.6679 204.657 73.6679 203C73.6679 201.343 72.3268 200 70.6723 200C69.0179 200 67.6768 201.343 67.6768 203C67.6768 204.657 69.0179 206 70.6723 206Z" fill="#999EC6"/>
<path opacity="0.6" d="M155.547 164C158.305 164 160.54 161.761 160.54 159C160.54 156.239 158.305 154 155.547 154C152.79 154 150.555 156.239 150.555 159C150.555 161.761 152.79 164 155.547 164Z" fill="#999EC6"/>
<path opacity="0.6" d="M263.727 164.348L266.183 159.868C266.334 159.604 266.553 159.385 266.816 159.233C267.079 159.08 267.377 159 267.681 159C267.985 159 268.283 159.08 268.546 159.233C268.809 159.385 269.027 159.604 269.179 159.868L271.625 164.348L276.108 166.808C276.372 166.96 276.591 167.178 276.743 167.442C276.895 167.705 276.975 168.004 276.975 168.308C276.975 168.612 276.895 168.911 276.743 169.175C276.591 169.438 276.372 169.656 276.108 169.808L271.625 172.258L269.249 176.788C269.097 177.052 268.879 177.271 268.616 177.424C268.353 177.576 268.055 177.656 267.751 177.656C267.447 177.656 267.148 177.576 266.886 177.424C266.623 177.271 266.404 177.052 266.253 176.788L263.797 172.298L259.263 169.848C259 169.696 258.781 169.478 258.629 169.215C258.477 168.951 258.396 168.652 258.396 168.348C258.396 168.044 258.477 167.745 258.629 167.482C258.781 167.218 259 167 259.263 166.848L263.727 164.348Z" fill="#999EC6"/>
<path opacity="0.6" d="M210.829 239.358L213.285 234.868C213.437 234.604 213.655 234.385 213.918 234.233C214.181 234.08 214.479 234 214.783 234C215.087 234 215.385 234.08 215.648 234.233C215.911 234.385 216.129 234.604 216.281 234.868L218.757 239.358L223.241 241.808C223.513 241.958 223.741 242.179 223.899 242.447C224.058 242.715 224.141 243.021 224.141 243.333C224.141 243.645 224.058 243.951 223.899 244.219C223.741 244.487 223.513 244.708 223.241 244.858L218.757 247.308L216.311 251.798C216.159 252.062 215.941 252.281 215.678 252.434C215.415 252.586 215.117 252.666 214.813 252.666C214.509 252.666 214.211 252.586 213.948 252.434C213.685 252.281 213.467 252.062 213.315 251.798L210.859 247.308L206.375 244.858C206.103 244.708 205.875 244.487 205.717 244.219C205.558 243.951 205.475 243.645 205.475 243.333C205.475 243.021 205.558 242.715 205.717 242.447C205.875 242.179 206.103 241.958 206.375 241.808L210.829 239.358Z" fill="#999EC6"/>
<path opacity="0.6" d="M323.301 246C324.956 246 326.297 244.657 326.297 243C326.297 241.343 324.956 240 323.301 240C321.647 240 320.306 241.343 320.306 243C320.306 244.657 321.647 246 323.301 246Z" fill="#999EC6"/>
<g clip-path="url(#clip0_602_10821)">
<path d="M196.952 364.864C196.445 364.3 195.76 363.928 195.011 363.807C194.266 363.683 193.5 363.78 192.809 364.086C192.111 364.378 191.521 364.88 191.121 365.523C190.716 366.166 190.535 366.926 190.607 367.682C190.679 368.439 190.999 369.151 191.518 369.707C192.048 370.233 192.719 370.594 193.45 370.746C194.179 370.949 194.952 370.917 195.661 370.653C196.363 370.364 196.942 369.837 197.298 369.166C197.633 368.491 197.776 367.736 197.712 366.985C197.683 366.216 197.418 365.475 196.952 364.864V364.864Z" fill="#C7D5DD"/>
<path d="M211.501 327.491C204.75 318.473 194.952 318 186.597 318C181.365 318 174.867 321.575 169.896 327.491C165.622 332.745 163.081 339.197 162.621 345.958C162.367 349.672 162.913 353.397 164.224 356.881C165.534 360.365 167.578 363.526 170.217 366.148C175.457 371.498 186.462 374.144 194.201 373.341C201.467 372.589 204.64 370.18 209.712 365.532C212.471 363.074 214.68 360.059 216.193 356.686C217.705 353.312 218.488 349.656 218.488 345.958C218.455 338.875 218.455 336.779 211.501 327.491ZM188.715 326.071C189.088 324.955 189.873 324.023 190.909 323.468C191.955 322.878 193.16 322.635 194.352 322.775C195.35 322.849 196.298 323.241 197.058 323.893C197.817 324.546 198.348 325.424 198.572 326.401C198.739 327.025 198.765 327.679 198.649 328.315C198.532 328.951 198.275 329.553 197.897 330.077C197.202 331.002 196.219 331.668 195.104 331.97C193.959 332.338 192.729 332.338 191.584 331.97C190.465 331.547 189.555 330.7 189.053 329.612C188.509 328.511 188.383 327.25 188.698 326.063L188.715 326.071ZM182.107 336.864C182.398 336.182 182.863 335.588 183.456 335.143C184.049 334.698 184.748 334.417 185.483 334.328C186.244 334.333 186.982 334.595 187.576 335.072C188.027 335.413 188.393 335.855 188.644 336.361C188.896 336.868 189.027 337.426 189.027 337.992C189.027 338.558 188.896 339.116 188.644 339.623C188.393 340.13 188.027 340.571 187.576 340.912C186.978 341.373 186.246 341.625 185.491 341.631C184.728 341.632 183.985 341.386 183.373 340.929C182.785 340.478 182.351 339.855 182.133 339.146C181.894 338.405 181.886 337.61 182.107 336.864ZM169.499 343.549C168.963 343.371 168.515 342.993 168.25 342.493C167.96 341.98 167.845 341.387 167.921 340.802C167.959 340.323 168.147 339.868 168.46 339.504C168.772 339.139 169.192 338.884 169.66 338.774C169.96 338.694 170.273 338.683 170.579 338.74C170.884 338.797 171.172 338.921 171.423 339.104C171.866 339.439 172.186 339.911 172.335 340.447C172.508 340.997 172.508 341.588 172.335 342.138C172.127 342.673 171.722 343.109 171.204 343.355C170.678 343.626 170.072 343.695 169.499 343.549ZM181.179 361.956C180.874 362.757 180.268 363.406 179.491 363.765C178.704 364.148 177.804 364.232 176.959 364.002C176.16 363.736 175.492 363.174 175.094 362.43C174.676 361.679 174.505 360.816 174.605 359.962C174.663 359.249 174.945 358.573 175.41 358.031C175.876 357.489 176.501 357.109 177.196 356.945C177.643 356.826 178.111 356.808 178.566 356.891C179.021 356.975 179.452 357.157 179.829 357.426C180.488 357.926 180.962 358.631 181.179 359.429C181.441 360.251 181.441 361.135 181.179 361.956ZM197.298 369.166C196.96 369.846 196.396 370.387 195.703 370.695C194.994 370.959 194.22 370.992 193.492 370.788C192.761 370.636 192.09 370.275 191.559 369.749C191.041 369.193 190.721 368.482 190.649 367.725C190.577 366.968 190.758 366.208 191.162 365.565C191.562 364.922 192.152 364.42 192.85 364.129C193.541 363.822 194.307 363.725 195.053 363.85C195.803 363.966 196.489 364.339 196.994 364.906C197.449 365.507 197.71 366.232 197.745 366.985C197.799 367.739 197.644 368.494 197.298 369.166ZM206.581 349.989C204.98 350.513 203.256 350.524 201.65 350.019C200.043 349.514 198.634 348.52 197.618 347.175C196.595 345.844 196.032 344.215 196.015 342.535C195.998 340.859 196.529 339.223 197.525 337.876C198.521 336.529 199.929 335.545 201.534 335.072C203.108 334.445 204.85 334.384 206.465 334.898C208.079 335.413 209.465 336.472 210.387 337.895C211.449 339.195 212.085 340.792 212.21 342.467C212.198 344.161 211.622 345.803 210.573 347.132C209.556 348.453 208.165 349.434 206.581 349.947V349.989ZM212.395 356.463C211.961 356.678 211.462 356.726 210.994 356.598C210.556 356.458 210.188 356.156 209.965 355.753C209.733 355.34 209.638 354.863 209.695 354.392C209.719 353.994 209.871 353.615 210.128 353.31C210.385 353.006 210.733 352.792 211.121 352.702C211.367 352.637 211.625 352.626 211.876 352.671C212.127 352.717 212.365 352.817 212.573 352.964C212.933 353.243 213.194 353.632 213.315 354.071C213.459 354.522 213.459 355.006 213.315 355.457C213.142 355.884 212.813 356.228 212.395 356.421V356.463Z" fill="#E1EAF3"/>
<path d="M172.335 340.49C172.187 339.954 171.866 339.482 171.424 339.146C171.172 338.963 170.884 338.839 170.579 338.782C170.274 338.725 169.96 338.737 169.66 338.816C169.193 338.926 168.773 339.182 168.46 339.546C168.148 339.911 167.959 340.366 167.921 340.845C167.845 341.429 167.96 342.022 168.251 342.535C168.515 343.035 168.963 343.413 169.5 343.591C170.062 343.746 170.661 343.692 171.187 343.439C171.706 343.193 172.11 342.758 172.318 342.222C172.506 341.661 172.512 341.055 172.335 340.49V340.49Z" fill="#C7D5DD"/>
<path d="M213.333 354.037C213.211 353.598 212.95 353.209 212.59 352.93C212.382 352.783 212.144 352.683 211.893 352.637C211.643 352.592 211.385 352.603 211.138 352.668C210.751 352.759 210.402 352.972 210.145 353.276C209.888 353.581 209.736 353.961 209.712 354.359C209.656 354.829 209.75 355.306 209.982 355.719C210.206 356.122 210.574 356.424 211.012 356.564C211.48 356.692 211.978 356.644 212.413 356.429C212.84 356.23 213.173 355.872 213.341 355.432C213.484 354.978 213.481 354.49 213.333 354.037V354.037Z" fill="#C7D5DD"/>
<path d="M179.812 357.426C179.436 357.157 179.004 356.974 178.549 356.891C178.094 356.808 177.626 356.826 177.179 356.945C176.484 357.108 175.859 357.489 175.393 358.031C174.928 358.573 174.646 359.249 174.588 359.962C174.488 360.815 174.66 361.679 175.078 362.43C175.476 363.173 176.143 363.736 176.943 364.002C177.788 364.232 178.687 364.148 179.475 363.765C180.251 363.406 180.857 362.757 181.162 361.956C181.426 361.132 181.426 360.245 181.162 359.421C180.944 358.625 180.469 357.924 179.812 357.426V357.426Z" fill="#C7D5DD"/>
<path d="M188.859 339.061C189.086 338.339 189.083 337.565 188.852 336.844C188.621 336.124 188.172 335.493 187.568 335.038C186.974 334.561 186.236 334.299 185.475 334.294C184.74 334.383 184.04 334.664 183.448 335.109C182.855 335.554 182.39 336.148 182.099 336.83C181.898 337.569 181.922 338.352 182.167 339.078C182.385 339.787 182.819 340.41 183.407 340.861C184.019 341.318 184.762 341.565 185.526 341.563C186.28 341.557 187.012 341.305 187.61 340.844C188.195 340.389 188.631 339.768 188.859 339.061Z" fill="#C7D5DD"/>
<path d="M191.551 331.979C192.695 332.346 193.925 332.346 195.07 331.979C196.185 331.676 197.168 331.01 197.863 330.086C198.241 329.561 198.498 328.96 198.615 328.324C198.732 327.688 198.705 327.034 198.538 326.409C198.314 325.433 197.783 324.554 197.024 323.901C196.264 323.249 195.316 322.857 194.319 322.783C193.127 322.643 191.921 322.886 190.876 323.476C189.839 324.031 189.054 324.963 188.681 326.08C188.356 327.266 188.473 328.531 189.01 329.638C189.519 330.721 190.431 331.561 191.551 331.979V331.979Z" fill="#C7D5DD"/>
<path d="M210.387 337.895C209.471 336.461 208.084 335.391 206.466 334.868C204.848 334.345 203.098 334.402 201.518 335.03C199.912 335.503 198.504 336.487 197.508 337.834C196.512 339.181 195.982 340.817 195.998 342.493C196.015 344.173 196.578 345.802 197.602 347.133C198.618 348.481 200.03 349.478 201.641 349.983C203.251 350.487 204.978 350.475 206.581 349.947C208.168 349.427 209.56 348.437 210.573 347.107C211.622 345.778 212.198 344.136 212.21 342.442C212.08 340.776 211.444 339.189 210.387 337.895V337.895Z" fill="#C7D5DD"/>
</g>
<path d="M181.103 347.654C180.241 347.965 179.313 348.041 178.412 347.875C177.511 347.709 176.67 347.307 175.975 346.709" stroke="black" stroke-width="2" stroke-linecap="round" stroke-linejoin="round"/>
<path d="M194.218 349.719C193.356 350.03 192.427 350.106 191.526 349.94C190.625 349.774 189.784 349.371 189.089 348.774" stroke="black" stroke-width="2" stroke-linecap="round" stroke-linejoin="round"/>
<path d="M187.167 354.724C186.796 355.179 186.264 355.474 185.681 355.547C185.133 355.605 184.578 355.558 184.048 355.407C183.546 355.326 183.066 355.147 182.636 354.878C182.205 354.609 181.832 354.256 181.54 353.84" stroke="black" stroke-width="2" stroke-linecap="round" stroke-linejoin="round"/>
</g>
<defs>
<clipPath id="clip0_602_10821">
<rect width="55.9177" height="55.4845" fill="white" transform="translate(162.537 318)"/>
</clipPath>
</defs>
</svg>
