<svg width="375" height="733" viewBox="0 0 375 733" fill="none" xmlns="http://www.w3.org/2000/svg">
<mask id="mask0_452_8598" style="mask-type:alpha" maskUnits="userSpaceOnUse" x="0" y="0" width="375" height="733">
<rect width="375" height="733" fill="#C4C4C4"/>
</mask>
<g mask="url(#mask0_452_8598)">
<g opacity="0.5">
<path opacity="0.3" d="M122.218 506.756C128.598 506.754 134.963 507.387 141.218 508.646C147.733 489.833 159.929 473.507 176.12 461.922C192.311 450.336 211.7 444.063 231.608 443.969C251.517 443.875 270.965 449.963 287.265 461.395C303.565 472.826 315.915 489.036 322.608 507.786C335.346 509.681 347.573 514.117 358.564 520.829C369.555 527.541 379.085 536.393 386.588 546.86C394.092 557.326 399.415 569.194 402.244 581.758C405.072 594.321 405.347 607.325 403.052 619.998C400.758 632.67 395.94 644.752 388.886 655.526C381.832 666.3 372.684 675.547 361.987 682.718C351.29 689.889 339.261 694.837 326.615 697.269C313.968 699.701 300.962 699.568 288.368 696.876C279.212 706.898 268.062 714.896 255.633 720.355C243.203 725.813 229.77 728.613 216.195 728.573C202.62 728.534 189.203 725.656 176.806 720.125C164.409 714.594 153.305 706.532 144.208 696.456C131.008 699.565 117.299 699.845 103.982 697.279C90.6653 694.713 78.0423 689.359 66.9422 681.567C55.8421 673.776 46.5163 663.724 39.5773 652.072C32.6383 640.42 28.2433 627.431 26.681 613.96C25.1187 600.489 26.4245 586.839 30.5125 573.908C34.6005 560.978 41.3783 549.058 50.4005 538.933C59.4228 528.808 70.4852 520.706 82.8612 515.161C95.2371 509.615 108.646 506.751 122.208 506.756H122.218Z" fill="#C6C7DB"/>
<path d="M229.101 411.358L231.561 406.868C231.713 406.604 231.931 406.385 232.195 406.233C232.458 406.08 232.757 406 233.061 406C233.365 406 233.664 406.08 233.928 406.233C234.191 406.385 234.41 406.604 234.561 406.868L237.041 411.358L241.531 413.808C241.804 413.958 242.032 414.179 242.191 414.447C242.35 414.715 242.433 415.021 242.433 415.333C242.433 415.645 242.35 415.951 242.191 416.219C242.032 416.487 241.804 416.708 241.531 416.858L237.041 419.308L234.591 423.798C234.44 424.062 234.221 424.281 233.958 424.434C233.694 424.586 233.395 424.666 233.091 424.666C232.787 424.666 232.488 424.586 232.225 424.434C231.961 424.281 231.743 424.062 231.591 423.798L229.131 419.308L224.641 416.858C224.368 416.708 224.14 416.487 223.981 416.219C223.823 415.951 223.739 415.645 223.739 415.333C223.739 415.021 223.823 414.715 223.981 414.447C224.14 414.179 224.368 413.958 224.641 413.808L229.101 411.358Z" fill="#999EC6"/>
<path d="M334.338 488.348L336.798 483.868C336.95 483.604 337.168 483.385 337.432 483.233C337.695 483.08 337.994 483 338.298 483C338.602 483 338.901 483.08 339.165 483.233C339.428 483.385 339.646 483.604 339.798 483.868L342.248 488.348L346.738 490.808C347.002 490.96 347.221 491.178 347.374 491.442C347.526 491.705 347.606 492.004 347.606 492.308C347.606 492.612 347.526 492.911 347.374 493.175C347.221 493.438 347.002 493.656 346.738 493.808L342.248 496.258L339.868 500.788C339.716 501.052 339.498 501.271 339.235 501.424C338.971 501.576 338.672 501.656 338.368 501.656C338.064 501.656 337.765 501.576 337.502 501.424C337.238 501.271 337.02 501.052 336.868 500.788L334.408 496.298L329.868 493.848C329.604 493.696 329.385 493.478 329.233 493.215C329.08 492.951 329 492.652 329 492.348C329 492.044 329.08 491.745 329.233 491.482C329.385 491.218 329.604 491 329.868 490.848L334.338 488.348Z" fill="#999EC6"/>
<path d="M65.2211 479.108L67.6711 474.618C67.8227 474.354 68.0412 474.135 68.3046 473.983C68.5679 473.83 68.8668 473.75 69.1711 473.75C69.4754 473.75 69.7743 473.83 70.0377 473.983C70.301 474.135 70.5195 474.354 70.6711 474.618L73.1311 479.108L77.6211 481.558C77.885 481.71 78.1041 481.928 78.2565 482.192C78.409 482.455 78.4892 482.754 78.4892 483.058C78.4892 483.362 78.409 483.661 78.2565 483.925C78.1041 484.188 77.885 484.406 77.6211 484.558L73.1311 487.018L70.6711 491.498C70.5195 491.762 70.301 491.981 70.0377 492.134C69.7743 492.286 69.4754 492.366 69.1711 492.366C68.8668 492.366 68.5679 492.286 68.3046 492.134C68.0412 491.981 67.8227 491.762 67.6711 491.498L65.2211 487.018L60.7311 484.558C60.4673 484.406 60.2481 484.188 60.0957 483.925C59.9433 483.661 59.863 483.362 59.863 483.058C59.863 482.754 59.9433 482.455 60.0957 482.192C60.2481 481.928 60.4673 481.71 60.7311 481.558L65.2211 479.108Z" fill="#999EC6"/>
<path d="M92.041 440.968C94.8024 440.968 97.041 438.729 97.041 435.968C97.041 433.207 94.8024 430.968 92.041 430.968C89.2796 430.968 87.041 433.207 87.041 435.968C87.041 438.729 89.2796 440.968 92.041 440.968Z" fill="#999EC6"/>
<path d="M263.721 463.268C265.378 463.268 266.721 461.925 266.721 460.268C266.721 458.611 265.378 457.268 263.721 457.268C262.064 457.268 260.721 458.611 260.721 460.268C260.721 461.925 262.064 463.268 263.721 463.268Z" fill="#999EC6"/>
<path d="M154.041 436.968C155.698 436.968 157.041 435.625 157.041 433.968C157.041 432.311 155.698 430.968 154.041 430.968C152.384 430.968 151.041 432.311 151.041 433.968C151.041 435.625 152.384 436.968 154.041 436.968Z" fill="#999EC6"/>
<path d="M329 608.5C329 686.648 265.648 750 187.5 750C109.352 750 46 686.648 46 608.5C46 530.352 86.5 478.5 187.5 467C266 458.062 329 530.352 329 608.5Z" fill="#4791FF"/>
<path d="M396.084 568.556C391.853 568.553 387.632 568.972 383.484 569.806C379.168 557.354 371.094 546.549 360.376 538.882C349.658 531.215 336.824 527.063 323.646 527.001C310.468 526.938 297.595 530.968 286.804 538.533C276.014 546.098 267.838 556.826 263.404 569.236C254.957 570.475 246.846 573.401 239.553 577.84C232.26 582.278 225.935 588.139 220.954 595.073C215.973 602.006 212.438 609.871 210.56 618.199C208.681 626.527 208.498 635.148 210.02 643.549C211.542 651.949 214.739 659.958 219.42 667.097C224.101 674.237 230.171 680.361 237.268 685.107C244.365 689.852 252.344 693.12 260.731 694.718C269.117 696.316 277.739 696.21 286.084 694.406C292.144 701.042 299.524 706.338 307.752 709.952C315.98 713.567 324.872 715.421 333.859 715.396C342.845 715.371 351.727 713.466 359.934 709.805C368.141 706.143 375.492 700.806 381.514 694.136C390.254 696.198 399.331 696.386 408.149 694.69C416.967 692.993 425.326 689.45 432.677 684.292C440.028 679.135 446.204 672.48 450.8 664.765C455.395 657.05 458.306 648.45 459.341 639.531C460.376 630.611 459.511 621.573 456.804 613.011C454.097 604.449 449.609 596.557 443.634 589.853C437.659 583.149 430.334 577.786 422.138 574.115C413.943 570.445 405.064 568.55 396.084 568.556Z" fill="#C6C7DB"/>
<path d="M-21.3189 583.562C-17.0879 583.56 -12.8671 583.979 -8.71889 584.812C-4.40585 572.359 3.66673 561.553 14.3843 553.884C25.1019 546.215 37.9359 542.063 51.1142 542.001C64.2926 541.938 77.1654 545.968 87.9553 553.535C98.7452 561.101 106.92 571.831 111.351 584.242C119.804 585.473 127.922 588.394 135.222 592.829C142.522 597.264 148.854 603.124 153.841 610.058C158.829 616.993 162.369 624.86 164.252 633.192C166.134 641.523 166.32 650.149 164.799 658.554C163.277 666.959 160.079 674.972 155.395 682.115C150.711 689.258 144.637 695.385 137.535 700.131C130.433 704.876 122.449 708.144 114.057 709.738C105.666 711.333 97.0388 711.222 88.6911 709.412C82.6304 716.048 75.2488 721.344 67.0205 724.959C58.7921 728.574 49.8987 730.428 40.9113 730.402C31.924 730.377 23.0412 728.473 14.8335 724.811C6.62566 721.15 -0.725792 715.813 -6.74889 709.142C-15.4888 711.204 -24.566 711.392 -33.384 709.696C-42.202 707.999 -50.5611 704.456 -57.912 699.298C-65.2629 694.141 -71.4391 687.486 -76.0346 679.771C-80.6302 672.056 -83.541 663.456 -84.5759 654.536C-85.6108 645.617 -84.7463 636.579 -82.0392 628.017C-79.3321 619.455 -74.8437 611.562 -68.869 604.859C-62.8943 598.155 -55.5686 592.792 -47.3732 589.121C-39.1779 585.451 -30.2986 583.556 -21.3189 583.562Z" fill="#C6C7DB"/>
<path d="M108.681 643.562C112.912 643.56 117.133 643.979 121.281 644.812C125.594 632.359 133.667 621.553 144.384 613.884C155.102 606.215 167.936 602.063 181.114 602.001C194.293 601.938 207.165 605.968 217.955 613.535C228.745 621.101 236.92 631.831 241.351 644.242C249.804 645.473 257.922 648.394 265.222 652.829C272.522 657.264 278.854 663.124 283.841 670.058C288.829 676.993 292.369 684.86 294.252 693.192C296.134 701.523 296.32 710.149 294.799 718.554C293.277 726.959 290.079 734.972 285.395 742.115C280.711 749.258 274.637 755.385 267.535 760.131C260.433 764.876 252.449 768.144 244.057 769.738C235.666 771.333 227.039 771.222 218.691 769.412C212.63 776.048 205.249 781.344 197.02 784.959C188.792 788.574 179.899 790.428 170.911 790.402C161.924 790.377 153.041 788.473 144.833 784.811C136.626 781.15 129.274 775.813 123.251 769.142C114.511 771.204 105.434 771.392 96.616 769.696C87.798 767.999 79.4389 764.456 72.088 759.298C64.7371 754.141 58.5609 747.486 53.9654 739.771C49.3698 732.056 46.459 723.456 45.4241 714.536C44.3892 705.617 45.2537 696.579 47.9608 688.017C50.6679 679.455 55.1563 671.562 61.131 664.859C67.1057 658.155 74.4314 652.792 82.6268 649.121C90.8221 645.451 99.7014 643.556 108.681 643.562Z" fill="#C6C7DB"/>
<path d="M204 536.318C201.21 538.289 197.885 539.363 194.47 539.395C191.054 539.427 187.71 538.416 184.883 536.497" stroke="black" stroke-width="4" stroke-miterlimit="10" stroke-linecap="round"/>
<path d="M159.29 532.278C156.052 533.445 152.548 533.663 149.191 532.905C145.834 532.147 142.763 530.445 140.341 528" stroke="black" stroke-width="4" stroke-miterlimit="10" stroke-linecap="round"/>
<path d="M184.962 551.208C180.34 553.519 175.147 554.442 170.012 553.866C164.876 553.29 160.017 551.24 156.021 547.962" stroke="black" stroke-width="4" stroke-miterlimit="10" stroke-linecap="round"/>
</g>
</g>
</svg>
