<svg width="375" height="729" viewBox="0 0 375 729" fill="none" xmlns="http://www.w3.org/2000/svg">
<mask id="mask0_452_8702" style="mask-type:alpha" maskUnits="userSpaceOnUse" x="0" y="0" width="375" height="729">
<rect width="375" height="729" fill="#C4C4C4"/>
</mask>
<g mask="url(#mask0_452_8702)">
<g opacity="0.5">
<path d="M212.662 496C84.2515 496 -45 599.762 -45 729H420C420 599.757 341.068 496 212.662 496Z" fill="#C2C5ED"/>
<path d="M166.364 569.632C67.7274 583.753 31.4937 641.195 31.4937 726.983H341.494C355.585 610.987 259.968 565.597 166.364 569.632Z" fill="#9295C2"/>
<path d="M187.502 648.307C177.325 648.307 163.221 652.307 153.818 656.159C144.415 660.011 131.845 665.657 124.648 672.776C117.451 679.894 107.856 688.431 103.961 697.732C100.066 707.032 96.9155 716.915 96.9155 726.983H265C265 706.652 256.835 687.153 242.302 672.777C227.768 658.401 208.056 648.307 187.502 648.307Z" fill="#C5C8F5"/>
</g>
</g>
</svg>
