<svg width="70" height="70" viewBox="0 0 70 70" fill="none" xmlns="http://www.w3.org/2000/svg">
<rect width="70" height="70" rx="8" fill="#3A3E74"/>
<path d="M31.2149 47.996C29.4749 47.48 28.7189 46.244 28.6949 44.984H30.8549V43.712H24.8789V44.984H27.0749C27.0509 46.364 26.2589 47.768 24.4709 48.368L25.2629 49.604C26.5589 49.184 27.4349 48.308 27.9269 47.216C28.4069 48.128 29.2469 48.86 30.4589 49.22L31.2149 47.996ZM29.7149 52.82C28.2989 52.82 27.5429 52.52 27.5429 51.896C27.5429 51.26 28.2989 50.96 29.7149 50.96C31.1189 50.96 31.8749 51.26 31.8749 51.896C31.8749 52.52 31.1189 52.82 29.7149 52.82ZM29.7149 49.736C27.4109 49.736 25.9709 50.54 25.9709 51.896C25.9709 53.24 27.4109 54.032 29.7149 54.032C32.0069 54.032 33.4469 53.24 33.4469 51.896C33.4469 50.54 32.0069 49.736 29.7149 49.736ZM33.3269 45.524V42.98H31.7429V49.544H33.3269V46.82H34.7909V45.524H33.3269ZM41.966 48.032C40.226 47.468 39.47 46.16 39.434 44.888H41.594V43.628H35.618V44.888H37.814C37.778 46.256 36.998 47.636 35.198 48.224L36.026 49.46C37.298 49.04 38.162 48.188 38.654 47.12C39.134 48.092 39.962 48.872 41.162 49.256L41.966 48.032ZM36.686 51.392H42.482V54.044H44.066V50.132H36.686V51.392ZM45.53 45.644H44.066V42.98H42.482V49.64H44.066V46.952H45.53V45.644Z" fill="white"/>
<path d="M31.4678 21.3946L31.4655 21.3964L31.4634 21.3985L31.4678 21.3946ZM41.4219 21.208C41.3523 21.141 41.2751 21.0823 41.1919 21.0332C41.0741 20.9639 40.9433 20.9195 40.8076 20.9027C40.6719 20.8859 40.5343 20.8971 40.4031 20.9356C40.2719 20.9742 40.1501 21.0392 40.0451 21.1267C39.94 21.2142 39.8541 21.3223 39.7925 21.4444C39.448 22.1231 38.9729 22.7271 38.3945 23.2217C38.4829 22.7233 38.5275 22.2181 38.5278 21.7119C38.5296 20.172 38.1234 18.6592 37.3504 17.3273C36.5775 15.9955 35.4654 14.8922 34.1274 14.1299C33.98 14.0464 33.8138 14.0017 33.6444 13.9999C33.4749 13.9982 33.3079 14.0396 33.1588 14.1201C33.0097 14.2006 32.8836 14.3177 32.7922 14.4604C32.7008 14.603 32.6471 14.7665 32.6362 14.9356C32.5802 15.8838 32.3323 16.8107 31.9076 17.6603C31.4828 18.5098 30.89 19.2643 30.165 19.878L29.9345 20.0655C29.1764 20.5756 28.5054 21.2044 27.9472 21.9278C27.0795 23.0209 26.4785 24.3011 26.1917 25.667C25.9049 27.0328 25.9403 28.4467 26.295 29.7964C26.6498 31.1462 27.3141 32.3948 28.2354 33.4431C29.1567 34.4915 30.3095 35.3107 31.6025 35.836C31.7544 35.898 31.9191 35.9217 32.0823 35.9051C32.2454 35.8884 32.402 35.8318 32.5381 35.7403C32.6742 35.6488 32.7857 35.5252 32.8628 35.3805C32.9398 35.2357 32.9801 35.0742 32.98 34.9102C32.9793 34.8041 32.9625 34.6988 32.9302 34.5977C32.7065 33.7567 32.642 32.8813 32.7403 32.0166C33.6865 33.8014 35.2054 35.216 37.0528 36.0332C37.2782 36.1341 37.5332 36.1477 37.7681 36.0713C39.2277 35.6002 40.5425 34.7638 41.5877 33.6414C42.633 32.519 43.3738 31.148 43.74 29.6586C44.1061 28.1693 44.0853 26.611 43.6796 25.132C43.2739 23.6529 42.4967 22.3021 41.4219 21.208ZM37.5171 34.0391C36.6454 33.5973 35.8765 32.977 35.2602 32.2186C34.644 31.4601 34.1943 30.5804 33.9404 29.6368C33.8629 29.319 33.8029 28.9972 33.7607 28.6729C33.7322 28.4663 33.6398 28.2739 33.4965 28.1224C33.3532 27.971 33.1661 27.8681 32.9614 27.8282C32.8984 27.8157 32.8343 27.8095 32.77 27.8096C32.5942 27.8096 32.4216 27.8558 32.2694 27.9438C32.1172 28.0318 31.991 28.1583 31.9033 28.3106C31.0736 29.7417 30.6563 31.3746 30.6977 33.0284C29.968 32.461 29.3581 31.7544 28.9034 30.9496C28.4487 30.1447 28.1583 29.2577 28.049 28.3398C27.9397 27.4219 28.0136 26.4914 28.2666 25.6023C28.5195 24.7132 28.9464 23.8831 29.5224 23.1602C29.9599 22.5921 30.4875 22.0995 31.0844 21.7022C31.1103 21.6855 31.1351 21.6673 31.1587 21.6475C31.1587 21.6475 31.4554 21.4021 31.4655 21.3964C32.8902 20.1914 33.9035 18.5719 34.3642 16.7637C35.4538 17.771 36.1803 19.1098 36.431 20.5723C36.6816 22.0347 36.4424 23.5391 35.7505 24.8516C35.659 25.0268 35.6215 25.2251 35.6427 25.4215C35.6638 25.618 35.7427 25.8037 35.8693 25.9554C35.9959 26.1071 36.1646 26.2179 36.3541 26.2738C36.5436 26.3297 36.7454 26.3283 36.9341 26.2696C38.4658 25.7895 39.8138 24.8516 40.7964 23.5821C41.3869 24.4544 41.773 25.4487 41.9259 26.491C42.0787 27.5332 41.9944 28.5965 41.6792 29.6017C41.364 30.6068 40.826 31.5279 40.1054 32.2962C39.3847 33.0645 38.5 33.6603 37.5171 34.0391L37.5171 34.0391Z" fill="white"/>
</svg>
