<svg width="110" height="32" viewBox="0 0 110 32" fill="none" xmlns="http://www.w3.org/2000/svg">
<g filter="url(#filter0_b_889_17653)">
<mask id="path-1-inside-1_889_17653" fill="white">
<path fill-rule="evenodd" clip-rule="evenodd" d="M13.6941 0C6.13107 0 0 6.13107 0 13.6941C0 21.2572 6.13107 27.3883 13.6941 27.3883H52.2986L55.1764 31.5673C55.5738 32.1444 56.4262 32.1444 56.8236 31.5673L59.7014 27.3883H96.3059C103.869 27.3883 110 21.2572 110 13.6941C110 6.13107 103.869 0 96.3059 0H13.6941Z"/>
</mask>
<path fill-rule="evenodd" clip-rule="evenodd" d="M13.6941 0C6.13107 0 0 6.13107 0 13.6941C0 21.2572 6.13107 27.3883 13.6941 27.3883H52.2986L55.1764 31.5673C55.5738 32.1444 56.4262 32.1444 56.8236 31.5673L59.7014 27.3883H96.3059C103.869 27.3883 110 21.2572 110 13.6941C110 6.13107 103.869 0 96.3059 0H13.6941Z" fill="#101340"/>
<path d="M52.2986 27.3883L53.1222 26.8211L52.8242 26.3883H52.2986V27.3883ZM55.1764 31.5673L54.3528 32.1344L54.3528 32.1344L55.1764 31.5673ZM56.8236 31.5673L57.6472 32.1344L57.6472 32.1344L56.8236 31.5673ZM59.7014 27.3883V26.3883H59.1758L58.8778 26.8211L59.7014 27.3883ZM1 13.6941C1 6.68336 6.68335 1 13.6941 1V-1C5.57878 -1 -1 5.57879 -1 13.6941H1ZM13.6941 26.3883C6.68335 26.3883 1 20.7049 1 13.6941H-1C-1 21.8095 5.57878 28.3883 13.6941 28.3883V26.3883ZM52.2986 26.3883H13.6941V28.3883H52.2986V26.3883ZM56 31.0001L53.1222 26.8211L51.475 27.9554L54.3528 32.1344L56 31.0001ZM56 31.0001H56L54.3528 32.1344C55.1476 33.2887 56.8524 33.2887 57.6472 32.1344L56 31.0001ZM58.8778 26.8211L56 31.0001L57.6472 32.1344L60.525 27.9554L58.8778 26.8211ZM96.3059 26.3883H59.7014V28.3883H96.3059V26.3883ZM109 13.6941C109 20.7049 103.317 26.3883 96.3059 26.3883V28.3883C104.421 28.3883 111 21.8095 111 13.6941H109ZM96.3059 1C103.317 1 109 6.68336 109 13.6941H111C111 5.57879 104.421 -1 96.3059 -1V1ZM13.6941 1H96.3059V-1H13.6941V1Z" fill="#FBC037" mask="url(#path-1-inside-1_889_17653)"/>
</g>
<path d="M11.164 18H12.556V9.168H11.164V18ZM18.1671 18.156C20.4351 18.156 22.0191 16.392 22.0191 13.548C22.0191 10.704 20.4351 9 18.1671 9C15.8991 9 14.3271 10.704 14.3271 13.548C14.3271 16.392 15.8991 18.156 18.1671 18.156ZM18.1671 16.944C16.7031 16.944 15.7551 15.624 15.7551 13.548C15.7551 11.472 16.7031 10.212 18.1671 10.212C19.6311 10.212 20.5911 11.472 20.5911 13.548C20.5911 15.624 19.6311 16.944 18.1671 16.944ZM26.314 18.156C28.246 18.156 29.422 17.004 29.422 15.588C29.422 14.292 28.666 13.644 27.622 13.2L26.41 12.684C25.69 12.396 24.982 12.108 24.982 11.352C24.982 10.644 25.57 10.212 26.47 10.212C27.25 10.212 27.862 10.512 28.414 11.004L29.146 10.116C28.474 9.432 27.502 9 26.47 9C24.79 9 23.566 10.044 23.566 11.436C23.566 12.72 24.514 13.392 25.366 13.752L26.59 14.28C27.406 14.64 28.006 14.892 28.006 15.696C28.006 16.44 27.406 16.944 26.338 16.944C25.486 16.944 24.622 16.536 23.986 15.9L23.17 16.86C23.974 17.676 25.102 18.156 26.314 18.156ZM33.6941 9.108V16.272H38.7821V9.108H33.6941ZM37.5701 10.092V15.276H34.9061V10.092H37.5701ZM40.7861 8.076V18.948H42.0341V8.076H40.7861ZM48.0932 10.188H50.5052V9.168H44.4332V10.188H46.8452V11.22C46.8452 13.08 45.7292 15.096 44.0492 15.876L44.7572 16.86C46.0292 16.248 47.0012 14.964 47.4812 13.452C47.9852 14.856 48.9572 16.032 50.2172 16.584L50.9012 15.612C49.2092 14.892 48.0932 13.02 48.0932 11.22V10.188ZM51.7652 8.088V18.924H53.0132V8.088H51.7652ZM60.6922 14.448V15.312H62.8162V16.32H64.0522V8.076H62.8162V14.448H60.6922ZM58.5322 9.408C59.4202 9.408 60.0322 9.792 60.0322 10.404C60.0322 11.016 59.4202 11.4 58.5322 11.4C57.6322 11.4 57.0202 11.016 57.0202 10.404C57.0202 9.792 57.6322 9.408 58.5322 9.408ZM58.5322 12.312C60.1162 12.312 61.2082 11.556 61.2082 10.404C61.2082 9.252 60.1162 8.496 58.5322 8.496C56.9362 8.496 55.8442 9.252 55.8442 10.404C55.8442 11.556 56.9362 12.312 58.5322 12.312ZM58.0402 15.972H59.2762V13.884C60.2002 13.836 61.1482 13.728 62.0602 13.572L61.9642 12.684C59.6722 12.972 57.0082 12.996 55.0162 13.008L55.1722 14.016C56.0242 14.016 57.0082 14.004 58.0402 13.956V15.972ZM57.7162 17.712V15.516H56.4802V18.72H64.3042V17.712H57.7162ZM73.2826 8.964H72.0346V10.752C72.0346 12.78 70.9786 14.868 69.2866 15.696L70.0666 16.68C71.3026 16.044 72.1906 14.784 72.6706 13.248C73.1386 14.7 74.0146 15.888 75.2386 16.5L75.9706 15.504C74.3146 14.736 73.2826 12.768 73.2826 10.752V8.964ZM77.1106 8.064V11.628H74.7946V12.636H77.1106V18.936H78.3586V8.064H77.1106ZM88.0056 8.076V18.948H89.2536V8.076H88.0056ZM80.9136 8.976V16.368H86.1216V8.976H84.8856V11.736H82.1376V8.976H80.9136ZM82.1376 12.72H84.8856V15.372H82.1376V12.72ZM100.713 13.38C98.5767 12.996 96.8367 11.328 96.8367 9.6V8.784H95.5287V9.6C95.5287 11.316 93.7887 12.984 91.6527 13.38L92.1807 14.4C93.9447 14.04 95.4687 12.912 96.1767 11.424C96.8847 12.912 98.4087 14.04 100.173 14.4L100.713 13.38ZM91.3167 16.512V17.532H101.133V16.512H91.3167Z" fill="white"/>
<defs>
<filter id="filter0_b_889_17653" x="-20" y="-20" width="150" height="72" filterUnits="userSpaceOnUse" color-interpolation-filters="sRGB">
<feFlood flood-opacity="0" result="BackgroundImageFix"/>
<feGaussianBlur in="BackgroundImage" stdDeviation="10"/>
<feComposite in2="SourceAlpha" operator="in" result="effect1_backgroundBlur_889_17653"/>
<feBlend mode="normal" in="SourceGraphic" in2="effect1_backgroundBlur_889_17653" result="shape"/>
</filter>
</defs>
</svg>
