<svg width="70" height="70" viewBox="0 0 70 70" fill="none" xmlns="http://www.w3.org/2000/svg">
<rect width="70" height="70" rx="8" fill="#3A3E74"/>
<path d="M37.5685 42.968V54.056H39.1525V42.968H37.5685ZM30.5365 43.856V51.476H35.9845V43.856H34.4125V46.532H32.1085V43.856H30.5365ZM32.1085 47.768H34.4125V50.216H32.1085V47.768Z" fill="white"/>
<path d="M35.89 31.06C35.6407 30.97 35.3658 30.9826 35.1258 31.0951C34.8858 31.2076 34.7003 31.4108 34.61 31.66L33.88 33.66C33.7899 33.9093 33.8025 34.1842 33.915 34.4242C34.0276 34.6642 34.2308 34.8498 34.48 34.94C34.589 34.9796 34.704 34.9999 34.82 35C35.0255 34.9999 35.226 34.9365 35.3942 34.8184C35.5624 34.7003 35.6901 34.5333 35.76 34.34L36.49 32.34C36.5801 32.0907 36.5674 31.8158 36.4549 31.5758C36.3424 31.3358 36.1392 31.1503 35.89 31.06ZM31.89 31.06C31.6407 30.97 31.3658 30.9826 31.1258 31.0951C30.8858 31.2076 30.7003 31.4108 30.61 31.66L29.88 33.66C29.7899 33.9093 29.8025 34.1842 29.915 34.4242C30.0276 34.6642 30.2308 34.8498 30.48 34.94C30.589 34.9796 30.704 34.9999 30.82 35C31.0255 34.9999 31.226 34.9365 31.3942 34.8184C31.5624 34.7003 31.6901 34.5333 31.76 34.34L32.49 32.34C32.5801 32.0907 32.5674 31.8158 32.4549 31.5758C32.3424 31.3358 32.1392 31.1503 31.89 31.06ZM31.89 24.06C31.6407 23.97 31.3658 23.9826 31.1258 24.0951C30.8858 24.2076 30.7003 24.4108 30.61 24.66L29.51 27.66C29.4554 27.811 29.438 27.9729 29.4592 28.132C29.4804 28.2912 29.5396 28.4429 29.6318 28.5743C29.724 28.7057 29.8464 28.813 29.9889 28.8871C30.1313 28.9612 30.2894 28.9999 30.45 29C30.6555 28.9999 30.856 28.9365 31.0242 28.8184C31.1924 28.7003 31.3201 28.5333 31.39 28.34L32.49 25.34C32.5801 25.0907 32.5674 24.8158 32.4549 24.5758C32.3424 24.3358 32.1392 24.1503 31.89 24.06ZM35.89 24.06C35.6407 23.97 35.3658 23.9826 35.1258 24.0951C34.8858 24.2076 34.7003 24.4108 34.61 24.66L33.51 27.66C33.4554 27.811 33.438 27.9729 33.4592 28.132C33.4804 28.2912 33.5396 28.4429 33.6318 28.5743C33.724 28.7057 33.8464 28.813 33.9889 28.8871C34.1313 28.9612 34.2894 28.9999 34.45 29C34.6555 28.9999 34.856 28.9365 35.0242 28.8184C35.1924 28.7003 35.3201 28.5333 35.39 28.34L36.49 25.34C36.5801 25.0907 36.5674 24.8158 36.4549 24.5758C36.3424 24.3358 36.1392 24.1503 35.89 24.06ZM41.42 19.22C40.809 17.816 39.7545 16.6511 38.4181 15.9037C37.0816 15.1564 35.537 14.8678 34.021 15.0823C32.5049 15.2968 31.1009 16.0025 30.0242 17.0912C28.9476 18.1799 28.2576 19.5916 28.06 21.11C27.1874 21.321 26.4112 21.8193 25.8561 22.5249C25.3011 23.2305 24.9995 24.1023 25 25C24.9982 25.5664 25.1167 26.1268 25.3477 26.644C25.5787 27.1611 25.917 27.6233 26.34 28C26.4373 28.0935 26.5526 28.1664 26.6789 28.2141C26.8051 28.2619 26.9398 28.2836 27.0746 28.2779C27.2095 28.2723 27.3418 28.2394 27.4637 28.1812C27.5855 28.123 27.6942 28.0408 27.7834 27.9394C27.8726 27.8381 27.9403 27.7198 27.9826 27.5915C28.0248 27.4633 28.0406 27.3279 28.0291 27.1934C28.0175 27.0589 27.9789 26.9281 27.9154 26.8089C27.852 26.6898 27.7651 26.5847 27.66 26.5C27.4503 26.3108 27.2831 26.0793 27.1693 25.8207C27.0555 25.5622 26.9978 25.2825 27 25C27 24.4696 27.2107 23.9609 27.5858 23.5858C27.9608 23.2107 28.4696 23 29 23C29.2652 23 29.5196 22.8947 29.7071 22.7071C29.8946 22.5196 30 22.2652 30 22C30.0025 20.8173 30.4243 19.6738 31.1903 18.7726C31.9562 17.8714 33.0169 17.271 34.1837 17.0779C35.3506 16.8848 36.5481 17.1116 37.5636 17.718C38.579 18.3244 39.3466 19.2712 39.73 20.39C39.7872 20.5619 39.8899 20.7149 40.0273 20.8329C40.1647 20.951 40.3315 21.0294 40.51 21.06C41.2042 21.1798 41.834 21.5399 42.2893 22.0775C42.7446 22.615 42.9962 23.2956 43 24C43.0153 24.7363 42.7508 25.451 42.26 26C42.1003 26.1988 42.0227 26.4511 42.0428 26.7053C42.063 26.9595 42.1795 27.1963 42.3685 27.3675C42.5575 27.5386 42.8048 27.6311 43.0597 27.626C43.3146 27.6209 43.558 27.5186 43.74 27.34C44.2908 26.7106 44.6749 25.953 44.8571 25.1367C45.0394 24.3204 45.0139 23.4714 44.7831 22.6675C44.5522 21.8635 44.1234 21.1303 43.5359 20.535C42.9483 19.9398 42.2208 19.5014 41.42 19.26V19.22ZM39.89 31.06C39.6407 30.97 39.3658 30.9826 39.1258 31.0951C38.8858 31.2076 38.7003 31.4108 38.61 31.66L37.88 33.66C37.7899 33.9093 37.8025 34.1842 37.915 34.4242C38.0276 34.6642 38.2308 34.8498 38.48 34.94C38.589 34.9796 38.704 34.9999 38.82 35C39.0255 34.9999 39.226 34.9365 39.3942 34.8184C39.5624 34.7003 39.6901 34.5333 39.76 34.34L40.49 32.34C40.5801 32.0907 40.5674 31.8158 40.4549 31.5758C40.3424 31.3358 40.1392 31.1503 39.89 31.06ZM39.89 24.06C39.6407 23.97 39.3658 23.9826 39.1258 24.0951C38.8858 24.2076 38.7003 24.4108 38.61 24.66L37.51 27.66C37.4554 27.811 37.438 27.9729 37.4592 28.132C37.4804 28.2912 37.5396 28.4429 37.6318 28.5743C37.724 28.7057 37.8464 28.813 37.9889 28.8871C38.1313 28.9612 38.2894 28.9999 38.45 29C38.6555 28.9999 38.856 28.9365 39.0242 28.8184C39.1924 28.7003 39.3201 28.5333 39.39 28.34L40.49 25.34C40.5801 25.0907 40.5674 24.8158 40.4549 24.5758C40.3424 24.3358 40.1392 24.1503 39.89 24.06Z" fill="white"/>
</svg>
