<svg width="70" height="70" viewBox="0 0 70 70" fill="none" xmlns="http://www.w3.org/2000/svg">
<rect width="70" height="70" rx="8" fill="#3A3E74"/>
<path d="M28.7549 50.216H26.5349V47.768H28.7549V50.216ZM28.7549 46.532H26.5349V43.856H24.9629V51.476H30.3269V43.856H28.7549V46.532ZM34.8869 47.096H33.2789V42.992H31.6949V54.032H33.2789V48.416H34.8869V47.096ZM37.37 45.284H40.946V44H35.786V51.404H36.734C38.654 51.404 40.166 51.344 41.834 51.044L41.678 49.736C40.25 49.976 38.942 50.06 37.37 50.084V45.284ZM45.626 47.06H44.018V42.98H42.434V54.056H44.018V48.368H45.626V47.06Z" fill="white"/>
<path d="M34 32.0001H31C30.7348 32.0001 30.4804 32.1054 30.2929 32.2929C30.1054 32.4805 30 32.7348 30 33.0001C30 33.2653 30.1054 33.5196 30.2929 33.7072C30.4804 33.8947 30.7348 34.0001 31 34.0001H34C34.2652 34.0001 34.5196 33.8947 34.7071 33.7072C34.8946 33.5196 35 33.2653 35 33.0001C35 32.7348 34.8946 32.4805 34.7071 32.2929C34.5196 32.1054 34.2652 32.0001 34 32.0001ZM43 28.0001H41.84C42.4153 27.1018 42.8094 26.0996 43 25.0501C43.0289 24.8789 43.0128 24.7031 42.9532 24.54C42.8936 24.377 42.7925 24.2322 42.66 24.1201C42.5256 24.0018 42.3619 23.9217 42.186 23.8883C42.0101 23.8549 41.8284 23.8693 41.66 23.9301C41.0417 24.1405 40.3932 24.2486 39.74 24.2501C38.1431 24.2501 36.6108 23.6199 35.476 22.4964C34.3412 21.3729 33.6958 19.8468 33.68 18.2501C33.6891 17.9147 33.7225 17.5805 33.78 17.2501C33.806 17.0795 33.7874 16.9052 33.726 16.744C33.6647 16.5828 33.5627 16.4402 33.43 16.3301C33.2946 16.2134 33.1304 16.1352 32.9546 16.1036C32.7787 16.0719 32.5976 16.088 32.43 16.1501C30.859 16.6922 29.4941 17.7068 28.522 19.0548C27.55 20.4027 27.0184 22.0183 27 23.6801C27.001 25.212 27.4418 26.7114 28.27 28.0001H27C26.7348 28.0001 26.4804 28.1054 26.2929 28.2929C26.1054 28.4805 26 28.7348 26 29.0001C26 29.2653 26.1054 29.5196 26.2929 29.7072C26.4804 29.8947 26.7348 30.0001 27 30.0001H43C43.2652 30.0001 43.5196 29.8947 43.7071 29.7072C43.8946 29.5196 44 29.2653 44 29.0001C44 28.7348 43.8946 28.4805 43.7071 28.2929C43.5196 28.1054 43.2652 28.0001 43 28.0001ZM39.28 28.0001H30.83C30.1775 27.3744 29.6747 26.6094 29.3594 25.7622C29.044 24.915 28.9242 24.0075 29.0088 23.1075C29.0934 22.2074 29.3803 21.3382 29.848 20.5646C30.3158 19.791 30.9523 19.1331 31.71 18.6401C31.825 20.697 32.7234 22.6319 34.2205 24.0472C35.7176 25.4624 37.6998 26.2507 39.76 26.2501C40.0231 26.2649 40.2869 26.2649 40.55 26.2501C40.2346 26.9046 39.8045 27.4973 39.28 28.0001ZM39 32.0001H38C37.7348 32.0001 37.4804 32.1054 37.2929 32.2929C37.1054 32.4805 37 32.7348 37 33.0001C37 33.2653 37.1054 33.5196 37.2929 33.7072C37.4804 33.8947 37.7348 34.0001 38 34.0001H39C39.2652 34.0001 39.5196 33.8947 39.7071 33.7072C39.8946 33.5196 40 33.2653 40 33.0001C40 32.7348 39.8946 32.4805 39.7071 32.2929C39.5196 32.1054 39.2652 32.0001 39 32.0001Z" fill="white"/>
</svg>
