<svg width="375" height="729" viewBox="0 0 375 729" fill="none" xmlns="http://www.w3.org/2000/svg">
<mask id="mask0_452_8663" style="mask-type:alpha" maskUnits="userSpaceOnUse" x="0" y="0" width="375" height="729">
<rect width="375" height="729" fill="#C4C4C4"/>
</mask>
<g mask="url(#mask0_452_8663)">
<g opacity="0.5">
<path opacity="0.3" d="M106.177 496.788C112.557 496.786 118.922 497.419 125.177 498.678C131.692 479.865 143.888 463.539 160.079 451.954C176.27 440.368 195.659 434.095 215.567 434.001C235.476 433.907 254.924 439.995 271.224 451.427C287.524 462.858 299.874 479.068 306.567 497.818C319.305 499.713 331.532 504.149 342.523 510.861C353.514 517.573 363.044 526.425 370.547 536.892C378.051 547.358 383.374 559.226 386.203 571.79C389.031 584.353 389.306 597.357 387.011 610.03C384.717 622.702 379.899 634.784 372.845 645.558C365.791 656.332 356.643 665.579 345.946 672.75C335.249 679.921 323.22 684.869 310.574 687.301C297.927 689.733 284.921 689.6 272.327 686.908C263.171 696.93 252.021 704.928 239.592 710.387C227.162 715.845 213.729 718.645 200.154 718.605C186.579 718.566 173.162 715.688 160.765 710.157C148.368 704.626 137.264 696.564 128.167 686.488C114.967 689.597 101.258 689.877 87.9409 687.311C74.6243 684.745 62.0012 679.391 50.9012 671.599C39.8011 663.808 30.4753 653.756 23.5363 642.104C16.5973 630.452 12.2023 617.463 10.64 603.992C9.07771 590.521 10.3835 576.871 14.4715 563.94C18.5595 551.01 25.3373 539.09 34.3595 528.965C43.3818 518.84 54.4442 510.738 66.8202 505.193C79.1961 499.647 92.6054 496.783 106.167 496.788H106.177Z" fill="#C6C7DB"/>
<path d="M244.362 404.358L246.822 399.868C246.974 399.604 247.192 399.385 247.456 399.233C247.719 399.08 248.018 399 248.322 399C248.626 399 248.925 399.08 249.189 399.233C249.452 399.385 249.671 399.604 249.822 399.868L252.302 404.358L256.792 406.808C257.065 406.958 257.293 407.179 257.452 407.447C257.611 407.715 257.694 408.021 257.694 408.333C257.694 408.645 257.611 408.951 257.452 409.219C257.293 409.487 257.065 409.708 256.792 409.858L252.302 412.308L249.852 416.798C249.701 417.062 249.482 417.281 249.219 417.434C248.955 417.586 248.656 417.666 248.352 417.666C248.048 417.666 247.749 417.586 247.486 417.434C247.222 417.281 247.004 417.062 246.852 416.798L244.392 412.308L239.902 409.858C239.629 409.708 239.401 409.487 239.242 409.219C239.084 408.951 239 408.645 239 408.333C239 408.021 239.084 407.715 239.242 407.447C239.401 407.179 239.629 406.958 239.902 406.808L244.362 404.358Z" fill="#999EC6"/>
<path d="M335.338 474.348L337.798 469.868C337.95 469.604 338.168 469.385 338.432 469.233C338.695 469.08 338.994 469 339.298 469C339.602 469 339.901 469.08 340.165 469.233C340.428 469.385 340.646 469.604 340.798 469.868L343.248 474.348L347.738 476.808C348.002 476.96 348.221 477.178 348.374 477.442C348.526 477.705 348.606 478.004 348.606 478.308C348.606 478.612 348.526 478.911 348.374 479.175C348.221 479.438 348.002 479.656 347.738 479.808L343.248 482.258L340.868 486.788C340.716 487.052 340.498 487.271 340.235 487.424C339.971 487.576 339.672 487.656 339.368 487.656C339.064 487.656 338.765 487.576 338.502 487.424C338.238 487.271 338.02 487.052 337.868 486.788L335.408 482.298L330.868 479.848C330.604 479.696 330.385 479.478 330.233 479.215C330.08 478.951 330 478.652 330 478.348C330 478.044 330.08 477.745 330.233 477.482C330.385 477.218 330.604 477 330.868 476.848L335.338 474.348Z" fill="#999EC6"/>
<path d="M310.783 524.206C296.274 492.363 256.154 480.716 226.61 499.537L226.093 499.87C224.874 500.672 223.473 501.154 222.018 501.273C220.564 501.392 219.103 501.144 217.77 500.551C216.437 499.958 215.275 499.04 214.392 497.881C213.508 496.722 212.93 495.359 212.712 493.918C212.535 492.763 212.325 491.614 212.082 490.469C208.911 475.549 199.968 462.487 187.199 454.126C174.43 445.765 158.868 442.782 143.902 445.825C113.644 451.984 92.7671 482.773 98.4809 513.091C98.6204 513.748 98.7403 514.409 98.8932 515.032C100.543 522.523 94.155 529.217 86.5226 528.392L86.3187 528.37C71.1283 526.778 55.92 531.244 44.0052 540.797C32.0905 550.35 24.4342 564.215 22.7035 579.374C19.211 610.014 42.0854 639.342 72.7043 643.258C73.358 643.348 74.0128 643.422 74.6687 643.479C82.3106 644.22 86.7095 652.355 83.56 659.35L83.4758 659.536C77.2603 673.471 76.8051 689.29 82.2092 703.552C87.6132 717.815 98.4393 729.365 112.331 735.69C140.423 748.476 175.437 735.802 188.657 707.923C188.943 707.325 189.218 706.721 189.482 706.111C192.552 699.082 201.658 697.415 207.346 702.562C207.394 702.61 207.445 702.654 207.496 702.698C218.842 712.905 233.769 718.219 249.026 717.483C264.283 716.748 278.634 710.023 288.956 698.773C309.817 676.027 308.576 638.86 286.114 617.698C285.632 617.245 285.147 616.802 284.655 616.365C278.911 611.277 280.142 602.113 286.806 598.299L286.98 598.2C299.435 591.013 308.769 579.457 313.169 565.781C317.568 552.104 316.718 537.285 310.783 524.206Z" fill="#7CCBC3"/>
<path d="M50.3581 474.358L52.8081 469.868C52.9597 469.604 53.1782 469.385 53.4415 469.233C53.7049 469.08 54.0038 469 54.3081 469C54.6124 469 54.9113 469.08 55.1746 469.233C55.438 469.385 55.6565 469.604 55.8081 469.868L58.2681 474.358L62.7581 476.808C63.0219 476.96 63.2411 477.178 63.3935 477.442C63.5459 477.705 63.6262 478.004 63.6262 478.308C63.6262 478.612 63.5459 478.911 63.3935 479.175C63.2411 479.438 63.0219 479.656 62.7581 479.808L58.2681 482.268L55.8081 486.748C55.6565 487.012 55.438 487.231 55.1746 487.384C54.9113 487.536 54.6124 487.616 54.3081 487.616C54.0038 487.616 53.7049 487.536 53.4415 487.384C53.1782 487.231 52.9597 487.012 52.8081 486.748L50.3581 482.268L45.8681 479.808C45.6043 479.656 45.3851 479.438 45.2327 479.175C45.0803 478.911 45 478.612 45 478.308C45 478.004 45.0803 477.705 45.2327 477.442C45.3851 477.178 45.6043 476.96 45.8681 476.808L50.3581 474.358Z" fill="#999EC6"/>
<path d="M83 436C85.7614 436 88 433.761 88 431C88 428.239 85.7614 426 83 426C80.2386 426 78 428.239 78 431C78 433.761 80.2386 436 83 436Z" fill="#999EC6"/>
<path d="M239 461C240.657 461 242 459.657 242 458C242 456.343 240.657 455 239 455C237.343 455 236 456.343 236 458C236 459.657 237.343 461 239 461Z" fill="#999EC6"/>
<path d="M168 421C169.657 421 171 419.657 171 418C171 416.343 169.657 415 168 415C166.343 415 165 416.343 165 418C165 419.657 166.343 421 168 421Z" fill="#999EC6"/>
<path d="M396.084 564.556C391.853 564.553 387.632 564.972 383.484 565.806C379.168 553.354 371.094 542.549 360.376 534.882C349.658 527.215 336.824 523.063 323.646 523.001C310.468 522.938 297.595 526.968 286.804 534.533C276.014 542.098 267.838 552.826 263.404 565.236C254.957 566.475 246.846 569.401 239.553 573.84C232.26 578.278 225.935 584.139 220.954 591.073C215.973 598.006 212.438 605.871 210.56 614.199C208.681 622.527 208.498 631.148 210.02 639.549C211.542 647.949 214.739 655.958 219.42 663.097C224.101 670.237 230.171 676.361 237.268 681.107C244.365 685.852 252.344 689.12 260.731 690.718C269.117 692.316 277.739 692.21 286.084 690.406C292.144 697.042 299.524 702.338 307.752 705.952C315.98 709.567 324.872 711.421 333.859 711.396C342.845 711.371 351.727 709.466 359.934 705.805C368.141 702.143 375.492 696.806 381.514 690.136C390.254 692.198 399.331 692.386 408.149 690.69C416.967 688.993 425.326 685.45 432.677 680.292C440.028 675.135 446.204 668.48 450.8 660.765C455.395 653.05 458.306 644.45 459.341 635.531C460.376 626.611 459.511 617.573 456.804 609.011C454.097 600.449 449.609 592.557 443.634 585.853C437.659 579.149 430.334 573.786 422.138 570.115C413.943 566.445 405.064 564.55 396.084 564.556Z" fill="#C6C7DB"/>
<path d="M-21.3189 579.562C-17.0879 579.56 -12.8671 579.979 -8.71889 580.812C-4.40585 568.359 3.66673 557.553 14.3843 549.884C25.1019 542.215 37.9359 538.063 51.1142 538.001C64.2926 537.938 77.1654 541.968 87.9553 549.535C98.7452 557.101 106.92 567.831 111.351 580.242C119.804 581.473 127.922 584.394 135.222 588.829C142.522 593.264 148.854 599.124 153.841 606.058C158.829 612.993 162.369 620.86 164.252 629.192C166.134 637.523 166.32 646.149 164.799 654.554C163.277 662.959 160.079 670.972 155.395 678.115C150.711 685.258 144.637 691.385 137.535 696.131C130.433 700.876 122.449 704.144 114.057 705.738C105.666 707.333 97.0388 707.222 88.6911 705.412C82.6304 712.048 75.2488 717.344 67.0205 720.959C58.7921 724.574 49.8987 726.428 40.9113 726.402C31.924 726.377 23.0412 724.473 14.8335 720.811C6.62566 717.15 -0.725792 711.813 -6.74889 705.142C-15.4888 707.204 -24.566 707.392 -33.384 705.696C-42.202 703.999 -50.5611 700.456 -57.912 695.298C-65.2629 690.141 -71.4391 683.486 -76.0346 675.771C-80.6302 668.056 -83.541 659.456 -84.5759 650.536C-85.6108 641.617 -84.7463 632.579 -82.0392 624.017C-79.3321 615.455 -74.8437 607.562 -68.869 600.859C-62.8943 594.155 -55.5686 588.792 -47.3732 585.121C-39.1779 581.451 -30.2986 579.556 -21.3189 579.562Z" fill="#C6C7DB"/>
<path d="M108.681 639.562C112.912 639.56 117.133 639.979 121.281 640.812C125.594 628.359 133.667 617.553 144.384 609.884C155.102 602.215 167.936 598.063 181.114 598.001C194.293 597.938 207.165 601.968 217.955 609.535C228.745 617.101 236.92 627.831 241.351 640.242C249.804 641.473 257.922 644.394 265.222 648.829C272.522 653.264 278.854 659.124 283.841 666.058C288.829 672.993 292.369 680.86 294.252 689.192C296.134 697.523 296.32 706.149 294.799 714.554C293.277 722.959 290.079 730.972 285.395 738.115C280.711 745.258 274.637 751.385 267.535 756.131C260.433 760.876 252.449 764.144 244.057 765.738C235.666 767.333 227.039 767.222 218.691 765.412C212.63 772.048 205.249 777.344 197.02 780.959C188.792 784.574 179.899 786.428 170.911 786.402C161.924 786.377 153.041 784.473 144.833 780.811C136.626 777.15 129.274 771.813 123.251 765.142C114.511 767.204 105.434 767.392 96.616 765.696C87.798 763.999 79.4389 760.456 72.088 755.298C64.7371 750.141 58.5609 743.486 53.9654 735.771C49.3698 728.056 46.459 719.456 45.4241 710.536C44.3892 701.617 45.2537 692.579 47.9608 684.017C50.6679 675.455 55.1563 667.562 61.131 660.859C67.1057 654.155 74.4314 648.792 82.6268 645.121C90.8221 641.451 99.7014 639.556 108.681 639.562Z" fill="#C6C7DB"/>
<path d="M196.715 517C194.757 519.8 191.992 521.936 188.789 523.122C185.586 524.309 182.097 524.491 178.788 523.642" fill="#7CCBC3"/>
<path d="M196.715 517C194.757 519.8 191.992 521.936 188.789 523.122C185.586 524.309 182.097 524.491 178.788 523.642" stroke="black" stroke-width="4" stroke-miterlimit="10" stroke-linecap="round"/>
<path d="M153.279 528.339C150.628 530.534 147.404 531.925 143.988 532.349C140.573 532.773 137.107 532.211 134 530.731" fill="#7CCBC3"/>
<path d="M153.279 528.339C150.628 530.534 147.404 531.925 143.988 532.349C140.573 532.773 137.107 532.211 134 530.731" stroke="black" stroke-width="4" stroke-miterlimit="10" stroke-linecap="round"/>
<path d="M183.844 537.457C180.277 541.197 175.704 543.824 170.677 545.021C165.65 546.218 160.384 545.934 155.514 544.204" fill="#7CCBC3"/>
<path d="M183.844 537.457C180.277 541.197 175.704 543.824 170.677 545.021C165.65 546.218 160.384 545.934 155.514 544.204" stroke="black" stroke-width="4" stroke-miterlimit="10" stroke-linecap="round"/>
</g>
</g>
</svg>
