<svg width="24" height="24" viewBox="0 0 24 24" fill="none" xmlns="http://www.w3.org/2000/svg">
<path d="M16.5 5.00001C15.6195 4.99931 14.7554 5.2378 14 5.69001C13.4523 4.4328 12.4904 3.40115 11.2745 2.76686C10.0587 2.13258 8.66226 1.93393 7.31776 2.204C5.97327 2.47407 4.76186 3.19655 3.88526 4.25115C3.00866 5.30574 2.51977 6.6288 2.5 8.00001V12C2.50144 13.4169 3.00425 14.7875 3.91939 15.8692C4.83452 16.9509 6.10294 17.6739 7.5 17.91V21C7.5 21.2652 7.60536 21.5196 7.79289 21.7071C7.98043 21.8947 8.23478 22 8.5 22C8.76522 22 9.01957 21.8947 9.20711 21.7071C9.39464 21.5196 9.5 21.2652 9.5 21V17.91C10.5187 17.7332 11.4755 17.2996 12.28 16.65C12.637 17.223 13.1064 17.7178 13.6598 18.1045C14.2132 18.4912 14.8392 18.7618 15.5 18.9V21C15.5 21.2652 15.6054 21.5196 15.7929 21.7071C15.9804 21.8947 16.2348 22 16.5 22C16.7652 22 17.0196 21.8947 17.2071 21.7071C17.3946 21.5196 17.5 21.2652 17.5 21V18.9C18.6294 18.6695 19.6444 18.0558 20.3733 17.1629C21.1022 16.27 21.5002 15.1527 21.5 14V10C21.5 8.67393 20.9732 7.40216 20.0355 6.46448C19.0979 5.52679 17.8261 5.00001 16.5 5.00001V5.00001ZM11.5 10V14C11.5096 14.191 11.5296 14.3812 11.56 14.57C11.0252 15.207 10.3051 15.6614 9.5 15.87V13C9.5 12.7348 9.39464 12.4804 9.20711 12.2929C9.01957 12.1054 8.76522 12 8.5 12C8.23478 12 7.98043 12.1054 7.79289 12.2929C7.60536 12.4804 7.5 12.7348 7.5 13V15.86C6.64352 15.6389 5.88451 15.1401 5.34169 14.4417C4.79887 13.7432 4.50287 12.8846 4.5 12V8.00001C4.49739 7.20758 4.73021 6.43222 5.16894 5.77231C5.60766 5.1124 6.2325 4.59767 6.9642 4.29342C7.69591 3.98916 8.5015 3.9091 9.27877 4.06339C10.056 4.21767 10.77 4.59936 11.33 5.16001C11.8714 5.70865 12.2399 6.40401 12.39 7.16001C11.8119 7.99439 11.5015 8.98495 11.5 10V10ZM19.5 14C19.4983 14.619 19.3051 15.2222 18.9471 15.7271C18.589 16.2319 18.0835 16.6137 17.5 16.82V13C17.5 12.7348 17.3946 12.4804 17.2071 12.2929C17.0196 12.1054 16.7652 12 16.5 12C16.2348 12 15.9804 12.1054 15.7929 12.2929C15.6054 12.4804 15.5 12.7348 15.5 13V16.82C14.9165 16.6137 14.411 16.2319 14.0529 15.7271C13.6949 15.2222 13.5017 14.619 13.5 14V10C13.5 9.20436 13.8161 8.4413 14.3787 7.87869C14.9413 7.31608 15.7044 7.00001 16.5 7.00001C17.2956 7.00001 18.0587 7.31608 18.6213 7.87869C19.1839 8.4413 19.5 9.20436 19.5 10V14Z" fill="white"/>
</svg>
