<svg width="24" height="24" viewBox="0 0 24 24" fill="none" xmlns="http://www.w3.org/2000/svg">
<path d="M6.62 13.08C6.4959 13.1249 6.3832 13.1966 6.28989 13.2899C6.19657 13.3832 6.12491 13.4959 6.08 13.62C6.00726 13.8017 5.98945 14.0008 6.02879 14.1926C6.06812 14.3843 6.16287 14.5603 6.30128 14.6987C6.43969 14.8371 6.61569 14.9319 6.80744 14.9712C6.99919 15.0106 7.19827 14.9928 7.38 14.92C7.50119 14.8694 7.6128 14.7983 7.71 14.71C7.79833 14.6128 7.86936 14.5012 7.92 14.38C7.97598 14.2613 8.00338 14.1312 8 14C7.99632 13.7352 7.89273 13.4816 7.71 13.29C7.56938 13.1513 7.3908 13.0573 7.19681 13.0199C7.00282 12.9825 6.80211 13.0034 6.62 13.08ZM19.76 9.08001L18.4 5.05001C18.1926 4.46324 17.8077 3.95551 17.2989 3.59717C16.7901 3.23883 16.1824 3.04761 15.56 3.05001H8.44C7.81764 3.04761 7.20995 3.23883 6.7011 3.59717C6.19225 3.95551 5.80745 4.46324 5.6 5.05001L4.24 9.11001C3.60033 9.27752 3.03392 9.65168 2.62883 10.1743C2.22374 10.6969 2.00268 11.3388 2 12V16C2.00174 16.619 2.19488 17.2222 2.55294 17.7271C2.911 18.2319 3.41645 18.6137 4 18.82V20C4 20.2652 4.10536 20.5196 4.29289 20.7071C4.48043 20.8947 4.73478 21 5 21C5.26522 21 5.51957 20.8947 5.70711 20.7071C5.89464 20.5196 6 20.2652 6 20V19H18V20C18 20.2652 18.1054 20.5196 18.2929 20.7071C18.4804 20.8947 18.7348 21 19 21C19.2652 21 19.5196 20.8947 19.7071 20.7071C19.8946 20.5196 20 20.2652 20 20V18.82C20.5835 18.6137 21.089 18.2319 21.4471 17.7271C21.8051 17.2222 21.9983 16.619 22 16V12C21.9973 11.3388 21.7763 10.6969 21.3712 10.1743C20.9661 9.65168 20.3997 9.27752 19.76 9.11001V9.08001ZM7.49 5.68001C7.55709 5.48139 7.6849 5.30888 7.85537 5.18685C8.02584 5.06483 8.23036 4.99947 8.44 5.00001H15.56C15.7781 4.98863 15.9939 5.04894 16.1744 5.17172C16.355 5.29451 16.4904 5.47303 16.56 5.68001L17.61 9.00001H6.39L7.49 5.68001ZM20 16C20 16.2652 19.8946 16.5196 19.7071 16.7071C19.5196 16.8947 19.2652 17 19 17H5C4.73478 17 4.48043 16.8947 4.29289 16.7071C4.10536 16.5196 4 16.2652 4 16V12C4 11.7348 4.10536 11.4804 4.29289 11.2929C4.48043 11.1054 4.73478 11 5 11H19C19.2652 11 19.5196 11.1054 19.7071 11.2929C19.8946 11.4804 20 11.7348 20 12V16ZM16.62 13.08C16.4959 13.1249 16.3832 13.1966 16.2899 13.2899C16.1966 13.3832 16.1249 13.4959 16.08 13.62C16.0073 13.8017 15.9895 14.0008 16.0288 14.1926C16.0681 14.3843 16.1629 14.5603 16.3013 14.6987C16.4397 14.8371 16.6157 14.9319 16.8074 14.9712C16.9992 15.0106 17.1983 14.9928 17.38 14.92C17.5041 14.8751 17.6168 14.8034 17.7101 14.7101C17.8034 14.6168 17.8751 14.5041 17.92 14.38C17.976 14.2613 18.0034 14.1312 18 14C17.9963 13.7352 17.8927 13.4816 17.71 13.29C17.5694 13.1513 17.3908 13.0573 17.1968 13.0199C17.0028 12.9825 16.8021 13.0034 16.62 13.08V13.08ZM13 13H11C10.7348 13 10.4804 13.1054 10.2929 13.2929C10.1054 13.4804 10 13.7348 10 14C10 14.2652 10.1054 14.5196 10.2929 14.7071C10.4804 14.8947 10.7348 15 11 15H13C13.2652 15 13.5196 14.8947 13.7071 14.7071C13.8946 14.5196 14 14.2652 14 14C14 13.7348 13.8946 13.4804 13.7071 13.2929C13.5196 13.1054 13.2652 13 13 13Z" fill="white"/>
</svg>
