<svg width="24" height="24" viewBox="0 0 24 24" fill="none" xmlns="http://www.w3.org/2000/svg">
<path d="M18.91 7.11998H14.21L16.26 5.19998C16.365 5.13159 16.4536 5.04084 16.5194 4.9342C16.5853 4.82757 16.6267 4.70769 16.6408 4.58317C16.6548 4.45865 16.6412 4.33255 16.6008 4.21391C16.5605 4.09527 16.4944 3.98703 16.4073 3.89693C16.3202 3.80683 16.2142 3.7371 16.097 3.69274C15.9798 3.64837 15.8543 3.63048 15.7293 3.64032C15.6044 3.65017 15.4832 3.68752 15.3744 3.7497C15.2656 3.81188 15.1719 3.89734 15.1 3.99998L12.15 6.72998L9.19999 3.99998C9.03795 3.85598 8.82702 3.77932 8.61033 3.7857C8.39365 3.79208 8.18759 3.88101 8.0343 4.03429C7.88102 4.18758 7.79209 4.39364 7.78571 4.61032C7.77933 4.82701 7.85598 5.03794 7.99999 5.19998L10.05 7.11998H5.04999C4.25434 7.11998 3.49128 7.43605 2.92867 7.99866C2.36606 8.56127 2.04999 9.32433 2.04999 10.12V17.94C2.04999 18.7356 2.36606 19.4987 2.92867 20.0613C3.49128 20.6239 4.25434 20.94 5.04999 20.94H18.91C19.7056 20.94 20.4687 20.6239 21.0313 20.0613C21.5939 19.4987 21.91 18.7356 21.91 17.94V10.09C21.9021 9.29954 21.5825 8.54416 21.0208 7.98803C20.459 7.43189 19.7005 7.11994 18.91 7.11998V7.11998ZM20.12 17.91C20.12 18.0689 20.0887 18.2262 20.0279 18.373C19.9671 18.5198 19.8779 18.6532 19.7656 18.7656C19.6532 18.8779 19.5198 18.9671 19.373 19.0279C19.2262 19.0887 19.0689 19.12 18.91 19.12H5.08999C4.76908 19.12 4.46131 18.9925 4.23439 18.7656C4.00747 18.5387 3.87999 18.2309 3.87999 17.91V10.09C3.87999 9.76907 4.00747 9.4613 4.23439 9.23438C4.46131 9.00746 4.76908 8.87998 5.08999 8.87998H18.91C19.0689 8.87998 19.2262 8.91128 19.373 8.97209C19.5198 9.03289 19.6532 9.12202 19.7656 9.23438C19.8779 9.34674 19.9671 9.48013 20.0279 9.62693C20.0887 9.77374 20.12 9.93108 20.12 10.09V17.91Z" fill="white"/>
<path d="M15 10.16C14.2405 10.16 13.4981 10.3852 12.8666 10.8071C12.2351 11.2291 11.7429 11.8288 11.4523 12.5305C11.1616 13.2321 11.0856 14.0042 11.2338 14.7491C11.3819 15.494 11.7477 16.1782 12.2847 16.7153C12.8217 17.2523 13.5059 17.618 14.2508 17.7662C14.9957 17.9144 15.7678 17.8383 16.4695 17.5477C17.1711 17.257 17.7709 16.7648 18.1928 16.1334C18.6148 15.5019 18.84 14.7595 18.84 14C18.84 12.9815 18.4354 12.0048 17.7153 11.2847C16.9951 10.5645 16.0184 10.16 15 10.16V10.16ZM15 16.16C14.5728 16.16 14.1552 16.0333 13.7999 15.7959C13.4447 15.5586 13.1679 15.2213 13.0044 14.8266C12.8409 14.4319 12.7981 13.9976 12.8815 13.5786C12.9648 13.1596 13.1705 12.7747 13.4726 12.4726C13.7747 12.1705 14.1596 11.9648 14.5786 11.8815C14.9976 11.7981 15.4319 11.8409 15.8266 12.0044C16.2213 12.1679 16.5586 12.4447 16.7959 12.7999C17.0333 13.1552 17.16 13.5728 17.16 14C17.16 14.5728 16.9324 15.1222 16.5273 15.5273C16.1222 15.9324 15.5728 16.16 15 16.16Z" fill="white"/>
<path d="M8.00002 12.15H6.00002C5.77459 12.15 5.55839 12.2396 5.39898 12.399C5.23958 12.5584 5.15002 12.7746 5.15002 13C5.15002 13.2255 5.23958 13.4417 5.39898 13.6011C5.55839 13.7605 5.77459 13.85 6.00002 13.85H8.00002C8.22546 13.85 8.44166 13.7605 8.60106 13.6011C8.76047 13.4417 8.85002 13.2255 8.85002 13C8.85002 12.7746 8.76047 12.5584 8.60106 12.399C8.44166 12.2396 8.22546 12.15 8.00002 12.15V12.15Z" fill="white"/>
<path d="M8.00002 15.15H6.00002C5.77459 15.15 5.55839 15.2396 5.39898 15.399C5.23958 15.5584 5.15002 15.7746 5.15002 16C5.15002 16.2255 5.23958 16.4417 5.39898 16.6011C5.55839 16.7605 5.77459 16.85 6.00002 16.85H8.00002C8.22546 16.85 8.44166 16.7605 8.60106 16.6011C8.76047 16.4417 8.85002 16.2255 8.85002 16C8.85002 15.7746 8.76047 15.5584 8.60106 15.399C8.44166 15.2396 8.22546 15.15 8.00002 15.15V15.15Z" fill="white"/>
</svg>
