<svg width="24" height="24" viewBox="0 0 24 24" fill="none" xmlns="http://www.w3.org/2000/svg">
<path d="M9 7.74998C9 4.99998 6.42 3.23998 6.31 3.16998C6.14463 3.05821 5.9496 2.99847 5.75 2.99847C5.5504 2.99847 5.35537 3.05821 5.19 3.16998C5.08 3.24998 2.5 4.99998 2.5 7.74998C2.5 8.61194 2.84241 9.43859 3.4519 10.0481C4.0614 10.6576 4.88805 11 5.75 11C6.61195 11 7.4386 10.6576 8.0481 10.0481C8.65759 9.43859 9 8.61194 9 7.74998V7.74998ZM5.75 8.99998C5.41848 8.99998 5.10054 8.86829 4.86612 8.63386C4.6317 8.39944 4.5 8.0815 4.5 7.74998C4.58229 6.80186 5.03065 5.92307 5.75 5.29998C6.47364 5.9197 6.92296 6.80036 7 7.74998C7 8.0815 6.8683 8.39944 6.63388 8.63386C6.39946 8.86829 6.08152 8.99998 5.75 8.99998V8.99998ZM11.81 10.17C11.6446 10.0582 11.4496 9.99847 11.25 9.99847C11.0504 9.99847 10.8554 10.0582 10.69 10.17C10.52 10.29 6.5 13.07 6.5 17.25C6.5 18.5098 7.00045 19.7179 7.89124 20.6087C8.78204 21.4995 9.99022 22 11.25 22C12.5098 22 13.718 21.4995 14.6088 20.6087C15.4996 19.7179 16 18.5098 16 17.25C16 13 12 10.28 11.81 10.17V10.17ZM11.25 20C10.8889 20 10.5313 19.9288 10.1976 19.7906C9.86398 19.6524 9.56082 19.4499 9.30546 19.1945C9.0501 18.9392 8.84753 18.636 8.70933 18.3024C8.57113 17.9687 8.5 17.6111 8.5 17.25C8.5 14.94 10.31 13.08 11.26 12.25C12.2 13.04 14 14.88 14 17.25C14 17.6111 13.9289 17.9687 13.7907 18.3024C13.6525 18.636 13.4499 18.9392 13.1945 19.1945C12.9392 19.4499 12.636 19.6524 12.3024 19.7906C11.9687 19.9288 11.6111 20 11.25 20V20ZM18.06 2.16998C17.8946 2.05821 17.6996 1.99847 17.5 1.99847C17.3004 1.99847 17.1054 2.05821 16.94 2.16998C16.8 2.26998 13.5 4.54998 13.5 7.99998C13.5 9.06085 13.9214 10.0783 14.6716 10.8284C15.4217 11.5786 16.4391 12 17.5 12C18.5609 12 19.5783 11.5786 20.3284 10.8284C21.0786 10.0783 21.5 9.06085 21.5 7.99998C21.5 4.50998 18.2 2.25998 18.06 2.16998ZM17.5 9.99998C16.9696 9.99998 16.4609 9.78927 16.0858 9.41419C15.7107 9.03912 15.5 8.53041 15.5 7.99998C15.5685 7.2779 15.7808 6.57681 16.1242 5.93796C16.4677 5.29911 16.9355 4.7354 17.5 4.27998C18.0666 4.73346 18.5359 5.2967 18.8795 5.93593C19.2232 6.57516 19.4343 7.27721 19.5 7.99998C19.5 8.53041 19.2893 9.03912 18.9142 9.41419C18.5391 9.78927 18.0304 9.99998 17.5 9.99998Z" fill="white"/>
</svg>
