<svg width="24" height="24" viewBox="0 0 24 24" fill="none" xmlns="http://www.w3.org/2000/svg">
<path d="M11 19H8C7.73478 19 7.48043 19.1054 7.29289 19.2929C7.10536 19.4804 7 19.7348 7 20C7 20.2652 7.10536 20.5196 7.29289 20.7071C7.48043 20.8946 7.73478 21 8 21H11C11.2652 21 11.5196 20.8946 11.7071 20.7071C11.8946 20.5196 12 20.2652 12 20C12 19.7348 11.8946 19.4804 11.7071 19.2929C11.5196 19.1054 11.2652 19 11 19ZM20 15H18.84C19.4153 14.1017 19.8094 13.0996 20 12.05C20.0289 11.8788 20.0128 11.703 19.9532 11.54C19.8936 11.3769 19.7925 11.2322 19.66 11.12C19.5256 11.0017 19.3619 10.9217 19.186 10.8882C19.0101 10.8548 18.8284 10.8692 18.66 10.93C18.0417 11.1405 17.3932 11.2485 16.74 11.25C15.1431 11.2501 13.6108 10.6199 12.476 9.49633C11.3412 8.3728 10.6958 6.84679 10.68 5.24999C10.6891 4.91468 10.7225 4.58047 10.78 4.24999C10.806 4.07948 10.7874 3.90515 10.726 3.74395C10.6647 3.58274 10.5627 3.44014 10.43 3.32999C10.2946 3.21338 10.1304 3.13518 9.95457 3.10352C9.7787 3.07187 9.59756 3.08792 9.43 3.15C7.85902 3.69218 6.49405 4.70673 5.522 6.05471C4.54995 7.40269 4.01835 9.01819 4 10.68C4.00099 12.2119 4.44179 13.7113 5.27 15H4C3.73478 15 3.48043 15.1054 3.29289 15.2929C3.10536 15.4804 3 15.7348 3 16C3 16.2652 3.10536 16.5196 3.29289 16.7071C3.48043 16.8946 3.73478 17 4 17H20C20.2652 17 20.5196 16.8946 20.7071 16.7071C20.8946 16.5196 21 16.2652 21 16C21 15.7348 20.8946 15.4804 20.7071 15.2929C20.5196 15.1054 20.2652 15 20 15ZM16.28 15H7.83C7.17747 14.3744 6.67474 13.6094 6.35938 12.7622C6.04401 11.915 5.92416 11.0074 6.00878 10.1074C6.0934 9.20737 6.3803 8.33809 6.84804 7.56451C7.31579 6.79093 7.95229 6.13304 8.71 5.63999C8.82502 7.69697 9.72335 9.63181 11.2205 11.0471C12.7176 12.4624 14.6998 13.2507 16.76 13.25C17.0231 13.2649 17.2869 13.2649 17.55 13.25C17.2346 13.9045 16.8045 14.4972 16.28 15V15ZM16 19H15C14.7348 19 14.4804 19.1054 14.2929 19.2929C14.1054 19.4804 14 19.7348 14 20C14 20.2652 14.1054 20.5196 14.2929 20.7071C14.4804 20.8946 14.7348 21 15 21H16C16.2652 21 16.5196 20.8946 16.7071 20.7071C16.8946 20.5196 17 20.2652 17 20C17 19.7348 16.8946 19.4804 16.7071 19.2929C16.5196 19.1054 16.2652 19 16 19Z" fill="white"/>
</svg>
