<svg width="24" height="24" viewBox="0 0 24 24" fill="none" xmlns="http://www.w3.org/2000/svg">
<path d="M17.83 10C17.7599 8.47637 17.0894 7.04246 15.9651 6.0118C14.8407 4.98115 13.354 4.43761 11.83 4.50002C10.306 4.43761 8.81935 4.98115 7.695 6.0118C6.57065 7.04246 5.90012 8.47637 5.83002 10C5.81978 10.1665 5.81978 10.3335 5.83002 10.5C5.06991 10.5991 4.36535 10.9514 3.83002 11.5C3.18768 12.1495 2.82821 13.0266 2.83002 13.94C2.83392 14.2819 2.90545 14.6195 3.04049 14.9336C3.17553 15.2477 3.37142 15.5319 3.61684 15.7699C3.86226 16.0078 4.15237 16.1949 4.47043 16.3202C4.7885 16.4455 5.12823 16.5066 5.47002 16.5H8.77003" stroke="white" stroke-width="1.9" stroke-linecap="round" stroke-linejoin="round"/>
<path d="M18.75 20.8C19.3797 20.7664 19.9704 20.4842 20.3922 20.0155C20.8141 19.5468 21.0327 18.9298 21 18.3C21.0053 18.1074 20.9725 17.9157 20.9034 17.7359C20.8342 17.5561 20.7302 17.3917 20.5973 17.2523C20.4644 17.1128 20.3052 17.0011 20.1288 16.9235C19.9525 16.8458 19.7626 16.8039 19.57 16.8H12" stroke="white" stroke-width="1.9" stroke-linecap="round" stroke-linejoin="round"/>
<path d="M14.83 13.5H18.83C19.3605 13.5 19.8692 13.2893 20.2442 12.9142C20.6193 12.5391 20.83 12.0304 20.83 11.5" stroke="white" stroke-width="1.9" stroke-linecap="round" stroke-linejoin="round"/>
<path d="M8.83002 13.5H11.83" stroke="white" stroke-width="1.9" stroke-linecap="round" stroke-linejoin="round"/>
</svg>
