<svg width="24" height="24" viewBox="0 0 24 24" fill="none" xmlns="http://www.w3.org/2000/svg">
<path d="M12.89 18.06C12.6407 17.97 12.3658 17.9826 12.1258 18.0951C11.8858 18.2076 11.7003 18.4108 11.61 18.66L10.88 20.66C10.7899 20.9093 10.8025 21.1842 10.915 21.4242C11.0276 21.6642 11.2308 21.8498 11.48 21.94C11.589 21.9796 11.704 21.9999 11.82 22C12.0255 21.9999 12.226 21.9365 12.3942 21.8184C12.5624 21.7003 12.6901 21.5333 12.76 21.34L13.49 19.34C13.5801 19.0907 13.5674 18.8158 13.4549 18.5758C13.3424 18.3358 13.1392 18.1503 12.89 18.06V18.06ZM8.88999 18.06C8.64068 17.97 8.36581 17.9826 8.1258 18.0951C7.88578 18.2076 7.70025 18.4108 7.60999 18.66L6.87999 20.66C6.78993 20.9093 6.80253 21.1842 6.91504 21.4242C7.02755 21.6642 7.23075 21.8498 7.47999 21.94C7.58899 21.9796 7.70403 21.9999 7.81999 22C8.0255 21.9999 8.226 21.9365 8.39419 21.8184C8.56239 21.7003 8.69012 21.5333 8.75999 21.34L9.48999 19.34C9.58005 19.0907 9.56744 18.8158 9.45494 18.5758C9.34243 18.3358 9.13923 18.1503 8.88999 18.06V18.06ZM8.88999 11.06C8.64068 10.97 8.36581 10.9826 8.1258 11.0951C7.88578 11.2076 7.70025 11.4108 7.60999 11.66L6.50999 14.66C6.45541 14.811 6.43797 14.9729 6.45917 15.132C6.48036 15.2912 6.53956 15.4429 6.63176 15.5743C6.72395 15.7057 6.84644 15.813 6.98886 15.8871C7.13128 15.9612 7.28945 15.9999 7.44999 16C7.6555 15.9999 7.856 15.9365 8.02419 15.8184C8.19239 15.7003 8.32012 15.5333 8.38999 15.34L9.48999 12.34C9.58005 12.0907 9.56744 11.8158 9.45494 11.5758C9.34243 11.3358 9.13923 11.1503 8.88999 11.06ZM12.89 11.06C12.6407 10.97 12.3658 10.9826 12.1258 11.0951C11.8858 11.2076 11.7003 11.4108 11.61 11.66L10.51 14.66C10.4554 14.811 10.438 14.9729 10.4592 15.132C10.4804 15.2912 10.5396 15.4429 10.6318 15.5743C10.724 15.7057 10.8464 15.813 10.9889 15.8871C11.1313 15.9612 11.2894 15.9999 11.45 16C11.6555 15.9999 11.856 15.9365 12.0242 15.8184C12.1924 15.7003 12.3201 15.5333 12.39 15.34L13.49 12.34C13.5801 12.0907 13.5674 11.8158 13.4549 11.5758C13.3424 11.3358 13.1392 11.1503 12.89 11.06V11.06ZM18.42 6.22002C17.809 4.81602 16.7545 3.65109 15.4181 2.90374C14.0816 2.15639 12.537 1.86785 11.021 2.08233C9.50486 2.2968 8.10091 3.00247 7.02424 4.09119C5.94757 5.17991 5.25758 6.59163 5.05999 8.11002C4.1874 8.32098 3.41115 8.81934 2.85612 9.52493C2.30108 10.2305 1.99954 11.1023 1.99999 12C1.9982 12.5664 2.11674 13.1268 2.34774 13.644C2.57875 14.1611 2.91696 14.6233 3.33999 15C3.43735 15.0935 3.55263 15.1664 3.67889 15.2141C3.80515 15.2619 3.93977 15.2836 4.07464 15.2779C4.20951 15.2723 4.34185 15.2394 4.46366 15.1812C4.58547 15.123 4.69425 15.0408 4.78343 14.9394C4.8726 14.8381 4.94034 14.7198 4.98256 14.5915C5.02477 14.4633 5.04059 14.3279 5.02906 14.1934C5.01752 14.0589 4.97888 13.9281 4.91545 13.8089C4.85202 13.6898 4.76512 13.5847 4.65999 13.5C4.45029 13.3108 4.28306 13.0793 4.1693 12.8207C4.05554 12.5622 3.99784 12.2825 3.99999 12C3.99999 11.4696 4.2107 10.9609 4.58578 10.5858C4.96085 10.2107 5.46956 10 5.99999 10C6.26521 10 6.51956 9.89466 6.7071 9.70712C6.89463 9.51959 6.99999 9.26523 6.99999 9.00002C7.00254 7.81729 7.42428 6.67377 8.19026 5.7726C8.95624 4.87143 10.0169 4.27097 11.1837 4.07789C12.3506 3.88481 13.5481 4.11162 14.5636 4.71803C15.579 5.32443 16.3466 6.27116 16.73 7.39002C16.7872 7.56186 16.8899 7.71495 17.0273 7.83295C17.1647 7.95095 17.3315 8.02943 17.51 8.06002C18.2042 8.17976 18.834 8.53995 19.2893 9.07748C19.7446 9.61502 19.9962 10.2956 20 11C20.0153 11.7363 19.7508 12.451 19.26 13C19.1003 13.1988 19.0227 13.4511 19.0428 13.7053C19.063 13.9595 19.1795 14.1963 19.3685 14.3675C19.5575 14.5386 19.8048 14.6311 20.0597 14.626C20.3146 14.6209 20.558 14.5186 20.74 14.34C21.2908 13.7106 21.6749 12.953 21.8571 12.1367C22.0394 11.3204 22.0139 10.4714 21.7831 9.66745C21.5522 8.86352 21.1234 8.13034 20.5359 7.53505C19.9483 6.93975 19.2208 6.50136 18.42 6.26002V6.22002ZM16.89 18.06C16.6407 17.97 16.3658 17.9826 16.1258 18.0951C15.8858 18.2076 15.7003 18.4108 15.61 18.66L14.88 20.66C14.7899 20.9093 14.8025 21.1842 14.915 21.4242C15.0276 21.6642 15.2308 21.8498 15.48 21.94C15.589 21.9796 15.704 21.9999 15.82 22C16.0255 21.9999 16.226 21.9365 16.3942 21.8184C16.5624 21.7003 16.6901 21.5333 16.76 21.34L17.49 19.34C17.5801 19.0907 17.5674 18.8158 17.4549 18.5758C17.3424 18.3358 17.1392 18.1503 16.89 18.06ZM16.89 11.06C16.6407 10.97 16.3658 10.9826 16.1258 11.0951C15.8858 11.2076 15.7003 11.4108 15.61 11.66L14.51 14.66C14.4554 14.811 14.438 14.9729 14.4592 15.132C14.4804 15.2912 14.5396 15.4429 14.6318 15.5743C14.724 15.7057 14.8464 15.813 14.9889 15.8871C15.1313 15.9612 15.2894 15.9999 15.45 16C15.6555 15.9999 15.856 15.9365 16.0242 15.8184C16.1924 15.7003 16.3201 15.5333 16.39 15.34L17.49 12.34C17.5801 12.0907 17.5674 11.8158 17.4549 11.5758C17.3424 11.3358 17.1392 11.1503 16.89 11.06Z" fill="white"/>
</svg>
