<svg width="24" height="24" viewBox="0 0 24 24" fill="none" xmlns="http://www.w3.org/2000/svg">
<path d="M22 5.07999C22.0008 4.47021 21.8207 3.8739 21.4823 3.36662C21.1439 2.85934 20.6626 2.46391 20.0992 2.23045C19.5359 1.99698 18.916 1.93598 18.318 2.05517C17.7199 2.17437 17.1708 2.46839 16.74 2.89999L13.93 5.70999L7.44 3.54999C7.26721 3.49568 7.08291 3.48932 6.90678 3.53159C6.73066 3.57386 6.56932 3.66317 6.44 3.78999L4.06 6.14999C3.94723 6.26406 3.86356 6.4036 3.81604 6.55681C3.76853 6.71002 3.75857 6.87241 3.78701 7.03028C3.81544 7.18814 3.88144 7.33686 3.97943 7.46386C4.07741 7.59086 4.20451 7.69243 4.35 7.75999L9.53 10.11L6.93 12.71L5.22 11.85C5.03537 11.7501 4.82398 11.7108 4.61578 11.7377C4.40758 11.7646 4.21314 11.8564 4.06 12L2.29 13.81C2.10375 13.9973 1.99921 14.2508 1.99921 14.515C1.99921 14.7792 2.10375 15.0326 2.29 15.22L8.78 21.71C8.96736 21.8962 9.22081 22.0008 9.485 22.0008C9.74918 22.0008 10.0026 21.8962 10.19 21.71L12 19.94C12.1501 19.7915 12.2493 19.5992 12.2834 19.3909C12.3176 19.1825 12.2849 18.9686 12.19 18.78L11.33 17.07L13.93 14.47L16.28 19.65C16.3476 19.7955 16.4491 19.9226 16.5761 20.0206C16.7031 20.1185 16.8518 20.1845 17.0097 20.213C17.1676 20.2414 17.33 20.2315 17.4832 20.1839C17.6364 20.1364 17.7759 20.0528 17.89 19.94L20.25 17.58C20.3768 17.4507 20.4661 17.2893 20.5084 17.1132C20.5507 16.9371 20.5443 16.7528 20.49 16.58L18.33 10.09L21.1 7.25999C21.3872 6.97455 21.6147 6.63478 21.7692 6.2605C21.9238 5.88621 22.0022 5.48491 22 5.07999V5.07999ZM19.68 5.84999L16.44 9.08999C16.3132 9.21931 16.2239 9.38065 16.1816 9.55677C16.1393 9.7329 16.1457 9.91719 16.2 10.09L18.36 16.57L17.46 17.47L15.11 12.3C15.0433 12.1532 14.9421 12.0246 14.815 11.9254C14.6879 11.8261 14.5386 11.7591 14.38 11.73C14.2201 11.7008 14.0554 11.711 13.9003 11.7598C13.7453 11.8086 13.6044 11.8945 13.49 12.01L9.37 16.17C9.22208 16.3178 9.12421 16.5082 9.09012 16.7144C9.05604 16.9207 9.08748 17.1325 9.18 17.32L10 19L9.44 19.56L4.41 14.52L5 14L6.71 14.86C6.89749 14.9525 7.10926 14.9839 7.31554 14.9499C7.52182 14.9158 7.71223 14.8179 7.86 14.67L12 10.51C12.1149 10.396 12.2004 10.2558 12.2492 10.1014C12.298 9.94711 12.3085 9.78323 12.28 9.6239C12.2515 9.46457 12.1847 9.31454 12.0854 9.18671C11.9862 9.05887 11.8573 8.95705 11.71 8.88999L6.5 6.53999L7.4 5.63999L13.88 7.79999C14.0528 7.8543 14.2371 7.86066 14.4132 7.81839C14.5893 7.77612 14.7507 7.6868 14.88 7.55999L18.12 4.31999C18.2196 4.21809 18.3387 4.13713 18.47 4.08185C18.6014 4.02657 18.7425 3.9981 18.885 3.9981C19.0275 3.9981 19.1686 4.02657 19.3 4.08185C19.4313 4.13713 19.5504 4.21809 19.65 4.31999C19.7543 4.41663 19.8368 4.53441 19.892 4.66547C19.9472 4.79652 19.9738 4.93784 19.97 5.07999C19.9754 5.22118 19.9526 5.36204 19.9028 5.49427C19.853 5.62651 19.7772 5.74745 19.68 5.84999V5.84999Z" fill="white"/>
</svg>
