<svg width="24" height="24" viewBox="0 0 24 24" fill="none" xmlns="http://www.w3.org/2000/svg">
<path d="M5.17999 6.99999C5.15544 6.55737 5.22144 6.11438 5.37393 5.69813C5.52642 5.28187 5.7622 4.90109 6.06687 4.57906C6.37153 4.25703 6.73868 4.00053 7.14585 3.82523C7.55303 3.64992 7.99168 3.55951 8.43499 3.55951C8.8783 3.55951 9.31695 3.64992 9.72412 3.82523C10.1313 4.00053 10.4984 4.25703 10.8031 4.57906C11.1078 4.90109 11.3436 5.28187 11.496 5.69813C11.6485 6.11438 11.7145 6.55737 11.69 6.99999L20.1 18.17H11.18C9.58869 18.17 8.06257 17.5379 6.93735 16.4126C5.81213 15.2874 5.17999 13.7613 5.17999 12.17V6.99999Z" stroke="white" stroke-width="1.8" stroke-linecap="round" stroke-linejoin="round"/>
<path d="M5.17998 7.02002H3.41998" stroke="white" stroke-width="1.8" stroke-linecap="round" stroke-linejoin="round"/>
<path d="M11.66 7.39001C10.9267 8.33781 10.4157 9.43824 10.1647 10.61C9.91374 11.7818 9.92923 12.995 10.21 14.16C10.97 16.97 17.13 17.61 20.1 18.16" stroke="white" stroke-width="1.8" stroke-linecap="round" stroke-linejoin="round"/>
<path d="M13.49 18.58L12.04 20.39" stroke="white" stroke-width="1.8" stroke-linecap="round" stroke-linejoin="round"/>
<path d="M14.58 20.89H9.40997" stroke="white" stroke-width="1.8" stroke-linecap="round" stroke-linejoin="round"/>
</svg>
