<svg width="24" height="24" viewBox="0 0 24 24" fill="none" xmlns="http://www.w3.org/2000/svg">
<path d="M2.72002 7.64998C2.91558 7.7074 3.10357 7.78797 3.28002 7.88998C3.89984 8.25991 4.6082 8.45523 5.33002 8.45523C6.05184 8.45523 6.76021 8.25991 7.38002 7.88998C7.77048 7.66914 8.21144 7.55307 8.66002 7.55307C9.10861 7.55307 9.54956 7.66914 9.94002 7.88998C10.5673 8.24867 11.2774 8.43735 12 8.43735C12.7226 8.43735 13.4327 8.24867 14.06 7.88998C14.4505 7.66914 14.8914 7.55307 15.34 7.55307C15.7886 7.55307 16.2296 7.66914 16.62 7.88998C17.2538 8.25217 17.9701 8.44503 18.7 8.44998C19.4052 8.44852 20.0966 8.25492 20.7 7.88998C20.8765 7.78797 21.0645 7.7074 21.26 7.64998C21.5146 7.57572 21.7293 7.40336 21.8568 7.17081C21.9844 6.93827 22.0143 6.66459 21.94 6.40998C21.8658 6.15537 21.6934 5.94069 21.4609 5.81317C21.2283 5.68564 20.9546 5.65572 20.7 5.72998C20.3494 5.83818 20.0135 5.98932 19.7 6.17998C19.3815 6.36627 19.0191 6.46446 18.65 6.46446C18.281 6.46446 17.9186 6.36627 17.6 6.17998C16.9067 5.79105 16.125 5.58679 15.33 5.58679C14.535 5.58679 13.7534 5.79105 13.06 6.17998C12.7381 6.36703 12.3724 6.46556 12 6.46556C11.6277 6.46556 11.262 6.36703 10.94 6.17998C10.2467 5.79105 9.46501 5.58679 8.67002 5.58679C7.87503 5.58679 7.09338 5.79105 6.40002 6.17998C6.08146 6.36627 5.71906 6.46446 5.35002 6.46446C4.98098 6.46446 4.61859 6.36627 4.30002 6.17998C3.98652 5.98932 3.65063 5.83818 3.30002 5.72998C3.04541 5.65572 2.77173 5.68564 2.53919 5.81317C2.30664 5.94069 2.13428 6.15537 2.06002 6.40998C1.98576 6.66459 2.01568 6.93827 2.14321 7.17081C2.27073 7.40336 2.48541 7.57572 2.74002 7.64998H2.72002ZM20.72 15.73C20.3694 15.8382 20.0335 15.9893 19.72 16.18C19.4015 16.3663 19.0391 16.4645 18.67 16.4645C18.301 16.4645 17.9386 16.3663 17.62 16.18C16.9267 15.7911 16.145 15.5868 15.35 15.5868C14.555 15.5868 13.7734 15.7911 13.08 16.18C12.7581 16.367 12.3924 16.4656 12.02 16.4656C11.6477 16.4656 11.282 16.367 10.96 16.18C10.2667 15.7911 9.48501 15.5868 8.69002 15.5868C7.89503 15.5868 7.11338 15.7911 6.42002 16.18C6.10146 16.3663 5.73906 16.4645 5.37002 16.4645C5.00098 16.4645 4.63859 16.3663 4.32002 16.18C4.00652 15.9893 3.67063 15.8382 3.32002 15.73C3.19395 15.6932 3.06188 15.6816 2.93133 15.6959C2.80079 15.7102 2.67433 15.75 2.55919 15.8132C2.44404 15.8763 2.34246 15.9615 2.26025 16.0639C2.17803 16.1663 2.11679 16.2839 2.08002 16.41C2.04325 16.536 2.03167 16.6681 2.04595 16.7987C2.06022 16.9292 2.10007 17.0557 2.16321 17.1708C2.22635 17.286 2.31156 17.3875 2.41396 17.4698C2.51636 17.552 2.63395 17.6132 2.76002 17.65C2.95558 17.7074 3.14357 17.788 3.32002 17.89C3.93984 18.2599 4.6482 18.4552 5.37002 18.4552C6.09184 18.4552 6.80021 18.2599 7.42002 17.89C7.81048 17.6691 8.25144 17.5531 8.70002 17.5531C9.14861 17.5531 9.58956 17.6691 9.98002 17.89C10.6073 18.2487 11.3174 18.4374 12.04 18.4374C12.7626 18.4374 13.4727 18.2487 14.1 17.89C14.4905 17.6691 14.9314 17.5531 15.38 17.5531C15.8286 17.5531 16.2696 17.6691 16.66 17.89C17.2938 18.2522 18.0101 18.445 18.74 18.45C19.4452 18.4485 20.1366 18.2549 20.74 17.89C20.9165 17.788 21.1045 17.7074 21.3 17.65C21.5546 17.5757 21.7693 17.4034 21.8968 17.1708C22.0244 16.9383 22.0543 16.6646 21.98 16.41C21.9058 16.1554 21.7334 15.9407 21.5009 15.8132C21.2683 15.6856 20.9946 15.6557 20.74 15.73H20.72ZM20.72 10.73C20.3694 10.8382 20.0335 10.9893 19.72 11.18C19.4015 11.3663 19.0391 11.4645 18.67 11.4645C18.301 11.4645 17.9386 11.3663 17.62 11.18C16.9267 10.7911 16.145 10.5868 15.35 10.5868C14.555 10.5868 13.7734 10.7911 13.08 11.18C12.7581 11.367 12.3924 11.4656 12.02 11.4656C11.6477 11.4656 11.282 11.367 10.96 11.18C10.2667 10.7911 9.48501 10.5868 8.69002 10.5868C7.89503 10.5868 7.11338 10.7911 6.42002 11.18C6.10146 11.3663 5.73906 11.4645 5.37002 11.4645C5.00098 11.4645 4.63859 11.3663 4.32002 11.18C4.00652 10.9893 3.67063 10.8382 3.32002 10.73C3.18908 10.6805 3.04923 10.6591 2.9095 10.6672C2.76977 10.6752 2.63328 10.7125 2.50886 10.7766C2.38444 10.8406 2.27486 10.9301 2.18721 11.0393C2.09956 11.1484 2.03579 11.2747 2.00002 11.41C1.96325 11.536 1.95167 11.6681 1.96595 11.7987C1.98022 11.9292 2.02007 12.0557 2.08321 12.1708C2.14635 12.286 2.23156 12.3875 2.33396 12.4698C2.43636 12.552 2.55395 12.6132 2.68002 12.65C2.87558 12.7074 3.06357 12.788 3.24002 12.89C3.85984 13.2599 4.5682 13.4552 5.29002 13.4552C6.01184 13.4552 6.72021 13.2599 7.34002 12.89C7.73048 12.6691 8.17144 12.5531 8.62002 12.5531C9.06861 12.5531 9.50956 12.6691 9.90002 12.89C10.5273 13.2487 11.2374 13.4374 11.96 13.4374C12.6826 13.4374 13.3927 13.2487 14.02 12.89C14.4105 12.6691 14.8514 12.5531 15.3 12.5531C15.7486 12.5531 16.1896 12.6691 16.58 12.89C17.2138 13.2522 17.9301 13.445 18.66 13.45C19.3652 13.4485 20.0566 13.2549 20.66 12.89C20.8365 12.788 21.0245 12.7074 21.22 12.65C21.4746 12.5757 21.6893 12.4034 21.8168 12.1708C21.9444 11.9383 21.9743 11.6646 21.9 11.41C21.8258 11.1554 21.6534 10.9407 21.4209 10.8132C21.1883 10.6856 20.9146 10.6557 20.66 10.73H20.72Z" fill="white"/>
</svg>
