<svg width="24" height="24" viewBox="0 0 24 24" fill="none" xmlns="http://www.w3.org/2000/svg">
<path d="M14.47 8.24001C15.0835 7.38644 15.4125 6.36121 15.41 5.31001V5.31001C15.3345 4.52045 15.0834 3.75776 14.675 3.07778C14.2667 2.39779 13.7115 1.81772 13.05 1.38001C12.9041 1.27577 12.7293 1.21973 12.55 1.21973C12.3707 1.21973 12.1959 1.27577 12.05 1.38001C11.3903 1.81773 10.8374 2.3982 10.4324 3.07848C10.0273 3.75876 9.78044 4.52142 9.71001 5.31001C9.70089 6.3545 10.0191 7.37562 10.62 8.23001V8.23001C10.358 8.22645 10.098 8.27601 9.85564 8.37569C9.61331 8.47538 9.39368 8.62312 9.21001 8.81001C8.83808 9.185 8.62958 9.69187 8.63001 10.22V20.94C8.63001 21.4704 8.84072 21.9792 9.21579 22.3542C9.59086 22.7293 10.0996 22.94 10.63 22.94H14.3C14.8304 22.94 15.3391 22.7293 15.7142 22.3542C16.0893 21.9792 16.3 21.4704 16.3 20.94V10.22C16.2968 9.72121 16.1074 9.24161 15.7688 8.87529C15.4302 8.50898 14.967 8.2824 14.47 8.24001ZM12.55 3.17001C12.8793 3.43959 13.1514 3.77212 13.3506 4.14816C13.5498 4.5242 13.672 4.93618 13.71 5.36001C13.7081 6.14913 13.4244 6.91162 12.91 7.51001C12.8185 7.62162 12.6971 7.70487 12.56 7.75001C12.4182 7.70881 12.2926 7.62503 12.2 7.51001C11.6884 6.91065 11.4082 6.14801 11.41 5.36001C11.445 4.93754 11.5638 4.52627 11.7595 4.15025C11.9553 3.77423 12.224 3.44099 12.55 3.17001V3.17001ZM10.37 10C10.428 9.94884 10.5026 9.92042 10.58 9.92001H14.3C14.3769 9.92001 14.4507 9.95057 14.5051 10.005C14.5595 10.0593 14.59 10.1331 14.59 10.21V11.54C14.3844 11.4529 14.1633 11.4087 13.94 11.41C13.501 11.4283 13.0813 11.5958 12.7503 11.8849C12.4194 12.174 12.197 12.5674 12.12 13C12.05 13.16 11.96 13.41 11.94 13.45C11.35 13.45 11.04 13.22 10.29 12.3V10.3C10.2777 10.2473 10.2786 10.1923 10.2925 10.14C10.3065 10.0877 10.3331 10.0396 10.37 10V10ZM14.3 21.23H10.58C10.5031 21.23 10.4293 21.1995 10.3749 21.1451C10.3206 21.0907 10.29 21.0169 10.29 20.94V14.17C10.7545 14.5505 11.3397 14.7527 11.94 14.74C12.85 14.74 13.16 13.93 13.35 13.44C13.54 12.95 13.67 12.74 13.94 12.74C14.21 12.74 14.22 12.74 14.51 13.64C14.5323 13.7116 14.559 13.7817 14.59 13.85V20.94C14.59 21.0169 14.5595 21.0907 14.5051 21.1451C14.4507 21.1995 14.3769 21.23 14.3 21.23V21.23Z" fill="white"/>
</svg>
