<svg width="24" height="24" viewBox="0 0 24 24" fill="none" xmlns="http://www.w3.org/2000/svg">
<path d="M18.27 10.92C18.0163 12.2266 17.3954 13.4338 16.48 14.4H6.11002C4.86908 13.0911 4.18128 11.3537 4.19002 9.55C4.259 7.71177 5.03775 5.97181 6.36265 4.69569C7.68756 3.41956 9.45549 2.7066 11.295 2.7066C13.1346 2.7066 14.9025 3.41956 16.2274 4.69569C17.5523 5.97181 18.331 7.71177 18.4 9.55C18.3978 10.0096 18.3543 10.4682 18.27 10.92" stroke="white" stroke-width="1.8" stroke-linecap="round" stroke-linejoin="round"/>
<path d="M16.48 14.4H18.4V21.25H4.15002V14.4H6.11002" stroke="white" stroke-width="1.8" stroke-linecap="round" stroke-linejoin="round"/>
<path d="M18.61 17.11H21.4V14.01" stroke="white" stroke-width="1.8" stroke-linecap="round" stroke-linejoin="round"/>
<path d="M4.90002 18.51H17.9" stroke="white" stroke-width="1.8" stroke-linecap="round" stroke-linejoin="round"/>
</svg>
