<svg width="24" height="24" viewBox="0 0 24 24" fill="none" xmlns="http://www.w3.org/2000/svg">
<path d="M8.46777 8.39451L8.46552 8.39634L8.46338 8.39842L8.46777 8.39451ZM18.4219 8.20798C18.3523 8.14093 18.2751 8.08226 18.1919 8.03317C18.0741 7.96383 17.9433 7.9194 17.8076 7.90261C17.6719 7.88583 17.5343 7.89705 17.4031 7.93558C17.2719 7.97412 17.1501 8.03915 17.0451 8.12665C16.94 8.21415 16.8541 8.32227 16.7925 8.44431C16.448 9.123 15.9729 9.727 15.3945 10.2217C15.4829 9.72326 15.5275 9.21807 15.5278 8.71188C15.5296 7.17198 15.1234 5.65909 14.3504 4.32725C13.5775 2.9954 12.4654 1.89217 11.1274 1.12988C10.98 1.04633 10.8138 1.00159 10.6444 0.999869C10.4749 0.998144 10.3079 1.03949 10.1588 1.12003C10.0097 1.20056 9.88358 1.31765 9.79217 1.46029C9.70075 1.60294 9.64707 1.76648 9.63617 1.93555C9.58021 2.88373 9.33233 3.81067 8.90756 4.66022C8.48279 5.50977 7.88996 6.26424 7.165 6.87791L6.93453 7.06541C6.17644 7.5755 5.50543 8.20431 4.94723 8.92771C4.07955 10.0208 3.47848 11.3011 3.19169 12.6669C2.9049 14.0327 2.94028 15.4466 3.29503 16.7964C3.64977 18.1462 4.31412 19.3947 5.2354 20.4431C6.15667 21.4914 7.30953 22.3107 8.60254 22.8359C8.75436 22.898 8.91911 22.9217 9.08226 22.905C9.24542 22.8883 9.40195 22.8317 9.53807 22.7402C9.67419 22.6488 9.7857 22.5252 9.86277 22.3804C9.93984 22.2357 9.9801 22.0741 9.98 21.9101C9.97928 21.8041 9.96249 21.6987 9.9302 21.5976C9.70647 20.7567 9.64205 19.8813 9.74025 19.0166C10.6865 20.8013 12.2054 22.216 14.0528 23.0332C14.2782 23.1341 14.5332 23.1476 14.7681 23.0713C16.2277 22.6002 17.5425 21.7637 18.5877 20.6413C19.633 19.5189 20.3738 18.1479 20.74 16.6586C21.1061 15.1692 21.0853 13.611 20.6796 12.1319C20.2739 10.6528 19.4967 9.30209 18.4219 8.20798V8.20798ZM14.5171 21.039C13.6454 20.5973 12.8765 19.977 12.2602 19.2185C11.644 18.46 11.1943 17.5804 10.9404 16.6367C10.8629 16.319 10.8029 15.9972 10.7607 15.6728C10.7322 15.4663 10.6398 15.2738 10.4965 15.1224C10.3532 14.9709 10.1661 14.868 9.96143 14.8281C9.89838 14.8157 9.83426 14.8095 9.77 14.8096C9.59424 14.8095 9.42158 14.8558 9.26941 14.9437C9.11725 15.0317 8.99096 15.1582 8.9033 15.3106C8.07357 16.7417 7.6563 18.3746 7.69773 20.0283C6.96797 19.4609 6.35808 18.7543 5.90341 17.9495C5.44873 17.1447 5.15832 16.2576 5.049 15.3397C4.93968 14.4218 5.01363 13.4914 5.26655 12.6023C5.51948 11.7131 5.94636 10.8831 6.52244 10.1602C6.95985 9.592 7.48753 9.09945 8.08444 8.70216C8.11029 8.68548 8.13507 8.66722 8.15866 8.64747C8.15866 8.64747 8.45535 8.40199 8.46549 8.39637C9.89019 7.19134 10.9035 5.57189 11.3642 3.76368C12.4538 4.77092 13.1803 6.10971 13.431 7.57219C13.6816 9.03467 13.4424 10.539 12.7505 11.8516C12.659 12.0267 12.6215 12.225 12.6427 12.4215C12.6638 12.6179 12.7427 12.8037 12.8693 12.9554C12.9959 13.107 13.1646 13.2178 13.3541 13.2737C13.5436 13.3297 13.7454 13.3282 13.9341 13.2696C15.4658 12.7894 16.8138 11.8515 17.7964 10.5821C18.3869 11.4544 18.773 12.4487 18.9259 13.4909C19.0787 14.5332 18.9944 15.5965 18.6792 16.6016C18.364 17.6068 17.826 18.5278 17.1054 19.2961C16.3847 20.0644 15.5 20.6602 14.5171 21.0391L14.5171 21.039Z" fill="white"/>
</svg>
