<svg width="24" height="24" viewBox="0 0 24 24" fill="none" xmlns="http://www.w3.org/2000/svg">
<path d="M13.5 15H11.23L12.68 12.5C12.7457 12.3857 12.7882 12.2597 12.8051 12.129C12.8221 11.9983 12.8131 11.8656 12.7787 11.7383C12.7444 11.6111 12.6853 11.4919 12.6049 11.3875C12.5245 11.2832 12.4243 11.1956 12.31 11.13C12.1958 11.0643 12.0697 11.0218 11.939 11.0049C11.8083 10.9879 11.6756 10.9969 11.5484 11.0312C11.4212 11.0656 11.302 11.1247 11.1976 11.2051C11.0932 11.2855 11.0057 11.3857 10.94 11.5L8.63001 15.5C8.54224 15.652 8.49604 15.8244 8.49604 16C8.49604 16.1755 8.54224 16.348 8.63001 16.5C8.71812 16.6526 8.84498 16.7792 8.99776 16.867C9.15054 16.9548 9.3238 17.0007 9.50001 17H11.77L10.32 19.5C10.1874 19.7307 10.1519 20.0047 10.2213 20.2616C10.2907 20.5185 10.4593 20.7374 10.69 20.87C10.9208 21.0026 11.1947 21.0381 11.4516 20.9687C11.7086 20.8993 11.9274 20.7307 12.06 20.5L14.37 16.5C14.4578 16.348 14.504 16.1755 14.504 16C14.504 15.8244 14.4578 15.652 14.37 15.5C14.2819 15.3474 14.155 15.2208 14.0023 15.133C13.8495 15.0451 13.6762 14.9993 13.5 15ZM18.42 7.20997C17.8083 5.80578 16.753 4.64097 15.4157 3.89413C14.0785 3.14729 12.5333 2.85964 11.0169 3.0753C9.50051 3.29095 8.09671 3.998 7.02073 5.08803C5.94475 6.17807 5.25597 7.59092 5.06001 9.10997C4.1066 9.33829 3.27023 9.90881 2.70975 10.7132C2.14927 11.5175 1.9037 12.4997 2.01968 13.4732C2.13566 14.4467 2.60511 15.3437 3.33888 15.9938C4.07265 16.644 5.01964 17.002 6.00001 17C6.26523 17 6.51958 16.8946 6.70712 16.7071C6.89466 16.5195 7.00001 16.2652 7.00001 16C7.00001 15.7348 6.89466 15.4804 6.70712 15.2929C6.51958 15.1053 6.26523 15 6.00001 15C5.46958 15 4.96087 14.7893 4.5858 14.4142C4.21073 14.0391 4.00001 13.5304 4.00001 13C4.00001 12.4695 4.21073 11.9608 4.5858 11.5858C4.96087 11.2107 5.46958 11 6.00001 11C6.26523 11 6.51958 10.8946 6.70712 10.7071C6.89466 10.5195 7.00001 10.2652 7.00001 9.99997C7.00257 8.81725 7.4243 7.67373 8.19028 6.77256C8.95627 5.87139 10.0169 5.27092 11.1838 5.07785C12.3506 4.88477 13.5481 5.11158 14.5636 5.71798C15.579 6.32438 16.3466 7.27111 16.73 8.38997C16.7887 8.55995 16.8921 8.71096 17.0294 8.82711C17.1666 8.94326 17.3327 9.02025 17.51 9.04997C18.243 9.18522 18.8994 9.5885 19.3513 10.1812C19.8033 10.774 20.0183 11.5137 19.9547 12.2564C19.891 12.999 19.5532 13.6914 19.007 14.1986C18.4608 14.7057 17.7453 14.9914 17 15C16.7348 15 16.4804 15.1053 16.2929 15.2929C16.1054 15.4804 16 15.7348 16 16C16 16.2652 16.1054 16.5195 16.2929 16.7071C16.4804 16.8946 16.7348 17 17 17C18.1994 16.9967 19.3576 16.5624 20.2634 15.7763C21.1692 14.9902 21.7623 13.9046 21.9345 12.7177C22.1066 11.5308 21.8464 10.3215 21.2012 9.31043C20.5561 8.29937 19.569 7.5539 18.42 7.20997Z" fill="white"/>
</svg>
