<svg width="67" height="26" viewBox="0 0 67 26" fill="none" xmlns="http://www.w3.org/2000/svg">
<g clip-path="url(#clip0_280_4676)">
<path d="M21.6998 9.9054C19.7566 11.8877 17.6689 13.9393 15.5812 16.027C15.4727 16.2077 15.6896 16.5301 15.8704 16.3162L18.6962 14.4514C18.9221 14.3008 19.2053 14.2646 19.4644 14.3429C21.8293 15.072 23.4983 17.0573 23.4983 19.8801C23.4983 22.727 20.9074 25.607 17.7774 25.607H5.86859C2.82286 25.607 0.201909 23.2843 0.0121158 20.2416C-0.1114 18.2774 0.786351 16.6747 2.05164 15.5239L7.77255 9.68849C7.98945 9.50773 7.70024 9.18539 7.48334 9.29384L4.88347 11.1345C4.6515 11.3002 4.35326 11.3454 4.08212 11.258C1.75942 10.4959 0.0723676 8.33282 0.0723676 5.72693C0.0723676 2.59384 2.66319 0 5.82943 0H17.6689C23.2814 0 25.0829 6.51925 21.6998 9.9054Z" fill="white"/>
<path d="M3.85921 6.18795C3.4013 6.18795 3.03376 6.00117 2.84698 5.8415C2.75058 5.76016 2.74154 5.61857 2.82288 5.52216C2.90422 5.42576 3.04581 5.41672 3.1392 5.49505C3.16632 5.51614 3.80197 6.03129 4.6455 5.47999C4.75094 5.4107 4.88952 5.44082 4.95881 5.54325C5.0281 5.64568 4.99797 5.78727 4.89554 5.85656C4.525 6.10058 4.17252 6.18795 3.85921 6.18795Z" fill="#101340"/>
<path d="M8.40221 6.18795C7.9443 6.18795 7.57676 6.00117 7.38998 5.8415C7.29358 5.76016 7.28454 5.61857 7.36588 5.52216C7.44722 5.42576 7.58881 5.41672 7.6822 5.49505C7.70932 5.51614 8.34497 6.03129 9.1885 5.47999C9.29394 5.4107 9.43252 5.44082 9.50181 5.54325C9.5711 5.64869 9.54097 5.78727 9.43854 5.85656C9.07101 6.10058 8.71552 6.18795 8.40221 6.18795Z" fill="#101340"/>
<path d="M43.779 12.4993C42.1582 14.1532 40.4139 15.8674 38.6727 17.6086C38.5823 17.7593 38.763 18.0304 38.9137 17.8497L41.2725 16.2921C41.4623 16.1686 41.6973 16.1355 41.9142 16.2018C43.8905 16.8103 45.2823 18.4702 45.2823 20.8231C45.2823 23.197 43.1193 25.6041 40.5073 25.6041H30.5688C28.0262 25.6041 25.839 23.664 25.6794 21.1243C25.5769 19.4855 26.3241 18.1479 27.3815 17.1869L32.1564 12.3155C32.3372 12.1649 32.0962 11.8938 31.9154 11.9841L29.7464 13.5206C29.5505 13.6591 29.3035 13.6953 29.0776 13.623C27.1375 12.9903 25.7276 11.1858 25.7276 9.01072C25.7276 6.39579 27.8906 4.22974 30.5326 4.22974H40.4139C45.0985 4.23275 46.6018 9.67349 43.779 12.4993Z" fill="white"/>
<path d="M65.4998 12.4993C63.8791 14.1532 62.1348 15.8674 60.3935 17.6086C60.3031 17.7593 60.4839 18.0304 60.6345 17.8497L62.9934 16.2921C63.1831 16.1686 63.4181 16.1355 63.635 16.2018C65.6113 16.8103 67.0031 18.4702 67.0031 20.8231C67.0031 23.197 64.8401 25.6041 62.2282 25.6041H52.2896C49.747 25.6041 47.5599 23.664 47.4002 21.1243C47.2978 19.4855 48.0449 18.1479 49.1023 17.1869L53.8773 12.3155C54.058 12.1649 53.817 11.8938 53.6363 11.9841L51.4672 13.5206C51.2714 13.6591 51.0243 13.6953 50.7984 13.623C48.8583 12.9903 47.4484 11.1858 47.4484 9.01072C47.4484 6.39579 49.6114 4.22974 52.2535 4.22974H62.1348C66.8224 4.23275 68.3226 9.67349 65.4998 12.4993Z" fill="white"/>
</g>
<defs>
<clipPath id="clip0_280_4676">
<rect width="67" height="25.607" fill="white"/>
</clipPath>
</defs>
</svg>
