<svg width="64" height="64" viewBox="0 0 64 64" fill="none" xmlns="http://www.w3.org/2000/svg">
<path d="M37.4037 45.9587C37.122 45.9587 36.8543 45.846 36.643 45.6347C36.2345 45.2121 36.2486 44.55 36.6712 44.1414C39.4746 41.4507 41.8553 40.6478 45.5181 41.1831C46.0956 41.2676 46.4901 41.8029 46.4056 42.3805C46.321 42.9581 45.7716 43.3666 45.2081 43.268C42.2357 42.8454 40.4325 43.4371 38.1222 45.6629C37.925 45.8601 37.6573 45.9587 37.4037 45.9587Z" fill="black"/>
<path d="M27.0636 42.465C26.7256 42.465 26.4015 42.31 26.1902 42.0142C25.8521 41.5352 25.9789 40.8731 26.4579 40.5491C28.5287 39.1122 29.2895 37.7175 30.4728 35.3509C30.7264 34.8296 31.3744 34.6183 31.8956 34.8719C32.4169 35.1396 32.6282 35.7735 32.3746 36.2947C31.0786 38.9009 30.1065 40.6055 27.6694 42.2819C27.4722 42.3946 27.2609 42.465 27.0636 42.465Z" fill="black"/>
<path d="M51.9561 35.6749C51.8997 35.6749 51.8293 35.6749 51.7729 35.6608C48.9132 35.1677 46.9973 34.731 44.687 32.8715C44.2362 32.5052 44.1517 31.8431 44.5179 31.3923C44.8842 30.9415 45.5463 30.8711 45.9971 31.2233C47.9553 32.8011 49.533 33.1251 52.1251 33.5759C52.7027 33.6745 53.0831 34.2239 52.9845 34.8015C52.8999 35.3086 52.4632 35.6749 51.9561 35.6749Z" fill="black"/>
</svg>
