
<svg width="64" height="64" viewBox="0 0 64 64" fill="current" xmlns="http://www.w3.org/2000/svg">
<g clip-path="url(#clip0_177_6762)">
<path d="M64 29.21C64 28 63.61 12.68 51.43 4.42997C42.2 -1.81003 31.91 0.0899729 24.63 0.999973C16.6 1.99997 9.33996 7.58997 4.37996 13.93C-2.23004 22.38 -0.400036 37.15 3.58996 45.5C6.26996 51.09 7.87996 54.82 10.92 57.71C12.6586 59.2562 14.6165 60.5368 16.73 61.51C21.8705 63.6435 27.4718 64.425 33 63.78C46.24 62.18 64.16 48 64 29.21Z" fill="#F3F3F3"/>
</g>
<path d="M46.4618 31.4644C49.3398 31.4644 49.3398 27 46.4618 27C43.5979 27 43.5838 31.4644 46.4618 31.4644Z" fill="black"/>
<path d="M27.1585 37.2905C30.0364 37.2905 30.0364 32.8262 27.1585 32.8262C24.2805 32.8262 24.2805 37.2905 27.1585 37.2905Z" fill="black"/>
<path d="M37.4631 40C36.3961 40 35.4555 39.7613 34.6132 39.298C34.1078 39.0172 33.9253 38.3715 34.2201 37.8661C34.5009 37.3607 35.1467 37.1782 35.6521 37.473C36.6208 38.0205 37.8843 38.0626 39.597 37.5712C40.2568 37.3887 41.029 37.122 41.6326 36.6587C42.1942 36.2235 42.5732 35.6198 42.6575 35.0021C42.7417 34.4265 43.2892 34.0334 43.8508 34.1177C44.4264 34.2019 44.8195 34.7354 44.7352 35.311C44.5668 36.4762 43.9069 37.5572 42.9102 38.3293C42.0117 39.0172 40.9728 39.3823 40.1585 39.6069C39.1899 39.8596 38.2914 40 37.4631 40Z" fill="black"/>
<defs>
<clipPath id="clip0_177_6762">
<rect width="64" height="64" fill="white"/>
</clipPath>
</defs>

</svg>
