<svg width="64" height="64" viewBox="0 0 64 64" fill="current" xmlns="http://www.w3.org/2000/svg">
<g clip-path="url(#clip0_156_3501)">
<path d="M44.8519 1.20902C50.8038 2.91829 55.9392 6.71403 59.3157 11.8998C62.3165 16.8256 64.157 21.1719 64.007 26.807C63.7569 36.7985 61.4863 47.5392 54.0043 54.783C46.5223 62.0268 33.6189 65.274 22.9961 63.5455C12.3732 61.817 2.92073 53.9537 0.860179 44.1222C-0.0455129 38.9097 -0.223922 33.5971 0.330038 28.3357C1.06023 23.8795 1.92046 19.3434 4.55116 15.5767C9.20518 8.72397 15.9955 3.59921 23.8663 0.999197C28.4875 -0.59943 40.1106 -0.0898676 44.8519 1.20902Z" fill="#F3F3F3"/>
<path d="M31.8856 42.6736C31.6389 42.6736 31.3769 42.5965 31.1765 42.4269C29.2496 40.9008 27.1685 40.3458 25.7348 40.947C25.1491 41.1937 24.4708 40.9162 24.2241 40.3304C23.9775 39.7446 24.255 39.0663 24.8407 38.8197C27.0914 37.8639 29.9895 38.5422 32.6255 40.6079C33.1188 41.0087 33.2113 41.7332 32.8105 42.2265C32.5639 42.5194 32.2247 42.6736 31.8856 42.6736Z" fill="black"/>
<path d="M38.6067 33.9484C41.7977 33.9484 41.7977 29 38.6067 29C35.4158 28.9846 35.4158 33.9484 38.6067 33.9484Z" fill="black"/>
<path d="M16.3932 35.5824C19.5842 35.5824 19.5842 30.634 16.3932 30.634C13.2023 30.634 13.2023 35.5824 16.3932 35.5824Z" fill="black"/>
</g>
<defs>
<clipPath id="clip0_156_3501">
<rect width="64" height="64" fill="white"/>
</clipPath>
</defs>
</svg>
