<svg width="64" height="64" viewBox="0 0 64 64" fill="current" xmlns="http://www.w3.org/2000/svg">
<g clip-path="url(#clip0_177_6788)">
<path d="M37.2139 4.73727e-05C45.6125 0.88977 49.5118 3.56893 53.9911 8.32745C58.4447 13.2886 61.544 19.314 62.9896 25.822C63.8075 29.8803 64.1431 34.0211 63.9894 38.1581C63.9894 41.5271 62.6196 46.6855 60.56 49.4046C57.9284 52.8698 54.7387 55.8732 51.1215 58.2919C46.2524 61.8507 37.8537 63.8601 31.9947 63.9801C26.2557 64.09 18.527 62.6905 13.5378 59.6514C6.92888 55.6527 2.74958 48.9848 0.689917 41.2072C-0.501955 36.1008 -0.082819 30.7506 1.88972 25.892C3.83591 21.1617 6.57849 16.7999 9.99837 12.996C12.8308 9.47408 16.2712 6.48786 20.1567 4.17874C25.3604 1.27072 31.255 -0.173337 37.2139 4.73727e-05Z" fill="#f3f3f3"/>
</g>
<path d="M45.6865 34.167C43.9228 34.167 42.2418 33.3541 41.2773 31.99C40.0923 30.3228 40.1613 27.9529 41.4289 26.4648C42.228 25.5279 43.4543 24.9767 44.6806 25.0319C45.7829 25.0594 46.7749 25.5554 47.3536 26.3546C48.0839 27.3742 48.0288 28.7796 47.2296 29.6477C46.7612 30.1437 46.0585 30.4055 45.342 30.3366C44.6668 30.2677 44.0881 29.9232 43.7437 29.3859C43.4405 28.9036 43.5783 28.2698 44.0606 27.9667C44.5428 27.6636 45.1766 27.8013 45.4935 28.2836C45.5211 28.2974 45.6727 28.2698 45.714 28.2285C45.838 28.0907 45.8242 27.76 45.6727 27.5533C45.4798 27.2778 45.0664 27.0986 44.6117 27.0849C44.0055 27.0849 43.3854 27.3466 42.9858 27.8013C42.3245 28.5729 42.3107 29.8681 42.9445 30.7775C43.5783 31.6593 44.8184 32.1829 46.0171 32.0589C47.891 31.8798 49.5444 30.1437 49.6409 28.2698C49.7373 26.3959 48.263 24.4945 46.4167 24.1362C46.0998 24.0674 45.6727 24.026 45.342 24.1776C44.8184 24.4256 44.2121 24.2051 43.9641 23.6816C43.7161 23.1717 43.9366 22.5517 44.4601 22.3037C45.1215 21.9868 45.9207 21.9179 46.8163 22.097C49.6547 22.6619 51.8454 25.4728 51.6939 28.3663C51.5561 31.2598 49.0898 33.8363 46.21 34.1119C46.0447 34.1532 45.8656 34.167 45.6865 34.167Z" fill="black"/>
<path d="M23.2687 38.218C21.505 38.218 19.8241 37.405 18.8458 36.041C17.6608 34.3737 17.7297 32.0038 18.9974 30.5158C19.7965 29.5788 21.0228 29.0277 22.2491 29.0828C23.3514 29.1103 24.3572 29.6064 24.9221 30.4055C25.6524 31.4251 25.5973 32.8306 24.7981 33.6986C24.3297 34.1946 23.6132 34.4702 22.9105 34.3875C22.2353 34.3186 21.6566 33.9742 21.3122 33.4368C21.009 32.9546 21.1468 32.3207 21.6428 32.0176C22.1251 31.7145 22.7589 31.8661 23.062 32.3483C23.0896 32.3621 23.2411 32.3345 23.2825 32.2932C23.4065 32.1554 23.3927 31.8247 23.2411 31.618C23.0345 31.3425 22.6349 31.1633 22.1802 31.1496C21.6015 31.1633 20.9539 31.4114 20.5543 31.8661C19.8929 32.6377 19.8792 33.9328 20.513 34.8422C21.1468 35.724 22.4007 36.2476 23.5856 36.1236C25.4595 35.9445 27.1129 34.2084 27.2094 32.3345C27.3058 30.4606 25.8315 28.5592 23.9852 28.201C23.5305 28.1183 23.1723 28.1321 22.9105 28.2561C22.4007 28.5041 21.7806 28.2836 21.5326 27.76C21.2846 27.2365 21.505 26.6302 22.0286 26.3822C22.69 26.0653 23.4891 25.9964 24.3847 26.1755C27.2231 26.7404 29.4139 29.5513 29.2624 32.4448C29.1246 35.3382 26.6582 37.9148 23.7785 38.1904C23.627 38.2042 23.4478 38.218 23.2687 38.218Z" fill="black"/>
<path d="M33.5336 42.8199C33.3958 42.8199 33.2443 42.7924 33.1065 42.7235C32.5829 42.4893 32.3625 41.8692 32.5967 41.3594C33.4923 39.3753 35.8209 38.0526 38.797 37.8321C39.362 37.7908 39.858 38.2179 39.8993 38.7828C39.9406 39.3478 39.5135 39.8438 38.9486 39.8851C36.7716 40.0505 35.0493 40.9323 34.4706 42.2137C34.3052 42.5995 33.9194 42.8199 33.5336 42.8199Z" fill="black"/>
<defs>
<clipPath id="clip0_177_6788">
<rect width="64" height="64" fill="current"/>
</clipPath>
</defs>
</svg>
