<svg width="64" height="64" viewBox="0 0 64 64" fill="none" xmlns="http://www.w3.org/2000/svg">
<path d="M38.6969 36.2603C38.4673 36.2603 38.2491 36.1684 38.0769 35.9962L34.8847 32.6662C34.8043 32.5858 34.5746 32.3332 34.5517 31.9543C34.5402 31.7821 34.5861 31.2194 35.2636 30.9323L40.4308 28.7277C40.8671 28.5439 41.3724 28.7391 41.5561 29.1755C41.7398 29.6118 41.5446 30.1171 41.1083 30.3008L36.7793 32.161L39.317 34.8135C39.65 35.158 39.6385 35.6976 39.294 36.0306C39.1218 36.1799 38.9036 36.2603 38.6969 36.2603Z" fill="black"/>
<path d="M17.9821 34.4805C17.6951 34.4805 17.4195 34.3427 17.2587 34.0901C17.0061 33.6882 17.1209 33.16 17.5228 32.8959L22.0815 29.9678C21.0365 29.0377 19.9571 28.211 18.8318 27.4531C18.4414 27.189 18.3266 26.6493 18.5907 26.2589C18.8548 25.8685 19.383 25.7537 19.7849 26.0178C21.1399 26.9249 22.4259 27.9354 23.6316 29.0377C23.7579 29.1525 24.1713 29.5315 24.1368 30.1171C24.0909 30.7257 23.6086 31.0357 23.4479 31.139L18.4644 34.3427C18.3036 34.4346 18.1429 34.4805 17.9821 34.4805Z" fill="black"/>
<path d="M29.5108 39.108C28.351 39.108 27.0649 38.7291 25.8018 37.9712C25.3885 37.7301 25.2621 37.2019 25.5033 36.7885C25.7444 36.3751 26.2726 36.2488 26.686 36.49C28.2476 37.4201 29.8437 37.6382 30.8427 37.0526C31.2561 36.8115 31.7843 36.9493 32.0254 37.3627C32.2666 37.776 32.1288 38.3042 31.7154 38.5454C31.0839 38.9128 30.326 39.108 29.5108 39.108Z" fill="black"/>
</svg>
