<svg width="64" height="64" viewBox="0 0 64 64" fill="current" xmlns="http://www.w3.org/2000/svg">
<path d="M31.8999 41.3393C31.6841 41.3393 31.4548 41.2719 31.2795 41.1235C29.5934 39.7882 27.7724 39.3026 26.518 39.8286C26.0055 40.0444 25.412 39.8016 25.1961 39.2891C24.9803 38.7765 25.2231 38.183 25.7357 37.9672C27.705 37.1309 30.2408 37.7244 32.5474 39.5319C32.979 39.8826 33.0599 40.5165 32.7092 40.9482C32.4934 41.2044 32.1967 41.3393 31.8999 41.3393Z" fill="black"/>
<path d="M37.7809 33.7048C40.573 33.7048 40.573 29.375 37.7809 29.375C34.9887 29.3615 34.9887 33.7048 37.7809 33.7048Z" fill="black"/>
<path d="M18.3441 35.1346C21.1362 35.1346 21.1362 30.8048 18.3441 30.8048C15.552 30.8048 15.552 35.1346 18.3441 35.1346Z" fill="black"/>
</svg>
