<svg width="64" height="64" viewBox="0 0 64 64" fill="none" xmlns="http://www.w3.org/2000/svg">
<path d="M39.6536 36.8689C39.3911 36.8689 39.1418 36.7639 38.9449 36.567L35.2967 32.7614C35.2048 32.6695 34.9424 32.3808 34.9161 31.9477C34.903 31.7509 34.9555 31.1079 35.7297 30.7798L41.6351 28.2602C42.1338 28.0502 42.7112 28.2733 42.9212 28.772C43.1312 29.2706 42.908 29.848 42.4094 30.058L37.462 32.1839L40.3622 35.2154C40.7427 35.6091 40.7296 36.2258 40.3359 36.6064C40.1391 36.777 39.8898 36.8689 39.6536 36.8689Z" fill="black"/>
<path d="M15.9796 34.8349C15.6515 34.8349 15.3365 34.6774 15.1528 34.3887C14.8641 33.9294 14.9954 33.3257 15.4547 33.0239L20.6645 29.6775C19.4703 28.6145 18.2367 27.6697 16.9507 26.8035C16.5045 26.5017 16.3733 25.8849 16.6751 25.4388C16.9769 24.9926 17.5806 24.8613 18.0399 25.1632C19.5884 26.1999 21.0582 27.3547 22.4361 28.6145C22.5804 28.7458 23.0529 29.1788 23.0135 29.8481C22.961 30.5436 22.4099 30.8979 22.2262 31.016L16.5307 34.6774C16.347 34.7824 16.1633 34.8349 15.9796 34.8349Z" fill="black"/>
<path d="M29.1551 40.1234C27.8296 40.1234 26.3599 39.6904 24.9163 38.8243C24.4439 38.5487 24.2995 37.945 24.5751 37.4726C24.8507 37.0002 25.4543 36.8558 25.9268 37.1314C27.7115 38.1943 29.5356 38.4437 30.6773 37.7744C31.1497 37.4988 31.7534 37.6563 32.029 38.1287C32.3046 38.6012 32.1471 39.2048 31.6747 39.4804C30.9529 39.9003 30.0868 40.1234 29.1551 40.1234Z" fill="black"/>
</svg>
