<svg width="64" height="64" viewBox="0 0 64 64" fill="none" xmlns="http://www.w3.org/2000/svg">
<path d="M45.8982 31.3471C48.7006 31.3471 48.7006 27 45.8982 27C43.1095 27 43.0958 31.3471 45.8982 31.3471Z" fill="black"/>
<path d="M27.1018 37.0202C29.9042 37.0202 29.9042 32.6731 27.1018 32.6731C24.2994 32.6731 24.2994 37.0202 27.1018 37.0202Z" fill="black"/>
<path d="M37.1358 39.6586C36.0969 39.6586 35.181 39.4262 34.3608 38.975C33.8686 38.7016 33.6909 38.0728 33.978 37.5807C34.2514 37.0886 34.8802 36.9108 35.3724 37.1979C36.3156 37.7311 37.5459 37.7721 39.2137 37.2936C39.8562 37.1159 40.608 36.8562 41.1958 36.405C41.7427 35.9813 42.1118 35.3935 42.1938 34.792C42.2758 34.2315 42.8089 33.8487 43.3557 33.9307C43.9162 34.0128 44.299 34.5322 44.217 35.0927C44.0529 36.2273 43.4104 37.2799 42.4398 38.0318C41.5649 38.7016 40.5533 39.0571 39.7605 39.2758C38.8172 39.5218 37.9423 39.6586 37.1358 39.6586Z" fill="black"/>
</svg>
