<svg width="64" height="64" viewBox="0 0 64 64" fill="current" xmlns="http://www.w3.org/2000/svg">
<path d="M44.1609 31.4287C46.613 31.4287 46.613 27.625 44.1609 27.625C41.7207 27.625 41.7088 31.4287 44.1609 31.4287Z" fill="black"/>
<path d="M27.7141 36.3927C30.1662 36.3927 30.1662 32.589 27.7141 32.589C25.262 32.589 25.262 36.3927 27.7141 36.3927Z" fill="black"/>
<path d="M36.4939 38.7013C35.5848 38.7013 34.7834 38.4979 34.0657 38.1032C33.6351 37.864 33.4796 37.3138 33.7308 36.8832C33.97 36.4525 34.5202 36.297 34.9509 36.5482C35.7762 37.0147 36.8527 37.0506 38.312 36.632C38.8742 36.4765 39.5321 36.2492 40.0464 35.8545C40.5249 35.4837 40.8478 34.9693 40.9196 34.443C40.9914 33.9526 41.4579 33.6177 41.9363 33.6895C42.4267 33.7612 42.7617 34.2158 42.6899 34.7062C42.5464 35.699 41.9842 36.62 41.1349 37.2779C40.3694 37.864 39.4842 38.175 38.7905 38.3664C37.9651 38.5817 37.1996 38.7013 36.4939 38.7013Z" fill="black"/>
</svg>
