<svg width="56" height="56" viewBox="0 0 56 56" fill="none" xmlns="http://www.w3.org/2000/svg">
<path d="M7.89702 7.87426C8.91155 6.8155 11.2117 3.49923 15.2961 1.60921C20.2026 -0.657058 24.7943 0.139198 27.6717 0.121698C31.8347 -0.104089 35.9919 0.660569 39.8024 2.35297C42.1874 3.53082 44.3575 5.10147 46.222 6.99925C50.0527 10.6918 51.7057 13.4743 53.9622 18.3743C55.4577 21.6031 56 28.1569 56 31.7532C55.8441 34.9203 55.012 38.0173 53.5599 40.8358C52.3046 43.6646 50.5575 46.248 48.3997 48.4658C46.3984 50.3508 44.0801 51.8674 41.5516 52.9459C31.0039 57.6797 17.3339 56.5247 10.5208 52.1234C8.38679 50.7496 4.80093 46.7683 3.52402 45.0358C1.77482 42.647 1.41623 39.9783 0.821506 37.0557C-0.656567 29.8719 -0.219268 22.1806 2.78061 15.5043C4.03666 12.6866 5.76731 10.1056 7.89702 7.87426Z" fill="#A1A1A1"/>
<path d="M26.1322 30.182C26.1322 31.084 26.5062 31.612 27.6062 31.612C28.7062 31.612 29.0142 31.084 29.0142 30.182V29.434C29.0142 29.104 29.1902 28.774 29.7842 28.312L30.4662 27.784C32.0502 26.574 33.1502 25.43 33.1502 23.362C33.1502 20.546 31.5882 18.434 27.7382 18.434C25.2082 18.434 23.0962 19.842 22.7882 22.416C22.6782 23.362 22.9202 24.154 24.2842 24.154C24.8342 24.154 25.4062 23.868 25.4722 23.274C25.6482 21.734 26.6162 21.14 27.9802 21.14C29.4322 21.14 30.3562 21.998 30.3562 23.34C30.3562 24.44 29.4102 25.232 28.4422 25.914L27.6722 26.464C26.5062 27.3 26.1322 28.092 26.1322 28.972V30.182ZM25.8022 34.758C25.8022 36.012 26.6822 36.672 27.7162 36.672C28.7502 36.672 29.6302 36.012 29.6302 34.758C29.6302 33.548 28.7502 32.844 27.7162 32.844C26.6822 32.844 25.8022 33.548 25.8022 34.758Z" fill="#C2DAFF"/>
</svg>
