<svg width="64" height="64" viewBox="0 0 64 64" fill="current" xmlns="http://www.w3.org/2000/svg">
<path d="M43.4715 33.6746C41.9604 33.6746 40.5202 32.9781 39.6938 31.8094C38.6785 30.3809 38.7376 28.3504 39.8237 27.0754C40.5084 26.2727 41.559 25.8004 42.6097 25.8477C43.5541 25.8713 44.4041 26.2963 44.8999 26.981C45.5256 27.8546 45.4784 29.0587 44.7937 29.8025C44.3923 30.2275 43.7902 30.4518 43.1764 30.3927C42.5979 30.3337 42.1021 30.0386 41.8069 29.5782C41.5472 29.165 41.6653 28.6219 42.0785 28.3622C42.4917 28.1025 43.0347 28.2205 43.3062 28.6337C43.3298 28.6455 43.4597 28.6219 43.4951 28.5865C43.6013 28.4685 43.5895 28.1851 43.4597 28.008C43.2944 27.7719 42.9403 27.6185 42.5507 27.6067C42.0313 27.6067 41.5 27.831 41.1576 28.2205C40.591 28.8816 40.5792 29.9913 41.1222 30.7705C41.6653 31.526 42.7278 31.9746 43.7548 31.8684C45.3603 31.7149 46.777 30.2275 46.8596 28.6219C46.9423 27.0164 45.6791 25.3873 44.0972 25.0803C43.8257 25.0213 43.4597 24.9859 43.1764 25.1157C42.7278 25.3282 42.2083 25.1393 41.9958 24.6907C41.7833 24.2539 41.9722 23.7227 42.4208 23.5102C42.9875 23.2387 43.6722 23.1797 44.4396 23.3331C46.8715 23.8171 48.7485 26.2254 48.6186 28.7046C48.5006 31.1837 46.3874 33.3913 43.9201 33.6274C43.7784 33.6628 43.625 33.6746 43.4715 33.6746Z" fill="black"/>
<path d="M24.2642 37.1454C22.7531 37.1454 21.3128 36.4489 20.4747 35.2802C19.4594 33.8517 19.5184 31.8212 20.6045 30.5462C21.2892 29.7435 22.3399 29.2713 23.3906 29.3185C24.335 29.3421 25.1968 29.7671 25.6808 30.4518C26.3065 31.3254 26.2593 32.5295 25.5746 33.2733C25.1732 33.6983 24.5593 33.9344 23.9573 33.8635C23.3788 33.8045 22.883 33.5094 22.5878 33.049C22.3281 32.6358 22.4462 32.0927 22.8711 31.833C23.2843 31.5733 23.8274 31.7032 24.0871 32.1163C24.1107 32.1281 24.2406 32.1045 24.276 32.0691C24.3822 31.9511 24.3704 31.6677 24.2406 31.4907C24.0635 31.2546 23.7211 31.1011 23.3316 31.0893C22.8357 31.1011 22.2809 31.3136 21.9385 31.7032C21.3719 32.3643 21.3601 33.474 21.9031 34.2531C22.4461 35.0087 23.5204 35.4573 24.5357 35.351C26.1412 35.1975 27.5579 33.7101 27.6405 32.1045C27.7232 30.499 26.46 28.8699 24.8781 28.5629C24.4885 28.4921 24.1816 28.5039 23.9573 28.6102C23.5205 28.8226 22.9892 28.6338 22.7767 28.1852C22.5642 27.7366 22.7531 27.2171 23.2017 27.0046C23.7683 26.7331 24.453 26.6741 25.2204 26.8275C27.6523 27.3116 29.5294 29.7199 29.3995 32.199C29.2814 34.6781 27.1683 36.8857 24.701 37.1218C24.5711 37.1336 24.4176 37.1454 24.2642 37.1454Z" fill="black"/>
<path d="M33.0591 41.0884C32.941 41.0884 32.8112 41.0648 32.6931 41.0057C32.2445 40.805 32.0556 40.2738 32.2563 39.837C33.0237 38.137 35.0188 37.0037 37.5687 36.8148C38.0527 36.7794 38.4777 37.1454 38.5131 37.6294C38.5485 38.1134 38.1826 38.5384 37.6986 38.5738C35.8333 38.7155 34.3576 39.471 33.8618 40.5689C33.7202 40.8995 33.3896 41.0884 33.0591 41.0884Z" fill="black"/>
</svg>
