<svg width="64" height="64" viewBox="0 0 64 64" fill="none" xmlns="http://www.w3.org/2000/svg">
<path d="M45.1103 33.9138C43.3834 33.9138 41.7373 33.1178 40.7929 31.7821C39.6326 30.1496 39.7001 27.829 40.9413 26.3719C41.7239 25.4545 42.9246 24.9148 44.1254 24.9688C45.2047 24.9957 46.1761 25.4815 46.7428 26.264C47.4579 27.2624 47.4039 28.6385 46.6214 29.4885C46.1627 29.9742 45.4746 30.2306 44.773 30.1631C44.1119 30.0957 43.5452 29.7584 43.208 29.2322C42.9111 28.76 43.0461 28.1393 43.5183 27.8425C43.9905 27.5457 44.6111 27.6806 44.9214 28.1528C44.9484 28.1663 45.0968 28.1393 45.1373 28.0989C45.2587 27.9639 45.2452 27.6401 45.0968 27.4378C44.9079 27.1679 44.5032 26.9925 44.0579 26.979C43.4643 26.979 42.8571 27.2354 42.4659 27.6806C41.8183 28.4362 41.8048 29.7044 42.4254 30.5949C43.046 31.4583 44.2603 31.971 45.4341 31.8496C47.269 31.6742 48.888 29.9742 48.9825 28.1393C49.0769 26.3045 47.6333 24.4426 45.8254 24.0918C45.5151 24.0243 45.0968 23.9839 44.773 24.1323C44.2603 24.3751 43.6667 24.1593 43.4238 23.6466C43.181 23.1474 43.3968 22.5402 43.9095 22.2974C44.5571 21.9871 45.3397 21.9196 46.2166 22.095C48.996 22.6482 51.1411 25.4005 50.9927 28.2338C50.8578 31.0671 48.4428 33.59 45.623 33.8599C45.4611 33.9003 45.2857 33.9138 45.1103 33.9138Z" fill="black"/>
<path d="M23.159 37.8805C21.4321 37.8805 19.7861 37.0845 18.8282 35.7488C17.6679 34.1163 17.7354 31.7957 18.9766 30.3386C19.7591 29.4211 20.9599 28.8815 22.1607 28.9354C23.24 28.9624 24.2249 29.4481 24.7781 30.2306C25.4931 31.229 25.4392 32.6052 24.6567 33.4552C24.1979 33.9409 23.4964 34.2107 22.8083 34.1298C22.1472 34.0623 21.5805 33.725 21.2432 33.1988C20.9464 32.7266 21.0813 32.106 21.567 31.8092C22.0392 31.5124 22.6599 31.6608 22.9567 32.133C22.9837 32.1465 23.1321 32.1195 23.1726 32.079C23.294 31.9441 23.2805 31.6203 23.1321 31.4179C22.9297 31.1481 22.5385 30.9727 22.0932 30.9592C21.5266 30.9727 20.8924 31.2156 20.5012 31.6608C19.8535 32.4163 19.8401 33.6846 20.4607 34.575C21.0813 35.4385 22.3091 35.9512 23.4694 35.8298C25.3043 35.6544 26.9233 33.9544 27.0177 32.1195C27.1122 30.2846 25.6686 28.4227 23.8606 28.072C23.4154 27.991 23.0646 28.0045 22.8083 28.1259C22.3091 28.3688 21.702 28.1529 21.4591 27.6402C21.2163 27.1275 21.4321 26.5339 21.9448 26.291C22.5924 25.9807 23.3749 25.9133 24.2519 26.0887C27.0312 26.6418 29.1764 29.3942 29.028 32.2274C28.8931 35.0607 26.4781 37.5837 23.6583 37.8535C23.5099 37.867 23.3344 37.8805 23.159 37.8805Z" fill="black"/>
<path d="M33.2104 42.3868C33.0755 42.3868 32.9271 42.3598 32.7922 42.2923C32.2795 42.0629 32.0636 41.4558 32.293 40.9566C33.17 39.0138 35.4501 37.7186 38.3643 37.5027C38.9175 37.4622 39.4032 37.8805 39.4436 38.4336C39.4841 38.9868 39.0659 39.4725 38.5127 39.513C36.381 39.6749 34.6945 40.5384 34.1279 41.7931C33.966 42.1709 33.5882 42.3868 33.2104 42.3868Z" fill="black"/>
</svg>
