<svg width="64" height="64" viewBox="0 0 64 64" fill="none" xmlns="http://www.w3.org/2000/svg">
<path d="M31.8856 42.6736C31.639 42.6736 31.3769 42.5965 31.1765 42.4269C29.2496 40.9008 27.1685 40.3458 25.7348 40.947C25.1491 41.1937 24.4708 40.9162 24.2241 40.3304C23.9775 39.7446 24.255 39.0663 24.8407 38.8197C27.0914 37.8639 29.9895 38.5422 32.6255 40.6079C33.1188 41.0087 33.2113 41.7332 32.8105 42.2265C32.5639 42.5194 32.2247 42.6736 31.8856 42.6736Z" fill="black"/>
<path d="M38.6067 33.9484C41.7977 33.9484 41.7977 29 38.6067 29C35.4158 28.9846 35.4158 33.9484 38.6067 33.9484Z" fill="black"/>
<path d="M16.3932 35.5824C19.5842 35.5824 19.5842 30.634 16.3932 30.634C13.2023 30.634 13.2023 35.5824 16.3932 35.5824Z" fill="black"/>
</svg>
