<svg width="current" height="current" viewBox="0 0 64 64" fill="current" xmlns="http://www.w3.org/2000/svg">
<path d="M9.02516 8.99908C10.1846 7.78908 12.8134 3.99908 17.4813 1.83908C23.0887 -0.750917 28.3363 0.159083 31.6248 0.139083C36.3825 -0.118958 41.1336 0.75493 45.4885 2.68908C48.2142 4.03519 50.6943 5.83021 52.8251 7.99908C57.2031 12.2191 59.0922 15.3991 61.6711 20.9991C63.3803 24.6891 64 32.1791 64 36.2891C63.8218 39.9086 62.8709 43.4479 61.2113 46.6691C59.7767 49.902 57.78 52.8544 55.314 55.3891C53.0267 57.5433 50.3772 59.2765 47.4876 60.5091C35.4331 65.9191 19.8102 64.5991 12.0238 59.5691C9.58491 57.9991 5.48678 53.4491 4.02745 51.4691C2.02837 48.7391 1.61855 45.6891 0.938864 42.3491C-0.750363 34.1391 -0.250592 25.3491 3.17784 17.7191C4.61333 14.4988 6.59121 11.5492 9.02516 8.99908Z" fill="#A1A1A1"/>
<path d="M29.9988 34.9508C29.9988 36.0219 30.4429 36.6489 31.7492 36.6489C33.0554 36.6489 33.4212 36.0219 33.4212 34.9508V34.0625C33.4212 33.6706 33.6302 33.2788 34.3356 32.7301L35.1454 32.1031C37.0264 30.6663 38.3327 29.3077 38.3327 26.852C38.3327 23.508 36.4778 21 31.9059 21C28.9016 21 26.3936 22.672 26.0278 25.7286C25.8972 26.852 26.1846 27.7925 27.8043 27.7925C28.4574 27.7925 29.1367 27.4529 29.2151 26.7475C29.4241 24.9187 30.5736 24.2134 32.1933 24.2134C33.9176 24.2134 35.0148 25.2322 35.0148 26.8259C35.0148 28.1321 33.8914 29.0726 32.7419 29.8825L31.8276 30.5356C30.4429 31.5284 29.9988 32.4689 29.9988 33.5139V34.9508ZM29.6069 40.3848C29.6069 41.8739 30.6519 42.6576 31.8798 42.6576C33.1077 42.6576 34.1527 41.8739 34.1527 40.3848C34.1527 38.9479 33.1077 38.1119 31.8798 38.1119C30.6519 38.1119 29.6069 38.9479 29.6069 40.3848Z" fill="#C2DAFF"/>
</svg>
