<svg width="64" height="64" viewBox="0 0 64 64" fill="none" xmlns="http://www.w3.org/2000/svg">
<path d="M33.4037 41.9587C33.122 41.9587 32.8543 41.846 32.643 41.6347C32.2345 41.2121 32.2486 40.55 32.6712 40.1414C35.4746 37.4507 37.8553 36.6478 41.5181 37.1831C42.0956 37.2676 42.4901 37.8029 42.4056 38.3805C42.321 38.9581 41.7716 39.3666 41.2081 39.268C38.2357 38.8454 36.4325 39.4371 34.1222 41.6629C33.925 41.8601 33.6573 41.9587 33.4037 41.9587Z" fill="black"/>
<path d="M23.0636 38.465C22.7256 38.465 22.4015 38.31 22.1902 38.0142C21.8521 37.5352 21.9789 36.8731 22.4579 36.5491C24.5287 35.1122 25.2895 33.7175 26.4728 31.3509C26.7264 30.8296 27.3744 30.6183 27.8956 30.8719C28.4169 31.1396 28.6282 31.7735 28.3746 32.2947C27.0786 34.9009 26.1065 36.6055 23.6694 38.2819C23.4722 38.3946 23.2609 38.465 23.0636 38.465Z" fill="black"/>
<path d="M47.9561 31.6749C47.8997 31.6749 47.8293 31.6749 47.7729 31.6608C44.9132 31.1677 42.9973 30.731 40.687 28.8715C40.2362 28.5052 40.1517 27.8431 40.5179 27.3923C40.8842 26.9415 41.5463 26.8711 41.9971 27.2233C43.9553 28.8011 45.533 29.1251 48.1251 29.5759C48.7027 29.6745 49.0831 30.2239 48.9845 30.8015C48.8999 31.3086 48.4632 31.6749 47.9561 31.6749Z" fill="black"/>
</svg>
