<svg width="64" height="64" viewBox="0 0 64 64" fill="none" xmlns="http://www.w3.org/2000/svg">
<path d="M30.1322 35.182C30.1322 36.084 30.5062 36.612 31.6062 36.612C32.7062 36.612 33.0142 36.084 33.0142 35.182V34.434C33.0142 34.104 33.1902 33.774 33.7842 33.312L34.4662 32.784C36.0502 31.574 37.1502 30.43 37.1502 28.362C37.1502 25.546 35.5882 23.434 31.7382 23.434C29.2082 23.434 27.0962 24.842 26.7882 27.416C26.6782 28.362 26.9202 29.154 28.2842 29.154C28.8342 29.154 29.4062 28.868 29.4722 28.274C29.6482 26.734 30.6162 26.14 31.9802 26.14C33.4322 26.14 34.3562 26.998 34.3562 28.34C34.3562 29.44 33.4102 30.232 32.4422 30.914L31.6722 31.464C30.5062 32.3 30.1322 33.092 30.1322 33.972V35.182ZM29.8022 39.758C29.8022 41.012 30.6822 41.672 31.7162 41.672C32.7502 41.672 33.6302 41.012 33.6302 39.758C33.6302 38.548 32.7502 37.844 31.7162 37.844C30.6822 37.844 29.8022 38.548 29.8022 39.758Z" fill="#C2DAFF"/>
</svg>
