
<svg width="64" height="64" viewBox="0 0 64 64" fill="current" xmlns="http://www.w3.org/2000/svg">
<g clip-path="url(#clip0_177_6763)">
<path d="M8.99587 9.00006C10.1553 7.79006 12.7841 4.00006 17.452 1.84006C23.0594 -0.749941 28.307 0.160059 31.5955 0.140059C36.3532 -0.117981 41.1043 0.755906 45.4592 2.69006C48.1849 4.03616 50.665 5.83118 52.7958 8.00006C57.1738 12.2201 59.0629 15.4001 61.6418 21.0001C63.351 24.6901 63.9707 32.1801 63.9707 36.2901C63.7925 39.9096 62.8416 43.4489 61.182 46.6701C59.7474 49.9029 57.7507 52.8554 55.2847 55.3901C52.9974 57.5442 50.3479 59.2775 47.4583 60.5101C35.4038 65.9201 19.7809 64.6001 11.9945 59.5701C9.55561 58.0001 5.45749 53.4501 3.99815 51.4701C1.99907 48.7401 1.58926 45.6901 0.909567 42.3501C-0.77966 34.1401 -0.279888 25.3501 3.14854 17.7201C4.58403 14.4998 6.56191 11.5502 8.99587 9.00006Z" fill="#F3F3F3"/>
</g>
<path d="M31.4352 41C31.1527 41 30.8843 40.887 30.6724 40.6751C30.2627 40.2513 30.2769 39.5874 30.7006 39.1777C33.5118 36.4796 35.8991 35.6744 39.572 36.2112C40.1511 36.296 40.5467 36.8328 40.4619 37.4119C40.3772 37.9911 39.8262 38.4008 39.2612 38.3019C36.2805 37.8781 34.4724 38.4714 32.1557 40.7034C31.9579 40.9011 31.6895 41 31.4352 41Z" fill="black"/>
<path d="M21.0666 37.4966C20.7276 37.4966 20.4026 37.3412 20.1908 37.0446C19.8517 36.5643 19.9789 35.9004 20.4592 35.5755C22.5357 34.1346 23.2985 32.7361 24.4851 30.3629C24.7394 29.8402 25.3892 29.6283 25.9119 29.8826C26.4346 30.151 26.6465 30.7866 26.3922 31.3093C25.0926 33.9227 24.1179 35.632 21.674 37.313C21.4762 37.426 21.2644 37.4966 21.0666 37.4966Z" fill="black"/>
<path d="M46.0276 30.6878C45.9711 30.6878 45.9005 30.6878 45.844 30.6737C42.9764 30.1793 41.0552 29.7413 38.7385 27.8767C38.2864 27.5094 38.2017 26.8454 38.569 26.3934C38.9362 25.9414 39.6002 25.8707 40.0522 26.2239C42.0158 27.806 43.5979 28.1309 46.1972 28.583C46.7763 28.6819 47.1577 29.2328 47.0589 29.812C46.9741 30.3205 46.5362 30.6878 46.0276 30.6878Z" fill="black"/>
<defs>
<clipPath id="clip0_177_6763">
<rect width="64" height="64" fill="white"/>
</clipPath>
</defs>

</svg>
