<svg width="64" height="64" viewBox="0 0 64 64" fill="none" xmlns="http://www.w3.org/2000/svg">
<g clip-path="url(#clip0_140_3109)">
<path d="M27.9966 0.430235C33.5159 -0.780552 39.4452 0.700411 44.4745 3.35214C49.4636 6.10119 53.7883 9.91345 57.143 14.5194C61.1425 19.8329 64.2021 26.217 63.9821 32.8613C63.7719 36.375 62.9213 39.8205 61.4724 43.0279C58.9286 49.3987 54.6719 54.9403 49.174 59.0384C43.5846 63.041 36.3755 64.9622 29.6564 63.5313C27.593 63.0729 25.5826 62.4022 23.6571 61.53C17.4843 58.7802 11.8918 54.8781 7.17914 50.0325C4.46448 47.4668 2.35381 44.3291 0.999906 40.8465C0.278031 38.5289 -0.0597307 36.1087 2.97856e-05 33.6819C0.0339674 25.7251 2.78194 18.0184 7.78907 11.8377C12.7785 5.71367 20.1775 2.11133 27.9966 0.430235Z" fill="#EE8BA7"/>
</g>
<defs>
<clipPath id="clip0_140_3109">
<rect width="64" height="64" fill="white"/>
</clipPath>
</defs>
</svg>
