<svg width="64" height="64" viewBox="0 0 64 64" fill="none" xmlns="http://www.w3.org/2000/svg">
<g clip-path="url(#clip0_140_3105)">
<path d="M44.8519 1.20902C50.8038 2.91829 55.9392 6.71403 59.3157 11.8998C62.3165 16.8256 64.157 21.1719 64.007 26.807C63.7569 36.7985 61.4863 47.5392 54.0043 54.783C46.5223 62.0268 33.6189 65.274 22.9961 63.5455C12.3732 61.817 2.92073 53.9537 0.860179 44.1222C-0.0455129 38.9097 -0.223922 33.5971 0.330038 28.3357C1.06023 23.8795 1.92046 19.3434 4.55116 15.5767C9.20518 8.72397 15.9955 3.59921 23.8663 0.999197C28.4875 -0.59943 40.1106 -0.0898676 44.8519 1.20902Z" fill="#90D3CC"/>
</g>
<defs>
<clipPath id="clip0_140_3105">
<rect width="64" height="64" fill="white"/>
</clipPath>
</defs>
</svg>
