<svg width="64" height="64" viewBox="0 0 64 64" fill="none" xmlns="http://www.w3.org/2000/svg">
<g clip-path="url(#clip0_140_3101)">
<path d="M8.99587 9.00006C10.1553 7.79006 12.7841 4.00006 17.452 1.84006C23.0594 -0.749941 28.307 0.160059 31.5955 0.140059C36.3532 -0.117981 41.1043 0.755906 45.4592 2.69006C48.1849 4.03616 50.665 5.83118 52.7958 8.00006C57.1738 12.2201 59.0629 15.4001 61.6418 21.0001C63.351 24.6901 63.9707 32.1801 63.9707 36.2901C63.7925 39.9096 62.8416 43.4489 61.182 46.6701C59.7474 49.9029 57.7507 52.8554 55.2847 55.3901C52.9974 57.5442 50.3479 59.2775 47.4583 60.5101C35.4038 65.9201 19.7809 64.6001 11.9945 59.5701C9.55561 58.0001 5.45749 53.4501 3.99815 51.4701C1.99907 48.7401 1.58926 45.6901 0.909567 42.3501C-0.77966 34.1401 -0.279888 25.3501 3.14854 17.7201C4.58403 14.4998 6.56191 11.5502 8.99587 9.00006Z" fill="#6CA8FF"/>
</g>
<defs>
<clipPath id="clip0_140_3101">
<rect width="64" height="64" fill="white"/>
</clipPath>
</defs>
</svg>
