<svg width="64" height="64" viewBox="0 0 64 64" fill="none" xmlns="http://www.w3.org/2000/svg">
<path d="M11.897 7.87426C12.9116 6.8155 15.2117 3.49923 19.2961 1.60921C24.2026 -0.657058 28.7943 0.139198 31.6717 0.121698C35.8347 -0.104089 39.9919 0.660569 43.8024 2.35297C46.1874 3.53082 48.3575 5.10147 50.222 6.99925C54.0527 10.6918 55.7057 13.4743 57.9622 18.3743C59.4577 21.6031 60 28.1569 60 31.7532C59.8441 34.9203 59.012 38.0173 57.5599 40.8358C56.3046 43.6646 54.5575 46.248 52.3997 48.4658C50.3984 50.3508 48.0801 51.8674 45.5516 52.9459C35.0039 57.6797 21.3339 56.5247 14.5208 52.1234C12.3868 50.7496 8.80093 46.7683 7.52402 45.0358C5.77482 42.647 5.41623 39.9783 4.82151 37.0557C3.34343 29.8719 3.78073 22.1806 6.78061 15.5043C8.03666 12.6866 9.76731 10.1056 11.897 7.87426Z" fill="#A1A1A1"/>
</svg>
