<svg width="64" height="64" viewBox="0 0 64 64" fill="none" xmlns="http://www.w3.org/2000/svg">
<g clip-path="url(#clip0_140_3113)">
<path d="M37.2139 4.73727e-05C45.6125 0.88977 49.5118 3.56893 53.9911 8.32745C58.4447 13.2886 61.544 19.314 62.9896 25.822C63.8075 29.8803 64.1431 34.0211 63.9894 38.1581C63.9894 41.5271 62.6196 46.6855 60.56 49.4046C57.9284 52.8698 54.7387 55.8732 51.1215 58.2919C46.2524 61.8507 37.8537 63.8601 31.9947 63.9801C26.2557 64.09 18.527 62.6905 13.5378 59.6514C6.92888 55.6527 2.74958 48.9848 0.689917 41.2072C-0.501955 36.1008 -0.082819 30.7506 1.88972 25.892C3.83591 21.1617 6.57849 16.7999 9.99837 12.996C12.8308 9.47408 16.2712 6.48786 20.1567 4.17874C25.3604 1.27072 31.255 -0.173337 37.2139 4.73727e-05Z" fill="#C793DC"/>
</g>
<defs>
<clipPath id="clip0_140_3113">
<rect width="64" height="64" fill="white"/>
</clipPath>
</defs>
</svg>
