<svg width="24" height="24" viewBox="0 0 24 24" fill="none" xmlns="http://www.w3.org/2000/svg">
<path d="M6.33 8.66992H12.855C13.0539 8.66992 13.2447 8.5909 13.3853 8.45025C13.526 8.3096 13.605 8.11883 13.605 7.91992C13.605 7.72101 13.526 7.53024 13.3853 7.38959C13.2447 7.24894 13.0539 7.16992 12.855 7.16992H6.33C6.13109 7.16992 5.94032 7.24894 5.79967 7.38959C5.65902 7.53024 5.58 7.72101 5.58 7.91992C5.58 8.11883 5.65902 8.3096 5.79967 8.45025C5.94032 8.5909 6.13109 8.66992 6.33 8.66992ZM6.33 12.7499H10.41C10.6089 12.7499 10.7997 12.6709 10.9403 12.5303C11.081 12.3896 11.16 12.1988 11.16 11.9999C11.16 11.801 11.081 11.6102 10.9403 11.4696C10.7997 11.3289 10.6089 11.2499 10.41 11.2499H6.33C6.13109 11.2499 5.94032 11.3289 5.79967 11.4696C5.65902 11.6102 5.58 11.801 5.58 11.9999C5.58 12.1988 5.65902 12.3896 5.79967 12.5303C5.94032 12.6709 6.13109 12.7499 6.33 12.7499Z" fill="white"/>
<path d="M6.32999 16.83H15.165C15.2637 16.8306 15.3615 16.8117 15.4529 16.7743C15.5443 16.737 15.6274 16.682 15.6975 16.6125L22.0425 10.2675C22.1931 10.1214 22.3128 9.94652 22.3946 9.75327C22.4763 9.56003 22.5185 9.35233 22.5185 9.1425C22.5185 8.93267 22.4763 8.72497 22.3946 8.53173C22.3128 8.33848 22.1931 8.16362 22.0425 8.0175L20.8875 6.8925C20.7414 6.7419 20.5665 6.62218 20.3733 6.54042C20.18 6.45866 19.9723 6.41653 19.7625 6.41653C19.5527 6.41653 19.345 6.45866 19.1517 6.54042C18.9585 6.62218 18.7836 6.7419 18.6375 6.8925L17.6475 7.8825V3.84C17.6535 3.42681 17.4962 3.02795 17.2097 2.73018C16.9231 2.43242 16.5306 2.25984 16.1175 2.25H3.06749C2.85974 2.24998 2.65405 2.29126 2.46239 2.37143C2.27074 2.45161 2.09693 2.56909 1.95107 2.71704C1.80522 2.86498 1.69023 3.04045 1.61279 3.23323C1.53535 3.42601 1.49701 3.63227 1.49999 3.84V20.16C1.49701 20.3677 1.53535 20.574 1.61279 20.7668C1.69023 20.9596 1.80522 21.135 1.95107 21.283C2.09693 21.4309 2.27074 21.5484 2.46239 21.6286C2.65405 21.7087 2.85974 21.75 3.06749 21.75H16.1175C16.5332 21.75 16.9319 21.5849 17.2259 21.2909C17.5198 20.9969 17.685 20.5982 17.685 20.1825V18C17.685 17.8011 17.606 17.6103 17.4653 17.4697C17.3247 17.329 17.1339 17.25 16.935 17.25C16.7361 17.25 16.5453 17.329 16.4047 17.4697C16.264 17.6103 16.185 17.8011 16.185 18V20.16C16.185 20.1779 16.1779 20.1951 16.1652 20.2077C16.1526 20.2204 16.1354 20.2275 16.1175 20.2275H3.06749C3.04959 20.2275 3.03242 20.2204 3.01976 20.2077C3.00711 20.1951 2.99999 20.1779 2.99999 20.16V3.84C2.99626 3.8295 2.99519 3.81825 2.99686 3.80724C2.99854 3.79622 3.00291 3.7858 3.00959 3.77689C3.01628 3.76798 3.02506 3.76086 3.03516 3.75617C3.04527 3.75147 3.05637 3.74936 3.06749 3.75H16.1175C16.1354 3.75 16.1526 3.75711 16.1652 3.76977C16.1779 3.78243 16.185 3.7996 16.185 3.8175V9.36L12.3225 13.2225C12.253 13.2926 12.198 13.3757 12.1607 13.4671C12.1233 13.5584 12.1044 13.6563 12.105 13.755V15.315H6.32999C6.13108 15.315 5.94032 15.394 5.79966 15.5347C5.65901 15.6753 5.57999 15.8661 5.57999 16.065C5.57999 16.2639 5.65901 16.4547 5.79966 16.5953C5.94032 16.736 6.13108 16.815 6.32999 16.815V16.83ZM13.605 14.085L17.445 10.245L17.4825 10.2075L19.7325 7.9575C19.7449 7.94643 19.7609 7.94031 19.7775 7.94031C19.7941 7.94031 19.8101 7.94643 19.8225 7.9575L21 9.1125V9.2025L14.8725 15.33H13.605V14.085Z" fill="white"/>
</svg>
