<svg width="24" height="24" viewBox="0 0 24 24" fill="none" xmlns="http://www.w3.org/2000/svg">
<path d="M12 8.99996C11.4067 8.99996 10.8267 9.1759 10.3333 9.50555C9.83998 9.83519 9.45547 10.3037 9.2284 10.8519C9.00134 11.4001 8.94193 12.0033 9.05769 12.5852C9.17344 13.1672 9.45916 13.7017 9.87872 14.1213C10.2983 14.5408 10.8328 14.8266 11.4148 14.9423C11.9967 15.0581 12.5999 14.9987 13.1481 14.7716C13.6963 14.5445 14.1648 14.16 14.4945 13.6667C14.8241 13.1733 15 12.5933 15 12C15 11.2043 14.684 10.4412 14.1214 9.87864C13.5588 9.31603 12.7957 8.99996 12 8.99996ZM12 13C11.8023 13 11.6089 12.9413 11.4445 12.8314C11.28 12.7215 11.1518 12.5654 11.0762 12.3826C11.0005 12.1999 10.9807 11.9988 11.0193 11.8049C11.0578 11.6109 11.1531 11.4327 11.2929 11.2928C11.4328 11.153 11.611 11.0578 11.805 11.0192C11.9989 10.9806 12.2 11.0004 12.3827 11.0761C12.5655 11.1518 12.7216 11.2799 12.8315 11.4444C12.9414 11.6088 13 11.8022 13 12C13 12.2652 12.8947 12.5195 12.7071 12.7071C12.5196 12.8946 12.2653 13 12 13ZM20.81 12.81C20.647 12.6251 20.5579 12.3865 20.56 12.14V11.86C20.5579 11.6134 20.647 11.3748 20.81 11.19L21.45 10.47C21.9406 9.91935 22.2111 9.20737 22.21 8.46996C22.2052 7.94424 22.0676 7.42827 21.81 6.96996L21.25 5.96996C20.9866 5.51362 20.6076 5.13472 20.1511 4.8714C19.6947 4.60808 19.177 4.46962 18.65 4.46996C18.4486 4.47009 18.2476 4.49019 18.05 4.52996L17.11 4.71996H16.9C16.7285 4.71729 16.5603 4.67266 16.41 4.58996L16.16 4.43996C15.9666 4.34555 15.8088 4.19123 15.71 3.99996L15.4 3.08996C15.1926 2.50319 14.8078 1.99546 14.2989 1.63712C13.7901 1.27877 13.1824 1.08756 12.56 1.08996H11.44C10.8225 1.08461 10.2183 1.26998 9.71004 1.62077C9.20175 1.97155 8.81411 2.47066 8.60004 3.04996L8.29004 3.99996C8.21244 4.2322 8.05232 4.4279 7.84004 4.54996L7.60004 4.69996C7.44565 4.78132 7.27451 4.82581 7.10004 4.82996H6.90004L6.00004 4.57996C5.80252 4.54019 5.60153 4.52009 5.40004 4.51996C4.86663 4.50872 4.33987 4.63994 3.87406 4.90009C3.40825 5.16024 3.02025 5.53991 2.75004 5.99996L2.19004 6.99996C1.87618 7.54586 1.74205 8.17669 1.80667 8.80307C1.87128 9.42945 2.13135 10.0196 2.55004 10.49L3.19004 11.21C3.35311 11.3948 3.44214 11.6334 3.44004 11.88V12.16C3.44214 12.4065 3.35311 12.6451 3.19004 12.83L2.55004 13.55C2.05951 14.1006 1.78896 14.8125 1.79004 15.55C1.79487 16.0757 1.93246 16.5916 2.19004 17.05L2.75004 18.05C3.01351 18.5063 3.39253 18.8852 3.84895 19.1485C4.30538 19.4118 4.82311 19.5503 5.35004 19.55C5.55153 19.5498 5.75252 19.5297 5.95004 19.49L6.89004 19.3H7.09004C7.26154 19.3026 7.42978 19.3473 7.58004 19.43L7.83004 19.58C8.04232 19.702 8.20244 19.8977 8.28004 20.13L8.60004 21C8.80749 21.5867 9.1923 22.0945 9.70114 22.4528C10.21 22.8111 10.8177 23.0024 11.44 23H12.56C13.1824 23.0024 13.7901 22.8111 14.2989 22.4528C14.8078 22.0945 15.1926 21.5867 15.4 21L15.71 20.09C15.7876 19.8577 15.9478 19.662 16.16 19.54L16.4 19.39C16.5544 19.3086 16.7256 19.2641 16.9 19.26H17.1L18.05 19.45C18.2476 19.4897 18.4486 19.5098 18.65 19.51C19.177 19.5103 19.6947 19.3718 20.1511 19.1085C20.6076 18.8452 20.9866 18.4663 21.25 18.01L21.81 17.01C22.0676 16.5516 22.2052 16.0357 22.21 15.51C22.2111 14.7725 21.9406 14.0606 21.45 13.51L20.81 12.81ZM19.32 14.13L19.96 14.85C20.1231 15.0348 20.2121 15.2734 20.21 15.52C20.2082 15.696 20.1599 15.8685 20.07 16.02L19.51 17.02C19.4228 17.1711 19.2975 17.2968 19.1466 17.3845C18.9958 17.4722 18.8246 17.5189 18.65 17.52H18.45L17.51 17.33C16.7888 17.1804 16.0378 17.3014 15.4 17.67L15.16 17.81C14.5232 18.1761 14.0428 18.7632 13.81 19.46L13.51 20.38C13.443 20.5786 13.3151 20.7511 13.1447 20.8731C12.9742 20.9951 12.7697 21.0605 12.56 21.06H11.44C11.2304 21.0605 11.0259 20.9951 10.8554 20.8731C10.6849 20.7511 10.5571 20.5786 10.49 20.38L10.19 19.46C9.95723 18.7632 9.47688 18.1761 8.84004 17.81L8.59004 17.67C8.13674 17.409 7.62309 17.2711 7.10004 17.27C6.89524 17.2701 6.69094 17.2902 6.49004 17.33L5.55004 17.52H5.35004C5.17383 17.5207 5.00057 17.4748 4.84779 17.387C4.69501 17.2992 4.56815 17.1726 4.48004 17.02L3.93004 16.02C3.84017 15.8685 3.79187 15.696 3.79004 15.52C3.77676 15.2786 3.85136 15.0406 4.00004 14.85L4.64004 14.13C5.13057 13.5794 5.40112 12.8674 5.40004 12.13V11.85C5.40112 11.1125 5.13057 10.4006 4.64004 9.84996L4.00004 9.14996C3.83697 8.96507 3.74794 8.72647 3.75004 8.47996C3.76732 8.30703 3.82935 8.1416 3.93004 7.99996L4.49004 6.99996C4.5773 6.84882 4.70259 6.72315 4.85346 6.63543C5.00433 6.54772 5.17553 6.50101 5.35004 6.49996H5.55004L6.49004 6.68996C6.69087 6.73019 6.89522 6.75029 7.10004 6.74996C7.62309 6.74879 8.13674 6.6109 8.59004 6.34996L8.84004 6.20996C9.46941 5.85357 9.94883 5.28181 10.19 4.59996L10.49 3.67996C10.5571 3.48134 10.6849 3.30882 10.8554 3.1868C11.0259 3.06478 11.2304 2.99942 11.44 2.99996H12.56C12.7697 2.99942 12.9742 3.06478 13.1447 3.1868C13.3151 3.30882 13.443 3.48134 13.51 3.67996L13.81 4.59996C14.0428 5.29669 14.5232 5.88379 15.16 6.24996L15.41 6.38996C15.8633 6.6509 16.377 6.78879 16.9 6.78996C17.1049 6.79029 17.3092 6.77019 17.51 6.72996L18.45 6.53996H18.65C18.8263 6.53926 18.9995 6.58513 19.1523 6.67294C19.3051 6.76074 19.4319 6.88735 19.52 7.03996L20.07 8.03996C20.1599 8.19139 20.2082 8.36387 20.21 8.53996C20.2121 8.78647 20.1231 9.02507 19.96 9.20996L19.32 9.92996C18.8295 10.4806 18.559 11.1925 18.56 11.93V12.21C18.559 12.9474 18.8295 13.6594 19.32 14.21" fill="white"/>
</svg>
