<svg width="20" height="20" viewBox="0 0 20 20" fill="none" xmlns="http://www.w3.org/2000/svg">
<rect opacity="0.01" x="20" width="20" height="20" transform="rotate(90 20 0)" fill="#A1A1A1"/>
<path d="M3.18507 7.37996C2.79113 6.99288 2.78556 6.35974 3.17264 5.9658C3.55972 5.57186 4.19286 5.5663 4.5868 5.95337L3.18507 7.37996ZM9.8227 12.5L10.5236 13.2133L9.8227 13.9019L9.12183 13.2133L9.8227 12.5ZM15.0586 5.95337C15.4525 5.5663 16.0857 5.57186 16.4728 5.9658C16.8598 6.35974 16.8543 6.99288 16.4603 7.37996L15.0586 5.95337ZM4.5868 5.95337L10.5236 11.7867L9.12183 13.2133L3.18507 7.37996L4.5868 5.95337ZM9.12183 11.7867L15.0586 5.95337L16.4603 7.37996L10.5236 13.2133L9.12183 11.7867Z" fill="#A1A1A1"/>
</svg>