<svg width="211" height="56" viewBox="0 0 211 56" fill="none" xmlns="http://www.w3.org/2000/svg">
<path d="M89.4794 21.016H82.3034V20.128C81.2954 20.608 79.9514 20.992 78.4154 20.992H75.7034C71.1434 20.992 70.0874 19.24 70.0874 15.664V1.312H77.1194V13.768C77.1194 14.368 77.5514 14.608 78.2234 14.608C79.0634 14.608 81.0314 14.416 82.3034 13.864V1.312H89.4794V7.576H91.3034V13.24H89.4794V21.016ZM91.6256 11.152C91.6256 3.544 93.5696 0.951999 96.4256 0.951999C98.8496 0.951999 100.602 2.8 101.106 7.936H101.634V1.312H106.65V21.016H101.634V14.224H101.13C100.65 19.456 98.8736 21.352 96.4256 21.352C93.5696 21.352 91.6256 18.76 91.6256 11.152ZM112.218 21.016H107.202V1.312H112.218V21.016ZM94.3856 9.952L93.9536 10.6C95.2976 11.224 97.1216 11.44 98.5856 11.44V10.72C97.1216 10.72 95.5616 10.432 94.3856 9.952ZM113.644 21.016V14.704C115.108 14.296 116.092 13.048 116.092 9.616V7.048C115.324 7.336 114.412 7.48 113.644 7.504V1.312H121.828V8.416H122.452V1.312H127.948V21.016H122.452V13.744H121.612C120.796 18.256 117.676 20.8 113.644 21.016ZM133.996 21.016H128.5V1.312H133.996V21.016ZM0.363222 39.944V35.312H11.7152V39.944H9.65122C9.74722 41.072 10.3952 41.504 11.7152 41.504V45.896C9.02722 45.896 6.96322 45.44 4.80322 43.16L4.29922 43.592C4.58722 44.024 5.06722 44.456 5.54722 44.792C3.93922 45.584 2.42722 45.896 0.363222 45.896V41.504C1.58722 41.504 2.28322 41.072 2.40322 39.944H0.363222ZM12.1712 43.232V37.568H13.2992V35.312H20.7152V45.848H13.2992V43.232H12.1712ZM0.363222 51.824V46.496H20.7152V55.016H13.2992V51.824H0.363222ZM22.1413 38.984H24.1573C23.9653 39.944 23.2693 40.304 22.1413 40.304V44.216C24.2053 44.216 25.7173 43.904 27.3253 43.112C26.8453 42.776 26.3653 42.344 26.0773 41.912L26.5813 41.48C28.7413 43.76 30.8053 44.12 33.4933 44.12V40.304C32.2693 40.304 31.6213 39.944 31.4533 38.984H33.4933V35.312H22.1413V38.984ZM33.9493 42.752H35.0773V44.168H42.4933V35.312H35.0773V37.088H33.9493V42.752ZM30.8293 55.352C35.3413 55.352 39.4213 55.136 42.4933 54.32V49.88C40.4533 50.576 37.9093 50.912 35.5333 50.912V50.312C37.9093 50.312 40.4533 49.976 42.4933 49.28V44.768H22.1413V48.56C24.6373 48.56 26.7973 48.392 29.1013 47.912V48.512C26.7973 48.992 24.6373 49.16 22.1413 49.16V50.264C22.1413 53.504 25.1173 55.352 30.8293 55.352ZM56.2315 39.704H43.9195V35.792H45.5275C45.7195 36.584 46.9435 37.616 47.9275 37.664L48.2395 37.184C46.9195 36.968 46.0315 36.08 46.0315 35.264V34.424H54.0955V35.792H56.2315V39.704ZM56.8555 50V35.312H63.3115V39.248H65.1355V44.912H63.3115V48.896C61.6315 49.592 58.7035 50.12 56.8555 50ZM43.9195 44.072C43.9195 41.72 45.3835 40.136 50.1595 40.136C54.9595 40.136 56.4235 41.72 56.4235 44.072C56.4235 46.352 54.9595 47.96 50.1595 47.96C45.3835 47.96 43.9195 46.376 43.9195 44.072ZM47.7835 42.992L47.3515 43.64C48.9355 44.36 50.9035 44.72 52.7035 44.72V44C50.9035 44 49.1995 43.568 47.7835 42.992ZM44.3035 48.44H51.2635C51.2635 49.688 52.5355 50.648 55.0075 50.744C58.0315 50.84 60.9115 50.648 63.3115 49.688V54.272C60.5035 55.04 58.2475 55.352 54.4315 55.352C47.3035 55.352 43.4875 54.08 44.3035 48.44ZM72.6163 46.016V40.568C76.9363 40.328 78.7124 39.08 78.7124 36.728V35.312H86.8244V36.728C86.8244 39.08 88.6484 40.328 92.9684 40.568V46.016C86.9924 46.016 84.3284 45.56 80.7524 43.232L79.9123 43.664C80.4643 44.072 81.1844 44.432 81.9764 44.768C79.3124 45.56 76.5284 46.04 72.6163 46.016ZM86.4884 55.016H79.0964V51.608H72.6163V46.52H92.9684V51.608H86.4884V55.016ZM94.3945 44.264V35.312H106.898V36.176H107.81V35.312H114.746V48.176C113.066 48.872 109.658 49.4 107.81 49.28V45.464H106.898V46.328H96.4585C95.0185 46.328 94.3945 45.704 94.3945 44.264ZM98.5465 39.992L98.2345 40.688C99.7705 41.216 101.354 41.48 103.106 41.48V40.784C101.474 40.784 100.01 40.472 98.5465 39.992ZM109.154 40.856L108.842 40.16C107.81 40.568 106.874 40.784 105.482 40.784V41.48C106.994 41.48 108.05 41.312 109.154 40.856ZM94.7785 47H101.738C101.738 48.968 103.01 49.952 105.482 50.024C108.986 50.12 112.346 49.928 114.746 48.968V54.272C111.938 55.04 109.202 55.352 104.906 55.352C97.7785 55.352 93.9625 53.36 94.7785 47ZM122.611 55.016V49.184C123.931 48.824 125.155 47.72 125.155 45.392V35.312H132.835V45.392C132.835 47.72 133.963 48.824 135.403 49.184V55.016C132.715 55.016 129.931 54.56 127.771 52.28L127.267 52.712C127.603 53.096 128.035 53.456 128.515 53.792C126.907 54.56 124.675 55.016 122.611 55.016ZM143.443 55.016H136.027V35.312H143.443V55.016ZM144.869 46.376V41.192C146.309 41.264 149.069 41.12 150.437 40.688V39.968C149.069 40.4 146.309 40.544 144.869 40.472V35.312H156.893V38.84C156.893 45.512 154.109 46.856 144.869 46.376ZM157.805 49.28V35.312H164.261V38.288H166.061V43.952H164.261V48.176C162.581 48.872 159.653 49.4 157.805 49.28ZM145.253 47H152.213C152.213 48.968 153.485 49.928 155.957 50.024C158.981 50.12 161.861 49.928 164.261 48.968V54.272C161.453 55.04 159.197 55.352 155.381 55.352C148.253 55.352 144.437 53.36 145.253 47ZM166.432 39.608C166.432 36.344 169.768 34.952 176.824 34.952C183.88 34.952 187.216 36.344 187.216 39.608C187.216 42.872 183.88 44.264 176.824 44.264C169.768 44.264 166.432 42.872 166.432 39.608ZM174.208 38.864L173.944 39.584C175.792 40.16 177.976 40.376 179.776 40.376V39.656C177.976 39.656 176.008 39.368 174.208 38.864ZM166.648 48.944V44.72H187V48.944H166.648ZM166.768 49.496H173.68C173.512 50.504 174.352 51.104 176.68 51.128C180.544 51.176 183.544 50.936 187 50.072V54.248C183.832 55.088 180.76 55.352 176.68 55.352C168.856 55.352 166.288 53.672 166.768 49.496ZM194.882 55.016H190.13C189.05 55.016 188.426 54.584 188.426 53.48V48.752H194.882V55.016ZM202.761 55.016H198.009C196.929 55.016 196.305 54.584 196.305 53.48V48.752H202.761V55.016ZM210.641 55.016H205.889C204.809 55.016 204.185 54.584 204.185 53.48V48.752H210.641V55.016Z" fill="white"/>
</svg>
