<svg width="375" height="812" viewBox="0 0 375 812" fill="none" xmlns="http://www.w3.org/2000/svg">
<g clip-path="url(#clip0_485_8731)">
<g opacity="0.5">
<path d="M330 764.251C330 842.399 266.648 905.751 188.5 905.751C110.352 905.751 47 842.399 47 764.251C47 686.102 87.5 634.251 188.5 622.751C267 613.813 330 686.102 330 764.251Z" fill="#C793DC"/>
<path d="M205 692.068C202.21 694.04 198.885 695.113 195.47 695.145C192.054 695.177 188.71 694.166 185.883 692.248" fill="#C793DC"/>
<path d="M205 692.068C202.21 694.04 198.885 695.113 195.47 695.145C192.054 695.177 188.71 694.166 185.883 692.248" stroke="black" stroke-width="4" stroke-miterlimit="10" stroke-linecap="round"/>
<path d="M160.29 688.028C157.053 689.196 153.549 689.413 150.191 688.656C146.834 687.898 143.763 686.196 141.341 683.75" fill="#C793DC"/>
<path d="M160.29 688.028C157.053 689.196 153.549 689.413 150.191 688.656C146.834 687.898 143.763 686.196 141.341 683.75" stroke="black" stroke-width="4" stroke-miterlimit="10" stroke-linecap="round"/>
<path d="M185.962 706.958C181.34 709.269 176.147 710.192 171.012 709.616C165.876 709.041 161.017 706.99 157.021 703.713" fill="#C793DC"/>
<path d="M185.962 706.958C181.34 709.269 176.147 710.192 171.012 709.616C165.876 709.041 161.017 706.99 157.021 703.713" stroke="black" stroke-width="4" stroke-miterlimit="10" stroke-linecap="round"/>
</g>
<path d="M-26.6774 242.487C-24.1977 242.486 -21.724 242.733 -19.2927 243.223C-16.7649 235.887 -12.0337 229.52 -5.75229 225.002C0.529135 220.484 8.05093 218.037 15.7746 218C23.4982 217.964 31.0428 220.338 37.3666 224.796C43.6904 229.254 48.4816 235.575 51.0785 242.887C56.0324 243.613 60.7903 245.334 65.0687 247.947C69.3471 250.56 73.0584 254.012 75.9815 258.097C78.9046 262.183 80.9796 266.818 82.0829 271.727C83.1862 276.636 83.2952 281.717 82.4034 286.669C81.5116 291.621 79.6373 296.342 76.8921 300.551C74.1469 304.759 70.5871 308.369 66.4247 311.165C62.2624 313.961 57.5827 315.886 52.6645 316.825C47.7463 317.765 42.6903 317.699 37.7978 316.633C34.2457 320.543 29.9195 323.663 25.097 325.793C20.2745 327.922 15.0622 329.015 9.79482 329C4.52746 328.985 -0.678589 327.863 -5.48906 325.706C-10.2995 323.549 -14.6081 320.404 -18.1382 316.474C-23.2605 317.689 -28.5805 317.8 -33.7486 316.8C-38.9167 315.801 -43.8159 313.713 -48.1241 310.674C-52.4324 307.636 -56.0521 303.715 -58.7455 299.17C-61.4389 294.624 -63.1449 289.558 -63.7515 284.302C-64.358 279.047 -63.8513 273.722 -62.2647 268.678C-60.6781 263.633 -58.0476 258.984 -54.5459 255.034C-51.0442 251.085 -46.7507 247.925 -41.9475 245.762C-37.1444 243.6 -31.9403 242.483 -26.6774 242.487Z" fill="#C6C7DB" fill-opacity="0.5"/>
<path opacity="0.5" d="M107.362 108.358L109.822 103.868C109.974 103.604 110.192 103.385 110.456 103.233C110.719 103.08 111.018 103 111.322 103C111.626 103 111.925 103.08 112.189 103.233C112.452 103.385 112.671 103.604 112.822 103.868L115.302 108.358L119.792 110.808C120.065 110.958 120.293 111.179 120.452 111.447C120.611 111.715 120.694 112.021 120.694 112.333C120.694 112.645 120.611 112.951 120.452 113.219C120.293 113.487 120.065 113.708 119.792 113.858L115.302 116.308L112.852 120.798C112.701 121.062 112.482 121.281 112.219 121.434C111.955 121.586 111.656 121.666 111.352 121.666C111.048 121.666 110.749 121.586 110.486 121.434C110.222 121.281 110.004 121.062 109.852 120.798L107.392 116.308L102.902 113.858C102.629 113.708 102.401 113.487 102.242 113.219C102.084 112.951 102 112.645 102 112.333C102 112.021 102.084 111.715 102.242 111.447C102.401 111.179 102.629 110.958 102.902 110.808L107.362 108.358Z" fill="#999EC6"/>
<path opacity="0.5" d="M247.358 241.358L249.808 236.868C249.96 236.604 250.178 236.385 250.442 236.233C250.705 236.08 251.004 236 251.308 236C251.612 236 251.911 236.08 252.175 236.233C252.438 236.385 252.656 236.604 252.808 236.868L255.268 241.358L259.758 243.808C260.022 243.96 260.241 244.178 260.394 244.442C260.546 244.705 260.626 245.004 260.626 245.308C260.626 245.612 260.546 245.911 260.394 246.175C260.241 246.438 260.022 246.656 259.758 246.808L255.268 249.268L252.808 253.748C252.656 254.012 252.438 254.231 252.175 254.384C251.911 254.536 251.612 254.616 251.308 254.616C251.004 254.616 250.705 254.536 250.442 254.384C250.178 254.231 249.96 254.012 249.808 253.748L247.358 249.268L242.868 246.808C242.604 246.656 242.385 246.438 242.233 246.175C242.08 245.911 242 245.612 242 245.308C242 245.004 242.08 244.705 242.233 244.442C242.385 244.178 242.604 243.96 242.868 243.808L247.358 241.358Z" fill="#999EC6"/>
<path opacity="0.5" d="M67 202C69.7614 202 72 199.761 72 197C72 194.239 69.7614 192 67 192C64.2386 192 62 194.239 62 197C62 199.761 64.2386 202 67 202Z" fill="#999EC6"/>
<path opacity="0.5" d="M261 122C263.761 122 266 119.761 266 117C266 114.239 263.761 112 261 112C258.239 112 256 114.239 256 117C256 119.761 258.239 122 261 122Z" fill="#999EC6"/>
<path opacity="0.5" d="M187 270C189.761 270 192 267.761 192 265C192 262.239 189.761 260 187 260C184.239 260 182 262.239 182 265C182 267.761 184.239 270 187 270Z" fill="#999EC6"/>
<path opacity="0.5" d="M321 270C323.761 270 326 267.761 326 265C326 262.239 323.761 260 321 260C318.239 260 316 262.239 316 265C316 267.761 318.239 270 321 270Z" fill="#999EC6"/>
<path opacity="0.5" d="M118 251C119.657 251 121 249.657 121 248C121 246.343 119.657 245 118 245C116.343 245 115 246.343 115 248C115 249.657 116.343 251 118 251Z" fill="#999EC6"/>
<path opacity="0.5" d="M41 153C42.6569 153 44 151.657 44 150C44 148.343 42.6569 147 41 147C39.3431 147 38 148.343 38 150C38 151.657 39.3431 153 41 153Z" fill="#999EC6"/>
<path d="M403.384 122.808C400.752 122.806 398.126 123.066 395.546 123.584C392.861 115.851 387.838 109.141 381.17 104.379C374.503 99.6175 366.519 97.0393 358.321 97.0004C350.123 96.9616 342.115 99.464 335.402 104.162C328.689 108.86 323.603 115.523 320.844 123.23C315.59 123.999 310.544 125.817 306.007 128.573C301.47 131.33 297.535 134.969 294.437 139.275C291.338 143.581 289.139 148.466 287.97 153.638C286.802 158.81 286.687 164.163 287.634 169.38C288.581 174.597 290.57 179.571 293.482 184.005C296.394 188.439 300.17 192.242 304.585 195.189C309 198.136 313.964 200.166 319.181 201.158C324.399 202.15 329.762 202.085 334.954 200.964C338.723 205.086 343.315 208.374 348.433 210.619C353.552 212.864 359.084 214.016 364.674 214C370.265 213.984 375.79 212.801 380.896 210.528C386.001 208.254 390.574 204.939 394.32 200.797C399.757 202.077 405.404 202.194 410.89 201.141C416.376 200.087 421.576 197.886 426.149 194.683C430.722 191.48 434.564 187.348 437.423 182.556C440.282 177.765 442.092 172.425 442.736 166.885C443.38 161.345 442.842 155.733 441.158 150.415C439.474 145.098 436.682 140.197 432.965 136.034C429.248 131.871 424.691 128.54 419.593 126.26C414.494 123.981 408.97 122.804 403.384 122.808V122.808Z" fill="#C6C7DB" fill-opacity="0.5"/>
</g>
<defs>
<clipPath id="clip0_485_8731">
<rect width="375" height="812" fill="white"/>
</clipPath>
</defs>
</svg>
