<svg width="375" height="812" viewBox="0 0 375 812" fill="none" xmlns="http://www.w3.org/2000/svg">
<g clip-path="url(#clip0_510_9646)">
<g opacity="0.5">
<path d="M330 764.251C330 842.399 266.648 905.751 188.5 905.751C110.352 905.751 47 842.399 47 764.251C47 686.102 87.5 634.251 188.5 622.751C267 613.813 330 686.102 330 764.251Z" fill="#C793DC"/>
<path d="M205 692.068C202.21 694.04 198.885 695.113 195.47 695.145C192.054 695.177 188.71 694.166 185.883 692.248" fill="#C793DC"/>
<path d="M205 692.068C202.21 694.04 198.885 695.113 195.47 695.145C192.054 695.177 188.71 694.166 185.883 692.248" stroke="black" stroke-width="4" stroke-miterlimit="10" stroke-linecap="round"/>
<path d="M160.29 688.028C157.053 689.196 153.549 689.413 150.191 688.656C146.834 687.898 143.763 686.196 141.341 683.75" fill="#C793DC"/>
<path d="M160.29 688.028C157.053 689.196 153.549 689.413 150.191 688.656C146.834 687.898 143.763 686.196 141.341 683.75" stroke="black" stroke-width="4" stroke-miterlimit="10" stroke-linecap="round"/>
<path d="M185.962 706.958C181.34 709.269 176.147 710.192 171.012 709.616C165.876 709.041 161.017 706.99 157.021 703.713" fill="#C793DC"/>
<path d="M185.962 706.958C181.34 709.269 176.147 710.192 171.012 709.616C165.876 709.041 161.017 706.99 157.021 703.713" stroke="black" stroke-width="4" stroke-miterlimit="10" stroke-linecap="round"/>
</g>
<path d="M173.479 179.016H166.303V178.128C165.295 178.608 163.951 178.992 162.415 178.992H159.703C155.143 178.992 154.087 177.24 154.087 173.664V159.312H161.119V171.768C161.119 172.368 161.551 172.608 162.223 172.608C163.063 172.608 165.031 172.416 166.303 171.864V159.312H173.479V165.576H175.303V171.24H173.479V179.016ZM175.626 169.152C175.626 161.544 177.57 158.952 180.426 158.952C182.85 158.952 184.602 160.8 185.106 165.936H185.634V159.312H190.65V179.016H185.634V172.224H185.13C184.65 177.456 182.874 179.352 180.426 179.352C177.57 179.352 175.626 176.76 175.626 169.152ZM196.218 179.016H191.202V159.312H196.218V179.016ZM178.386 167.952L177.954 168.6C179.298 169.224 181.122 169.44 182.586 169.44V168.72C181.122 168.72 179.562 168.432 178.386 167.952ZM197.644 179.016V172.704C199.108 172.296 200.092 171.048 200.092 167.616V165.048C199.324 165.336 198.412 165.48 197.644 165.504V159.312H205.828V166.416H206.452V159.312H211.948V179.016H206.452V171.744H205.612C204.796 176.256 201.676 178.8 197.644 179.016ZM217.996 179.016H212.5V159.312H217.996V179.016ZM84.3632 197.944V193.312H95.7152V197.944H93.6512C93.7472 199.072 94.3952 199.504 95.7152 199.504V203.896C93.0272 203.896 90.9632 203.44 88.8032 201.16L88.2992 201.592C88.5872 202.024 89.0672 202.456 89.5472 202.792C87.9392 203.584 86.4272 203.896 84.3632 203.896V199.504C85.5872 199.504 86.2832 199.072 86.4032 197.944H84.3632ZM96.1712 201.232V195.568H97.2992V193.312H104.715V203.848H97.2992V201.232H96.1712ZM84.3632 209.824V204.496H104.715V213.016H97.2992V209.824H84.3632ZM106.141 196.984H108.157C107.965 197.944 107.269 198.304 106.141 198.304V202.216C108.205 202.216 109.717 201.904 111.325 201.112C110.845 200.776 110.365 200.344 110.077 199.912L110.581 199.48C112.741 201.76 114.805 202.12 117.493 202.12V198.304C116.269 198.304 115.621 197.944 115.453 196.984H117.493V193.312H106.141V196.984ZM117.949 200.752H119.077V202.168H126.493V193.312H119.077V195.088H117.949V200.752ZM114.829 213.352C119.341 213.352 123.421 213.136 126.493 212.32V207.88C124.453 208.576 121.909 208.912 119.533 208.912V208.312C121.909 208.312 124.453 207.976 126.493 207.28V202.768H106.141V206.56C108.637 206.56 110.797 206.392 113.101 205.912V206.512C110.797 206.992 108.637 207.16 106.141 207.16V208.264C106.141 211.504 109.117 213.352 114.829 213.352ZM140.231 197.704H127.919V193.792H129.527C129.719 194.584 130.943 195.616 131.927 195.664L132.239 195.184C130.919 194.968 130.031 194.08 130.031 193.264V192.424H138.095V193.792H140.231V197.704ZM140.855 208V193.312H147.311V197.248H149.135V202.912H147.311V206.896C145.631 207.592 142.703 208.12 140.855 208ZM127.919 202.072C127.919 199.72 129.383 198.136 134.159 198.136C138.959 198.136 140.423 199.72 140.423 202.072C140.423 204.352 138.959 205.96 134.159 205.96C129.383 205.96 127.919 204.376 127.919 202.072ZM131.783 200.992L131.351 201.64C132.935 202.36 134.903 202.72 136.703 202.72V202C134.903 202 133.199 201.568 131.783 200.992ZM128.303 206.44H135.263C135.263 207.688 136.535 208.648 139.007 208.744C142.031 208.84 144.911 208.648 147.311 207.688V212.272C144.503 213.04 142.247 213.352 138.431 213.352C131.303 213.352 127.487 212.08 128.303 206.44ZM156.616 204.016V198.568C160.936 198.328 162.712 197.08 162.712 194.728V193.312H170.824V194.728C170.824 197.08 172.648 198.328 176.968 198.568V204.016C170.992 204.016 168.328 203.56 164.752 201.232L163.912 201.664C164.464 202.072 165.184 202.432 165.976 202.768C163.312 203.56 160.528 204.04 156.616 204.016ZM170.488 213.016H163.096V209.608H156.616V204.52H176.968V209.608H170.488V213.016ZM178.394 202.264V193.312H190.898V194.176H191.81V193.312H198.746V206.176C197.066 206.872 193.658 207.4 191.81 207.28V203.464H190.898V204.328H180.458C179.018 204.328 178.394 203.704 178.394 202.264ZM182.546 197.992L182.234 198.688C183.77 199.216 185.354 199.48 187.106 199.48V198.784C185.474 198.784 184.01 198.472 182.546 197.992ZM193.154 198.856L192.842 198.16C191.81 198.568 190.874 198.784 189.482 198.784V199.48C190.994 199.48 192.05 199.312 193.154 198.856ZM178.778 205H185.738C185.738 206.968 187.01 207.952 189.482 208.024C192.986 208.12 196.346 207.928 198.746 206.968V212.272C195.938 213.04 193.202 213.352 188.906 213.352C181.778 213.352 177.962 211.36 178.778 205ZM206.611 213.016V207.184C207.931 206.824 209.155 205.72 209.155 203.392V193.312H216.835V203.392C216.835 205.72 217.963 206.824 219.403 207.184V213.016C216.715 213.016 213.931 212.56 211.771 210.28L211.267 210.712C211.603 211.096 212.035 211.456 212.515 211.792C210.907 212.56 208.675 213.016 206.611 213.016ZM227.443 213.016H220.027V193.312H227.443V213.016ZM228.869 204.376V199.192C230.309 199.264 233.069 199.12 234.437 198.688V197.968C233.069 198.4 230.309 198.544 228.869 198.472V193.312H240.893V196.84C240.893 203.512 238.109 204.856 228.869 204.376ZM241.805 207.28V193.312H248.261V196.288H250.061V201.952H248.261V206.176C246.581 206.872 243.653 207.4 241.805 207.28ZM229.253 205H236.213C236.213 206.968 237.485 207.928 239.957 208.024C242.981 208.12 245.861 207.928 248.261 206.968V212.272C245.453 213.04 243.197 213.352 239.381 213.352C232.253 213.352 228.437 211.36 229.253 205ZM250.432 197.608C250.432 194.344 253.768 192.952 260.824 192.952C267.88 192.952 271.216 194.344 271.216 197.608C271.216 200.872 267.88 202.264 260.824 202.264C253.768 202.264 250.432 200.872 250.432 197.608ZM258.208 196.864L257.944 197.584C259.792 198.16 261.976 198.376 263.776 198.376V197.656C261.976 197.656 260.008 197.368 258.208 196.864ZM250.648 206.944V202.72H271V206.944H250.648ZM250.768 207.496H257.68C257.512 208.504 258.352 209.104 260.68 209.128C264.544 209.176 267.544 208.936 271 208.072V212.248C267.832 213.088 264.76 213.352 260.68 213.352C252.856 213.352 250.288 211.672 250.768 207.496ZM278.882 213.016H274.13C273.05 213.016 272.426 212.584 272.426 211.48V206.752H278.882V213.016ZM286.761 213.016H282.009C280.929 213.016 280.305 212.584 280.305 211.48V206.752H286.761V213.016ZM294.641 213.016H289.889C288.809 213.016 288.185 212.584 288.185 211.48V206.752H294.641V213.016Z" fill="white"/>
<path d="M-26.6774 242.487C-24.1977 242.486 -21.724 242.733 -19.2927 243.223C-16.7649 235.887 -12.0337 229.52 -5.75229 225.002C0.529137 220.484 8.05093 218.037 15.7746 218C23.4982 217.964 31.0428 220.338 37.3666 224.796C43.6904 229.254 48.4816 235.575 51.0785 242.887C56.0324 243.613 60.7903 245.334 65.0687 247.947C69.3471 250.56 73.0584 254.012 75.9815 258.097C78.9046 262.183 80.9796 266.818 82.0829 271.727C83.1862 276.636 83.2952 281.717 82.4034 286.669C81.5116 291.621 79.6373 296.342 76.8921 300.551C74.1469 304.759 70.5871 308.369 66.4247 311.165C62.2624 313.961 57.5826 315.886 52.6645 316.825C47.7463 317.765 42.6903 317.699 37.7978 316.633C34.2457 320.543 29.9195 323.663 25.097 325.793C20.2745 327.922 15.0622 329.015 9.79482 329C4.52746 328.985 -0.678589 327.863 -5.48906 325.706C-10.2995 323.549 -14.6081 320.404 -18.1382 316.474C-23.2605 317.689 -28.5805 317.8 -33.7486 316.8C-38.9167 315.801 -43.8159 313.713 -48.1241 310.674C-52.4324 307.636 -56.0521 303.715 -58.7455 299.17C-61.4389 294.624 -63.1449 289.558 -63.7515 284.302C-64.358 279.047 -63.8513 273.722 -62.2647 268.678C-60.6781 263.633 -58.0476 258.984 -54.5459 255.034C-51.0442 251.085 -46.7507 247.925 -41.9475 245.762C-37.1444 243.6 -31.9403 242.483 -26.6774 242.487Z" fill="#C6C7DB" fill-opacity="0.5"/>
<path opacity="0.5" d="M107.362 108.358L109.822 103.868C109.974 103.604 110.192 103.385 110.456 103.233C110.719 103.08 111.018 103 111.322 103C111.626 103 111.925 103.08 112.189 103.233C112.452 103.385 112.671 103.604 112.822 103.868L115.302 108.358L119.792 110.808C120.065 110.958 120.293 111.179 120.452 111.447C120.611 111.715 120.694 112.021 120.694 112.333C120.694 112.645 120.611 112.951 120.452 113.219C120.293 113.487 120.065 113.708 119.792 113.858L115.302 116.308L112.852 120.798C112.701 121.062 112.482 121.281 112.219 121.434C111.955 121.586 111.656 121.666 111.352 121.666C111.048 121.666 110.749 121.586 110.486 121.434C110.222 121.281 110.004 121.062 109.852 120.798L107.392 116.308L102.902 113.858C102.629 113.708 102.401 113.487 102.242 113.219C102.084 112.951 102 112.645 102 112.333C102 112.021 102.084 111.715 102.242 111.447C102.401 111.179 102.629 110.958 102.902 110.808L107.362 108.358Z" fill="#999EC6"/>
<path opacity="0.5" d="M247.358 241.358L249.808 236.868C249.96 236.604 250.178 236.385 250.442 236.233C250.705 236.08 251.004 236 251.308 236C251.612 236 251.911 236.08 252.175 236.233C252.438 236.385 252.656 236.604 252.808 236.868L255.268 241.358L259.758 243.808C260.022 243.96 260.241 244.178 260.394 244.442C260.546 244.705 260.626 245.004 260.626 245.308C260.626 245.612 260.546 245.911 260.394 246.175C260.241 246.438 260.022 246.656 259.758 246.808L255.268 249.268L252.808 253.748C252.656 254.012 252.438 254.231 252.175 254.384C251.911 254.536 251.612 254.616 251.308 254.616C251.004 254.616 250.705 254.536 250.442 254.384C250.178 254.231 249.96 254.012 249.808 253.748L247.358 249.268L242.868 246.808C242.604 246.656 242.385 246.438 242.233 246.175C242.08 245.911 242 245.612 242 245.308C242 245.004 242.08 244.705 242.233 244.442C242.385 244.178 242.604 243.96 242.868 243.808L247.358 241.358Z" fill="#999EC6"/>
<path opacity="0.5" d="M63 221C65.7614 221 68 218.761 68 216C68 213.239 65.7614 211 63 211C60.2386 211 58 213.239 58 216C58 218.761 60.2386 221 63 221Z" fill="#999EC6"/>
<path opacity="0.5" d="M261 122C263.761 122 266 119.761 266 117C266 114.239 263.761 112 261 112C258.239 112 256 114.239 256 117C256 119.761 258.239 122 261 122Z" fill="#999EC6"/>
<path opacity="0.5" d="M188 280C190.761 280 193 277.761 193 275C193 272.239 190.761 270 188 270C185.239 270 183 272.239 183 275C183 277.761 185.239 280 188 280Z" fill="#999EC6"/>
<path opacity="0.5" d="M321 270C323.761 270 326 267.761 326 265C326 262.239 323.761 260 321 260C318.239 260 316 262.239 316 265C316 267.761 318.239 270 321 270Z" fill="#999EC6"/>
<path opacity="0.5" d="M119 270C120.657 270 122 268.657 122 267C122 265.343 120.657 264 119 264C117.343 264 116 265.343 116 267C116 268.657 117.343 270 119 270Z" fill="#999EC6"/>
<path opacity="0.5" d="M41 153C42.6569 153 44 151.657 44 150C44 148.343 42.6569 147 41 147C39.3431 147 38 148.343 38 150C38 151.657 39.3431 153 41 153Z" fill="#999EC6"/>
<path d="M403.384 122.808C400.752 122.806 398.126 123.066 395.546 123.584C392.861 115.851 387.838 109.141 381.17 104.379C374.503 99.6175 366.519 97.0393 358.321 97.0004C350.123 96.9616 342.115 99.464 335.402 104.162C328.689 108.86 323.603 115.523 320.844 123.23C315.59 123.999 310.544 125.817 306.007 128.573C301.47 131.33 297.535 134.969 294.437 139.275C291.338 143.581 289.139 148.466 287.97 153.638C286.802 158.81 286.687 164.163 287.634 169.38C288.581 174.597 290.57 179.571 293.482 184.005C296.394 188.439 300.17 192.242 304.585 195.189C309 198.136 313.964 200.166 319.181 201.158C324.399 202.15 329.762 202.085 334.954 200.964C338.723 205.086 343.315 208.374 348.433 210.619C353.552 212.864 359.084 214.016 364.674 214C370.265 213.984 375.79 212.801 380.896 210.528C386.001 208.254 390.574 204.939 394.32 200.797C399.757 202.077 405.404 202.194 410.89 201.141C416.376 200.087 421.576 197.886 426.149 194.683C430.722 191.48 434.564 187.348 437.423 182.556C440.282 177.765 442.092 172.425 442.736 166.885C443.38 161.345 442.842 155.733 441.158 150.415C439.474 145.098 436.682 140.197 432.965 136.034C429.248 131.87 424.691 128.54 419.593 126.26C414.494 123.981 408.97 122.804 403.384 122.808Z" fill="#C6C7DB" fill-opacity="0.5"/>
</g>
<defs>
<clipPath id="clip0_510_9646">
<rect width="375" height="812" fill="white"/>
</clipPath>
</defs>
</svg>
