<svg width="355" height="229" viewBox="0 0 355 229" fill="none" xmlns="http://www.w3.org/2000/svg">
<rect y="91" width="335" height="60" rx="8" fill="#FEECC3"/>
<path d="M204.875 135.875L205.732 134.304C205.785 134.211 205.861 134.135 205.953 134.081C206.046 134.028 206.15 134 206.257 134C206.363 134 206.468 134.028 206.56 134.081C206.652 134.135 206.728 134.211 206.781 134.304L207.642 135.875L209.213 136.732C209.305 136.785 209.382 136.861 209.435 136.953C209.489 137.046 209.517 137.15 209.517 137.257C209.517 137.363 209.489 137.468 209.435 137.56C209.382 137.652 209.305 137.728 209.213 137.781L207.642 138.642L206.781 140.209C206.728 140.302 206.652 140.378 206.56 140.432C206.468 140.485 206.363 140.513 206.257 140.513C206.15 140.513 206.046 140.485 205.953 140.432C205.861 140.378 205.785 140.302 205.732 140.209L204.875 138.642L203.304 137.781C203.211 137.728 203.135 137.652 203.081 137.56C203.028 137.468 203 137.363 203 137.257C203 137.15 203.028 137.046 203.081 136.953C203.135 136.861 203.211 136.785 203.304 136.732L204.875 135.875Z" fill="white"/>
<path d="M243.529 137.058C244.925 137.058 246.058 135.925 246.058 134.529C246.058 133.132 244.925 132 243.529 132C242.132 132 241 133.132 241 134.529C241 135.925 242.132 137.058 243.529 137.058Z" fill="white"/>
<path d="M215.529 107.058C216.373 107.058 217.058 106.373 217.058 105.529C217.058 104.684 216.373 104 215.529 104C214.684 104 214 104.684 214 105.529C214 106.373 214.684 107.058 215.529 107.058Z" fill="white"/>
<g clip-path="url(#clip0_325_8381)">
<mask id="mask0_325_8381" style="mask-type:alpha" maskUnits="userSpaceOnUse" x="0" y="91" width="335" height="60">
<rect x="6.10352e-05" y="91" width="335" height="60" rx="8" fill="#FEECC3"/>
</mask>
<g mask="url(#mask0_325_8381)">
<path d="M333.813 74.7025C319.186 60.2221 301.814 62.2414 287.124 64.7003C277.924 66.2402 267.592 74.6809 260.66 86.9471C254.752 97.7989 252.255 110.329 253.514 122.81C254.202 129.667 256.302 136.309 259.671 142.286C263.04 148.262 267.6 153.432 273.04 157.445C283.89 165.672 304.048 167.264 317.409 163.52C329.955 160.008 334.798 154.675 342.294 144.694C346.395 139.395 349.357 133.239 350.986 126.634C352.614 120.028 352.872 113.121 351.743 106.368C349.519 93.4446 348.878 89.6171 333.813 74.7025Z" fill="#FBC037"/>
</g>
<path d="M280.189 115.818C278.627 116.694 276.862 117.14 275.072 117.112C273.282 117.083 271.532 116.58 270 115.654" stroke="black" stroke-width="2.67492" stroke-linecap="round" stroke-linejoin="round"/>
<path d="M302.76 116.125C301.199 117.001 299.434 117.447 297.644 117.418C295.854 117.389 294.104 116.887 292.572 115.961" stroke="black" stroke-width="2.67492" stroke-linecap="round" stroke-linejoin="round"/>
<path d="M292.186 126.066C291.618 127.062 290.688 127.801 289.589 128.128C288.55 128.418 287.466 128.506 286.395 128.386C285.403 128.393 284.42 128.202 283.503 127.823C282.586 127.445 281.755 126.886 281.058 126.181" stroke="black" stroke-width="2.67492" stroke-linecap="round" stroke-linejoin="round"/>
<path d="M235.43 98.4286L236.545 96.3935C236.614 96.2739 236.713 96.1745 236.833 96.1055C236.952 96.0364 237.087 96 237.225 96C237.363 96 237.499 96.0364 237.618 96.1055C237.737 96.1745 237.836 96.2739 237.905 96.3935L239.029 98.4286L241.064 99.5391C241.188 99.6071 241.291 99.7071 241.363 99.8287C241.435 99.9503 241.473 100.089 241.473 100.23C241.473 100.372 241.435 100.51 241.363 100.632C241.291 100.753 241.188 100.853 241.064 100.921L239.029 102.032L237.919 104.067C237.85 104.187 237.751 104.286 237.632 104.355C237.512 104.424 237.377 104.461 237.239 104.461C237.101 104.461 236.966 104.424 236.846 104.355C236.727 104.286 236.628 104.187 236.559 104.067L235.444 102.032L233.409 100.921C233.285 100.853 233.182 100.753 233.11 100.632C233.038 100.51 233 100.372 233 100.23C233 100.089 233.038 99.9503 233.11 99.8287C233.182 99.7071 233.285 99.6071 233.409 99.5391L235.43 98.4286Z" fill="white"/>
</g>
<defs>
<clipPath id="clip0_325_8381">
<rect width="200.193" height="198.35" fill="white" transform="translate(220 33.0498) rotate(-9.50242)"/>
</clipPath>
</defs>
</svg>
