<svg width="414" height="670" viewBox="0 0 414 670" fill="none" xmlns="http://www.w3.org/2000/svg">
<g clip-path="url(#clip0_795_15593)">
<path d="M300.772 243.232C285.12 222.357 262.406 221.261 243.037 221.261C230.907 221.261 215.843 229.537 204.319 243.232C194.412 255.394 188.52 270.329 187.455 285.98C186.865 294.578 188.132 303.202 191.17 311.267C194.208 319.332 198.947 326.648 205.063 332.72C217.212 345.104 242.724 351.228 260.665 349.369C277.51 347.628 284.866 342.052 296.624 331.291C303.022 325.603 308.142 318.624 311.649 310.814C315.156 303.005 316.97 294.541 316.971 285.98C316.893 269.585 316.893 264.733 300.772 243.232Z" fill="#9B9EE7"/>
<path d="M230.79 287.565C228.86 288.26 226.78 288.43 224.763 288.059C222.745 287.688 220.862 286.789 219.306 285.453" stroke="#3B3B3B" stroke-width="4" stroke-linecap="round" stroke-linejoin="round"/>
<path d="M256.242 292.182C254.312 292.877 252.232 293.047 250.215 292.676C248.197 292.305 246.314 291.405 244.758 290.069" stroke="#3B3B3B" stroke-width="4" stroke-linecap="round" stroke-linejoin="round"/>
<path d="M242.411 301.416C241.58 302.435 240.389 303.093 239.085 303.256C237.856 303.387 236.614 303.281 235.426 302.943C234.304 302.763 233.229 302.361 232.264 301.76C231.3 301.158 230.466 300.37 229.811 299.44" stroke="#3B3B3B" stroke-width="4" stroke-linecap="round" stroke-linejoin="round"/>
</g>
<path d="M93.7749 91.844C93.7749 82.968 96.6029 79.944 101.055 79.944C105.535 79.944 108.363 82.968 108.363 91.844C108.363 100.692 105.535 103.744 101.055 103.744C96.6029 103.744 93.7749 100.72 93.7749 91.844ZM116.679 103.352H109.147V80.364H116.679V87.672H118.807V94.28H116.679V103.352ZM98.4229 90.388L97.9189 91.144C99.7669 91.984 102.063 92.404 104.163 92.404V91.564C102.063 91.564 100.075 91.06 98.4229 90.388ZM119.813 85.488H122.501C122.473 87.028 121.325 87.588 119.813 87.588V92.712C122.221 92.712 124.545 92.348 126.421 91.424C125.861 91.032 125.301 90.528 124.965 90.024L125.553 89.52C128.073 92.18 131.041 92.712 134.177 92.712V87.588C132.525 87.588 131.489 87.028 131.461 85.488H134.177V80.364H119.813V85.488ZM143.557 92.656V80.364H134.905V92.656H143.557ZM119.813 99.628H134.905V103.352H143.557V93.412H119.813V99.628ZM177.736 103.352H169.644V80.364H177.736V103.352ZM153.992 103.352V96.044C158.78 95.54 160.488 93.02 160.488 86.972C158.472 87.476 156.232 87.672 153.992 87.588V80.364H168.58V87.756C168.58 98.312 163.092 102.792 153.992 103.352ZM203.494 96.128H179.75V91.48H187.31V90.752H183.194C180.926 90.752 179.75 89.968 179.75 88.148V85.208C182.942 85.208 184.986 85.012 188.122 84.452V83.696C184.986 84.256 182.942 84.452 179.75 84.452V80.364H203.494V84.704C201.114 85.292 197.894 85.348 195.682 85.348V86.104C197.894 86.104 201.114 86.048 203.494 85.46V90.08C201.73 90.36 198.902 90.64 195.934 90.724V91.48H203.494V96.128ZM179.75 101.476V96.828H203.494V103.352H195.094V101.476H179.75ZM205.228 91.844C205.228 82.968 208.056 79.944 212.788 79.944C217.548 79.944 220.376 82.968 220.376 91.844C220.376 100.692 217.548 103.744 212.788 103.744C208.056 103.744 205.228 100.72 205.228 91.844ZM229.252 103.352H221.16V80.364H229.252V103.352ZM210.156 90.388L209.652 91.144C211.5 91.984 213.796 92.404 215.896 92.404V91.564C213.796 91.564 211.808 91.06 210.156 90.388ZM239.408 85.908C239.408 82.352 241.816 79.944 247.108 79.944C250.412 79.944 252.596 80.868 253.772 82.436H255.34V80.364H263.432V91.816H255.34V89.044H253.996C252.876 90.808 250.636 91.872 247.108 91.872C241.816 91.872 239.408 89.464 239.408 85.908ZM244.672 84.984L244.308 85.796C246.1 86.412 247.948 86.72 249.992 86.72V85.908C248.088 85.908 246.38 85.544 244.672 84.984ZM253.072 103.352V97.416C253.772 97.136 254.724 96.24 254.724 94.336V92.516H262.788V94.336C262.788 96.24 263.74 97.136 264.44 97.416V103.352C261.976 103.352 259.54 101.952 257.804 100.3L257.216 100.804C257.72 101.364 258.364 102.036 259.232 102.456C256.964 103.1 255.116 103.38 253.072 103.352ZM239.688 99.376V92.516H245.652V93.832H246.464V92.516H252.4V103.352H244.504C241.284 103.352 239.688 102.064 239.688 99.376ZM243.636 97.444L243.3 98.256C244.952 98.676 246.464 98.9 248.144 98.956L248.172 98.144C246.492 98.088 245.148 97.892 243.636 97.444ZM265.166 91.844C265.166 82.968 267.994 79.944 272.726 79.944C276.59 79.944 279.166 81.932 280.006 87.392H281.098V80.364H289.19V103.352H281.098V95.372H280.146C279.446 101.532 276.786 103.744 272.726 103.744C267.994 103.744 265.166 100.72 265.166 91.844ZM270.094 90.388L269.59 91.144C271.438 91.984 273.734 92.404 275.834 92.404V91.564C273.734 91.564 271.746 91.06 270.094 90.388ZM290.951 87.672C290.951 83.164 294.983 79.944 303.075 79.944C311.167 79.944 315.199 83.164 315.199 87.672C315.199 89.828 314.275 91.704 312.427 93.048V97.136H314.947V103.352H291.203V97.136H293.723V93.048C291.875 91.704 290.951 89.828 290.951 87.672ZM299.743 86.608L299.435 87.448C301.591 88.12 304.699 88.372 306.799 88.372V87.532C304.699 87.532 301.843 87.196 299.743 86.608ZM300.583 95.092L300.275 95.932C302.151 96.604 304.139 96.856 305.959 96.856V96.016C304.139 96.016 302.403 95.68 300.583 95.092Z" fill="white"/>
<g clip-path="url(#clip1_795_15593)">
<path d="M133.674 248.47H133.398C134.254 243.11 133.147 237.621 130.28 233.012C127.414 228.402 122.979 224.983 117.793 223.381C112.607 221.779 107.016 222.103 102.05 224.294C97.0831 226.484 93.0738 230.393 90.7586 235.302C88.1325 233.855 85.1945 233.067 82.1967 233.006C79.199 232.945 76.2312 233.612 73.5481 234.95C70.8651 236.289 68.547 238.259 66.7929 240.69C65.0388 243.122 63.9011 245.943 63.4775 248.911C60.4749 247.679 57.114 247.646 54.0878 248.819C51.0616 249.992 48.6008 252.282 47.2129 255.216H145.053C143.936 253.174 142.29 251.47 140.288 250.283C138.286 249.096 136.001 248.47 133.674 248.47Z" fill="#E8F5F9"/>
<path d="M133.619 248.47C133.571 249.037 133.508 249.597 133.422 250.156L133.051 252.52L135.415 252.465H135.652C138.336 252.467 140.928 253.448 142.941 255.223H145.045C143.926 253.184 142.279 251.484 140.277 250.3C138.275 249.116 135.992 248.492 133.666 248.494L133.619 248.47Z" fill="#C2DAFF"/>
<path d="M60.6405 251.945C62.0345 251.939 63.4161 252.207 64.7067 252.733L67.0707 253.703L67.4253 251.173C67.8062 248.524 68.8236 246.007 70.3905 243.838C71.9574 241.669 74.027 239.912 76.4218 238.718C78.8167 237.524 81.4653 236.929 84.1407 236.983C86.8161 237.037 89.4384 237.74 91.7829 239.03L93.6347 240.046L94.5409 238.139C96.4985 233.985 99.7918 230.607 103.895 228.545C107.998 226.483 112.674 225.855 117.175 226.762C121.677 227.67 125.744 230.06 128.728 233.551C131.711 237.041 133.439 241.431 133.634 246.019C133.634 245.649 133.634 245.279 133.634 244.9C133.635 239.78 131.892 234.812 128.693 230.814C125.493 226.816 121.028 224.028 116.031 222.906C111.035 221.785 105.806 222.399 101.205 224.646C96.6045 226.894 92.9061 230.641 90.7191 235.271C88.093 233.824 85.1549 233.036 82.1572 232.975C79.1594 232.913 76.1916 233.58 73.5086 234.919C70.8255 236.257 68.5074 238.227 66.7533 240.659C64.9992 243.09 63.8615 245.912 63.438 248.88C60.4353 247.648 57.0744 247.615 54.0482 248.788C51.022 249.961 48.5612 252.25 47.1733 255.184H52.981C53.9781 254.162 55.1691 253.349 56.4843 252.793C57.7996 252.236 59.2125 251.948 60.6405 251.945Z" fill="#99C2FF"/>
</g>
<g clip-path="url(#clip2_795_15593)">
<path d="M323.843 157.24C325.783 154.323 326.485 150.754 325.794 147.319C325.103 143.885 323.075 140.865 320.158 138.925C317.241 136.985 313.672 136.283 310.237 136.974C306.803 137.666 303.783 139.693 301.843 142.61C301.443 142.34 301.033 142.09 300.603 141.85C298.047 140.463 295.162 139.797 292.257 139.922C289.351 140.046 286.534 140.958 284.106 142.558C281.678 144.159 279.73 146.388 278.471 149.009C277.211 151.63 276.686 154.544 276.953 157.44H276.883C275.278 157.436 273.701 157.861 272.315 158.672C270.929 159.482 269.786 160.649 269.003 162.05H331.903C331.112 160.601 329.948 159.39 328.53 158.544C327.112 157.698 325.494 157.248 323.843 157.24Z" fill="#C2DAFF"/>
</g>
<path d="M352.053 244.5C322.553 248 294.85 271.289 294.85 300.018C294.858 309.341 297.523 318.469 302.533 326.331C296.117 321.89 288.489 319.534 280.687 319.584C265.48 319.584 252.505 328.205 247.37 340.338C233.6 328.84 216.191 322.611 198.253 322.766C170.929 322.766 147.208 336.549 135.21 356.802C126.564 346.24 114.288 339.639 100.652 339.639C75.1364 339.639 54.3464 362.677 53.3168 391.525C45.1461 388.709 36.5619 387.282 27.92 387.3C13.4083 387.148 -0.825686 391.281 -13 399.182L-13 688.694L416.053 689.5V258.853C416.053 258.5 416.5 256.5 415 255C413.5 253.5 408.5 250.5 390.553 247C381.982 245.328 361.553 243.373 352.053 244.5Z" fill="#BDBFE7"/>
<path d="M367.553 257.5C336.784 257.5 309.87 283.726 309.87 312.455C309.878 321.778 312.543 330.906 317.553 338.768C311.137 334.327 291.855 331.95 284.053 332C268.846 332 256.558 344.208 251.423 356.341C237.652 344.842 220.244 338.614 202.306 338.768C174.982 338.768 151.261 352.552 139.262 372.804C130.616 362.242 118.34 355.641 104.705 355.641C79.1891 355.641 58.3992 378.679 57.3696 407.527C49.1988 404.711 40.6147 403.283 31.9727 403.302C17.4611 403.15 3.22705 407.283 -8.94727 415.184V680.695L420.106 681.5V274.855V268C420.106 268 415 264.429 403 261C388.744 256.927 375.835 257.429 367.553 257.5Z" fill="#9B9EE7"/>
<path d="M383 271.5C352.231 271.5 328.002 295.878 328.002 324.607C328.01 333.93 330.043 346.471 335.053 354.333C328.637 349.892 310.553 340.935 287.553 344.499C264.553 348.064 262.558 359.772 257.423 371.905C243.653 360.406 226.244 354.178 208.306 354.333C180.982 354.333 157.261 368.116 145.263 388.369C136.617 377.807 124.341 371.205 110.705 371.205C85.1895 371.205 64.3995 394.243 63.3699 423.091C55.1992 420.276 46.615 418.848 37.9731 418.866C23.4614 418.714 9.22738 422.848 -2.94693 430.748L-2.94727 669.694L426.106 670.5L426.106 290.419L423.553 283L415.293 278C409 273.5 396.78 271.5 383 271.5Z" fill="#696CAA"/>
<path d="M264.929 14.8798L267.166 10.7906C267.304 10.5503 267.503 10.3507 267.742 10.2119C267.981 10.0731 268.253 10 268.53 10C268.807 10 269.079 10.0731 269.318 10.2119C269.557 10.3507 269.756 10.5503 269.894 10.7906L272.149 14.8798L276.232 17.1111C276.481 17.2478 276.688 17.4488 276.832 17.6931C276.977 17.9375 277.053 18.2161 277.053 18.5C277.053 18.7839 276.977 19.0625 276.832 19.3068C276.688 19.5512 276.481 19.7522 276.232 19.8889L272.149 22.1202L269.921 26.2094C269.783 26.4497 269.585 26.6493 269.345 26.7881C269.106 26.9269 268.834 27 268.557 27C268.281 27 268.009 26.9269 267.769 26.7881C267.53 26.6493 267.331 26.4497 267.193 26.2094L264.956 22.1202L260.873 19.8889C260.625 19.7522 260.418 19.5512 260.273 19.3068C260.129 19.0625 260.053 18.7839 260.053 18.5C260.053 18.2161 260.129 17.9375 260.273 17.6931C260.418 17.4488 260.625 17.2478 260.873 17.1111L264.929 14.8798Z" fill="#999EC6"/>
<path d="M334.356 94.3L336.339 90.698C336.462 90.4858 336.638 90.3096 336.85 90.1871C337.062 90.0645 337.303 90 337.549 90C337.794 90 338.035 90.0645 338.247 90.1871C338.46 90.3096 338.636 90.4858 338.758 90.698L340.733 94.3L344.353 96.2779C344.566 96.3998 344.742 96.5755 344.865 96.7872C344.988 96.999 345.053 97.2393 345.053 97.4839C345.053 97.7286 344.988 97.9689 344.865 98.1806C344.742 98.3924 344.566 98.5681 344.353 98.69L340.733 100.66L338.814 104.302C338.692 104.514 338.516 104.69 338.304 104.813C338.091 104.935 337.85 105 337.605 105C337.36 105 337.119 104.935 336.907 104.813C336.694 104.69 336.518 104.514 336.396 104.302L334.413 100.692L330.753 98.7221C330.54 98.6002 330.363 98.4245 330.24 98.2128C330.117 98.0011 330.053 97.7607 330.053 97.5161C330.053 97.2714 330.117 97.0311 330.24 96.8194C330.363 96.6076 330.54 96.4319 330.753 96.31L334.356 94.3Z" fill="#999EC6"/>
<path d="M57.4108 106.108L59.8608 101.618C60.0124 101.354 60.2309 101.135 60.4943 100.983C60.7576 100.83 61.0565 100.75 61.3608 100.75C61.6651 100.75 61.964 100.83 62.2274 100.983C62.4907 101.135 62.7092 101.354 62.8608 101.618L65.3208 106.108L69.8108 108.558C70.0747 108.71 70.2938 108.928 70.4462 109.192C70.5987 109.455 70.6789 109.754 70.6789 110.058C70.6789 110.362 70.5987 110.661 70.4462 110.925C70.2938 111.188 70.0747 111.406 69.8108 111.558L65.3208 114.018L62.8608 118.498C62.7092 118.762 62.4907 118.981 62.2274 119.133C61.964 119.286 61.6651 119.366 61.3608 119.366C61.0565 119.366 60.7576 119.286 60.4943 119.133C60.2309 118.981 60.0124 118.762 59.8608 118.498L57.4108 114.018L52.9208 111.558C52.657 111.406 52.4378 111.188 52.2854 110.925C52.133 110.661 52.0527 110.362 52.0527 110.058C52.0527 109.754 52.133 109.455 52.2854 109.192C52.4378 108.928 52.657 108.71 52.9208 108.558L57.4108 106.108Z" fill="#999EC6"/>
<path d="M143.411 177.358L145.861 172.868C146.012 172.604 146.231 172.385 146.494 172.233C146.758 172.08 147.057 172 147.361 172C147.665 172 147.964 172.08 148.227 172.233C148.491 172.385 148.709 172.604 148.861 172.868L151.321 177.358L155.811 179.808C156.075 179.96 156.294 180.178 156.446 180.442C156.599 180.705 156.679 181.004 156.679 181.308C156.679 181.612 156.599 181.911 156.446 182.175C156.294 182.438 156.075 182.656 155.811 182.808L151.321 185.268L148.861 189.748C148.709 190.012 148.491 190.231 148.227 190.383C147.964 190.536 147.665 190.616 147.361 190.616C147.057 190.616 146.758 190.536 146.494 190.383C146.231 190.231 146.012 190.012 145.861 189.748L143.411 185.268L138.921 182.808C138.657 182.656 138.438 182.438 138.285 182.175C138.133 181.911 138.053 181.612 138.053 181.308C138.053 181.004 138.133 180.705 138.285 180.442C138.438 180.178 138.657 179.96 138.921 179.808L143.411 177.358Z" fill="#999EC6"/>
<path d="M217.053 155C218.71 155 220.053 153.657 220.053 152C220.053 150.343 218.71 149 217.053 149C215.396 149 214.053 150.343 214.053 152C214.053 153.657 215.396 155 217.053 155Z" fill="#999EC6"/>
<path d="M89.0527 46C91.8142 46 94.0527 43.7614 94.0527 41C94.0527 38.2386 91.8142 36 89.0527 36C86.2913 36 84.0527 38.2386 84.0527 41C84.0527 43.7614 86.2913 46 89.0527 46Z" fill="#999EC6"/>
<path d="M325.053 10C327.814 10 330.053 7.76142 330.053 5C330.053 2.23858 327.814 0 325.053 0C322.291 0 320.053 2.23858 320.053 5C320.053 7.76142 322.291 10 325.053 10Z" fill="#999EC6"/>
<path d="M160.053 52C161.71 52 163.053 50.6569 163.053 49C163.053 47.3431 161.71 46 160.053 46C158.396 46 157.053 47.3431 157.053 49C157.053 50.6569 158.396 52 160.053 52Z" fill="#999EC6"/>
<path d="M214.053 27C215.157 27 216.053 26.1046 216.053 25C216.053 23.8954 215.157 23 214.053 23C212.948 23 212.053 23.8954 212.053 25C212.053 26.1046 212.948 27 214.053 27Z" fill="#999EC6"/>
<defs>
<clipPath id="clip0_795_15593">
<rect width="153.412" height="152" fill="white" transform="translate(178.053 212)"/>
</clipPath>
<clipPath id="clip1_795_15593">
<rect width="97.84" height="32.7893" fill="white" transform="translate(47.2129 222.41)"/>
</clipPath>
<clipPath id="clip2_795_15593">
<rect width="62.9" height="25.05" fill="white" transform="translate(269.053 137)"/>
</clipPath>
</defs>
</svg>
