<svg width="336" height="107" viewBox="0 0 336 107" fill="none" xmlns="http://www.w3.org/2000/svg">
<rect width="336.001" height="107" rx="12" fill="#3A3E74"/>
<mask id="mask0_429_8321" style="mask-type:alpha" maskUnits="userSpaceOnUse" x="0" y="0" width="335" height="107">
<rect width="335" height="107" rx="12" fill="#3A3E74"/>
</mask>
<g mask="url(#mask0_429_8321)">
<path d="M239.785 39.079C242.256 39.0779 244.72 39.3493 247.142 39.8894C249.66 31.8161 254.373 24.8101 260.63 19.8385C266.888 14.867 274.38 12.1751 282.074 12.1345C289.769 12.0939 297.284 14.7067 303.584 19.6121C309.883 24.5175 314.656 31.4735 317.243 39.5198C322.178 40.3181 326.918 42.2114 331.18 45.0868C335.441 47.9623 339.139 51.761 342.05 56.2566C344.962 60.7522 347.029 65.8528 348.128 71.2542C349.227 76.6557 349.336 82.2476 348.448 87.6967C347.559 93.1458 345.692 98.3405 342.958 102.971C340.223 107.602 336.677 111.574 332.53 114.651C328.384 117.728 323.722 119.846 318.823 120.88C313.924 121.914 308.887 121.842 304.013 120.668C300.475 124.971 296.165 128.404 291.361 130.747C286.557 133.091 281.365 134.293 276.118 134.277C270.87 134.26 265.684 133.025 260.892 130.652C256.1 128.278 251.808 124.818 248.292 120.493C243.189 121.83 237.89 121.952 232.741 120.852C227.593 119.752 222.713 117.455 218.421 114.111C214.129 110.768 210.523 106.453 207.84 101.452C205.157 96.4503 203.458 90.875 202.854 85.0921C202.249 79.3093 202.754 73.4499 204.335 67.8991C205.915 62.3484 208.536 57.2318 212.024 52.8858C215.512 48.5398 219.789 45.0628 224.574 42.6831C229.359 40.3035 234.543 39.0752 239.785 39.079Z" fill="#C6C7DB"/>
</g>
<mask id="mask1_429_8321" style="mask-type:alpha" maskUnits="userSpaceOnUse" x="0" y="0" width="337" height="107">
<rect width="336.001" height="107" rx="12" fill="#3A3E74"/>
</mask>
<g mask="url(#mask1_429_8321)">
<path d="M240.502 39.079C242.98 39.0779 245.451 39.3493 247.881 39.8894C250.406 31.8161 255.133 24.8101 261.409 19.8385C267.685 14.867 275.201 12.1751 282.918 12.1345C290.635 12.0939 298.173 14.7067 304.491 19.6121C310.81 24.5175 315.597 31.4735 318.192 39.5198C323.141 40.3181 327.895 42.2114 332.17 45.0868C336.445 47.9623 340.153 51.761 343.073 56.2566C345.994 60.7522 348.067 65.8528 349.17 71.2542C350.272 76.6557 350.381 82.2476 349.49 87.6967C348.599 93.1458 346.726 98.3405 343.983 102.971C341.24 107.602 337.684 111.574 333.525 114.651C329.366 117.728 324.69 119.846 319.776 120.88C314.862 121.914 309.811 121.842 304.922 120.668C301.373 124.971 297.051 128.404 292.232 130.747C287.414 133.091 282.206 134.293 276.943 134.277C271.68 134.26 266.479 133.025 261.672 130.652C256.866 128.278 252.561 124.818 249.034 120.493C243.916 121.83 238.601 121.952 233.437 120.852C228.273 119.752 223.378 117.455 219.074 114.111C214.769 110.768 211.153 106.453 208.461 101.452C205.77 96.4503 204.066 90.875 203.46 85.0921C202.854 79.3093 203.36 73.4499 204.945 67.8991C206.53 62.3484 209.159 57.2318 212.657 52.8858C216.156 48.5398 220.446 45.0628 225.245 42.6831C230.044 40.3035 235.244 39.0752 240.502 39.079Z" fill="#C6C7DB"/>
</g>
<path d="M212.65 19.8704L214.507 16.1619C214.622 15.9436 214.787 15.7621 214.985 15.636C215.184 15.5098 215.41 15.4434 215.639 15.4434C215.869 15.4434 216.095 15.5098 216.293 15.636C216.492 15.7621 216.657 15.9436 216.771 16.1619L218.621 19.8704L222.009 21.9068C222.209 22.0323 222.374 22.2131 222.489 22.4311C222.604 22.6492 222.665 22.8966 222.665 23.1485C222.665 23.4003 222.604 23.6478 222.489 23.8658C222.374 24.0838 222.209 24.2646 222.009 24.3901L218.621 26.4182L216.824 30.1681C216.71 30.3865 216.545 30.5679 216.346 30.6941C216.147 30.8202 215.922 30.8867 215.692 30.8867C215.462 30.8867 215.237 30.8202 215.038 30.6941C214.839 30.5679 214.674 30.3865 214.56 30.1681L212.703 26.4513L209.277 24.4232C209.078 24.2978 208.912 24.1169 208.797 23.8989C208.682 23.6809 208.622 23.4334 208.622 23.1816C208.622 22.9297 208.682 22.6823 208.797 22.4643C208.912 22.2462 209.078 22.0654 209.277 21.9399L212.65 19.8704Z" fill="#999EC6"/>
<path d="M190.569 49.6392C192.231 49.6392 193.578 48.1576 193.578 46.3299C193.578 44.5022 192.231 43.0206 190.569 43.0206C188.907 43.0206 187.56 44.5022 187.56 46.3299C187.56 48.1576 188.907 49.6392 190.569 49.6392Z" fill="#999EC6"/>
</svg>
