<svg width="335" height="103" viewBox="0 0 335 103" fill="none" xmlns="http://www.w3.org/2000/svg">
<g clip-path="url(#clip0_325_12240)">
<rect width="336.001" height="103" rx="12" fill="#3A3E74"/>
<mask id="mask0_325_12240" style="mask-type:alpha" maskUnits="userSpaceOnUse" x="0" y="0" width="335" height="103">
<rect width="335" height="103" rx="12" fill="#3A3E74"/>
</mask>
<g mask="url(#mask0_325_12240)">
<path d="M239.785 37.6181C242.256 37.617 244.72 37.8783 247.142 38.3982C249.66 30.6268 254.373 23.8826 260.63 19.0969C266.888 14.3112 274.38 11.7199 282.074 11.6809C289.768 11.6418 297.284 14.1569 303.584 18.8789C309.883 23.6009 314.656 30.2969 317.243 38.0424C322.178 38.8109 326.918 40.6334 331.179 43.4013C335.441 46.1693 339.139 49.826 342.05 54.1535C344.962 58.4811 347.029 63.391 348.128 68.5905C349.227 73.7901 349.336 79.173 348.448 84.4183C347.559 89.6637 345.692 94.6642 342.958 99.1219C340.223 103.58 336.677 107.403 332.53 110.365C328.384 113.327 323.722 115.366 318.823 116.361C313.924 117.356 308.887 117.287 304.013 116.157C300.475 120.299 296.165 123.604 291.361 125.86C286.557 128.116 281.365 129.273 276.118 129.257C270.87 129.241 265.684 128.052 260.892 125.768C256.1 123.483 251.808 120.152 248.292 115.989C243.189 117.275 237.89 117.393 232.741 116.334C227.593 115.276 222.713 113.064 218.421 109.846C214.129 106.627 210.523 102.474 207.84 97.6592C205.157 92.8447 203.458 87.4778 202.854 81.9111C202.249 76.3445 202.754 70.7041 204.335 65.3609C205.915 60.0176 208.536 55.0923 212.024 50.9088C215.512 46.7253 219.789 43.3782 224.574 41.0875C229.359 38.7968 234.543 37.6144 239.785 37.6181Z" fill="#C6C7DB"/>
</g>
<mask id="mask1_325_12240" style="mask-type:alpha" maskUnits="userSpaceOnUse" x="0" y="0" width="337" height="103">
<rect width="336.001" height="103" rx="12" fill="#3A3E74"/>
</mask>
<g mask="url(#mask1_325_12240)">
<path d="M240.502 37.6181C242.98 37.617 245.451 37.8783 247.881 38.3982C250.406 30.6268 255.133 23.8826 261.409 19.0969C267.685 14.3112 275.201 11.7199 282.918 11.6809C290.635 11.6418 298.173 14.1569 304.491 18.8789C310.81 23.6009 315.597 30.2969 318.192 38.0424C323.141 38.8109 327.895 40.6334 332.17 43.4013C336.445 46.1693 340.153 49.826 343.073 54.1535C345.994 58.4811 348.067 63.391 349.17 68.5905C350.272 73.7901 350.381 79.173 349.49 84.4183C348.599 89.6637 346.726 94.6642 343.983 99.1219C341.24 103.58 337.684 107.403 333.525 110.365C329.366 113.327 324.69 115.366 319.776 116.361C314.862 117.356 309.811 117.287 304.922 116.157C301.373 120.299 297.051 123.604 292.232 125.86C287.414 128.116 282.206 129.273 276.943 129.257C271.68 129.241 266.479 128.052 261.672 125.768C256.866 123.483 252.561 120.152 249.034 115.989C243.916 117.275 238.601 117.393 233.437 116.334C228.273 115.276 223.378 113.064 219.074 109.846C214.769 106.627 211.153 102.474 208.461 97.6592C205.77 92.8447 204.066 87.4778 203.46 81.9111C202.854 76.3445 203.36 70.7041 204.945 65.3609C206.53 60.0176 209.159 55.0923 212.657 50.9088C216.156 46.7253 220.446 43.3782 225.245 41.0875C230.044 38.7968 235.244 37.6144 240.502 37.6181Z" fill="#C6C7DB"/>
</g>
<path d="M212.65 19.1275L214.507 15.5577C214.622 15.3475 214.787 15.1728 214.985 15.0514C215.184 14.9299 215.41 14.866 215.639 14.866C215.869 14.866 216.095 14.9299 216.293 15.0514C216.492 15.1728 216.657 15.3475 216.771 15.5577L218.621 19.1275L222.009 21.0878C222.209 21.2086 222.374 21.3827 222.489 21.5925C222.604 21.8024 222.665 22.0406 222.665 22.283C222.665 22.5255 222.604 22.7637 222.489 22.9735C222.374 23.1834 222.209 23.3575 222.009 23.4783L218.621 25.4305L216.824 29.0402C216.71 29.2504 216.545 29.4251 216.346 29.5465C216.147 29.668 215.922 29.7319 215.692 29.7319C215.462 29.7319 215.237 29.668 215.038 29.5465C214.839 29.4251 214.674 29.2504 214.56 29.0402L212.703 25.4624L209.277 23.5102C209.078 23.3894 208.912 23.2152 208.797 23.0054C208.682 22.7955 208.622 22.5574 208.622 22.3149C208.622 22.0724 208.682 21.8343 208.797 21.6244C208.912 21.4145 209.078 21.2404 209.277 21.1196L212.65 19.1275Z" fill="#999EC6"/>
<path d="M190.569 47.7835C192.231 47.7835 193.578 46.3573 193.578 44.5979C193.578 42.8386 192.231 41.4124 190.569 41.4124C188.907 41.4124 187.56 42.8386 187.56 44.5979C187.56 46.3573 188.907 47.7835 190.569 47.7835Z" fill="#999EC6"/>
</g>
<defs>
<clipPath id="clip0_325_12240">
<rect width="335" height="103" fill="white"/>
</clipPath>
</defs>
</svg>
