<svg width="36" height="36" viewBox="0 0 36 36" fill="none" xmlns="http://www.w3.org/2000/svg">
<circle cx="18" cy="18" r="18" fill="white" fill-opacity="0.4"/>
<path fill-rule="evenodd" clip-rule="evenodd" d="M13.0975 17.3956L13.0975 11.3036C13.0975 10.8343 12.7172 10.454 12.2479 10.454C11.7787 10.454 11.3984 10.8343 11.3984 11.3036L11.3984 17.3956C10.4085 17.7455 9.69922 18.6896 9.69922 19.7993C9.69922 20.9091 10.4085 21.8531 11.3984 22.203L11.3984 24.8968C11.3984 25.366 11.7787 25.7464 12.2479 25.7464C12.7172 25.7464 13.0975 25.366 13.0975 24.8968L13.0975 22.203C14.0874 21.8531 14.7967 20.9091 14.7967 19.7993C14.7967 18.6896 14.0874 17.7455 13.0975 17.3956ZM12.2479 18.9497C11.7787 18.9497 11.3984 19.3301 11.3984 19.7993C11.3984 20.2685 11.7787 20.6489 12.2479 20.6489C12.7172 20.6489 13.0975 20.2685 13.0975 19.7993C13.0975 19.3301 12.7172 18.9497 12.2479 18.9497Z" fill="white"/>
<path fill-rule="evenodd" clip-rule="evenodd" d="M24.142 25.7464C23.6728 25.7464 23.2924 25.366 23.2924 24.8968L23.2924 23.1976C23.2924 23.1496 23.2964 23.1025 23.3041 23.0567C22.3081 22.7101 21.5933 21.763 21.5933 20.6489C21.5933 19.5348 22.3081 18.5877 23.3041 18.2411C23.2964 18.1953 23.2924 18.1482 23.2924 18.1002L23.2924 11.3036C23.2924 10.8343 23.6728 10.454 24.142 10.454C24.6112 10.454 24.9916 10.8343 24.9916 11.3036L24.9916 18.1002C24.9916 18.1482 24.9876 18.1953 24.98 18.2411C25.976 18.5877 26.6908 19.5348 26.6908 20.6489C26.6908 21.763 25.976 22.7101 24.98 23.0567C24.9876 23.1025 24.9916 23.1496 24.9916 23.1976V24.8968C24.9916 25.366 24.6112 25.7464 24.142 25.7464ZM23.2924 20.6489C23.2924 20.1797 23.6728 19.7993 24.142 19.7993C24.6112 19.7993 24.9916 20.1797 24.9916 20.6489C24.9916 21.1181 24.6112 21.4985 24.142 21.4985C23.6728 21.4985 23.2924 21.1181 23.2924 20.6489Z" fill="white"/>
<path fill-rule="evenodd" clip-rule="evenodd" d="M15.6463 15.5514C15.6463 14.4417 16.3555 13.4976 17.3454 13.1477V11.3036C17.3454 10.8343 17.7258 10.454 18.195 10.454C18.6642 10.454 19.0446 10.8343 19.0446 11.3036V13.1477C20.0345 13.4976 20.7437 14.4417 20.7437 15.5514C20.7437 16.6655 20.0289 17.6126 19.0329 17.9592C19.0406 18.0051 19.0446 18.0522 19.0446 18.1002L19.0446 24.8968C19.0446 25.366 18.6642 25.7464 18.195 25.7464C17.7258 25.7464 17.3454 25.366 17.3454 24.8968L17.3454 18.1002C17.3454 18.0522 17.3494 18.0051 17.357 17.9592C16.361 17.6126 15.6463 16.6655 15.6463 15.5514ZM17.3454 15.5514C17.3454 15.0822 17.7258 14.7019 18.195 14.7019C18.6642 14.7019 19.0446 15.0822 19.0446 15.5514C19.0446 16.0206 18.6642 16.401 18.195 16.401C17.7258 16.401 17.3454 16.0206 17.3454 15.5514Z" fill="white"/>
</svg>
