<svg width="24" height="24" viewBox="0 0 24 24" fill="none" xmlns="http://www.w3.org/2000/svg">
<path d="M21.17 2.06C20.4532 1.93653 19.7274 1.87298 19 1.87C16.5184 1.86796 14.0885 2.57957 12 3.92C9.90617 2.59717 7.47667 1.90303 5.00002 1.92C4.27267 1.92298 3.54683 1.98653 2.83002 2.11C2.59523 2.15048 2.3826 2.27346 2.23044 2.45679C2.07827 2.64013 1.99656 2.87177 2.00002 3.11V15.11C1.99788 15.2569 2.02815 15.4025 2.08867 15.5364C2.1492 15.6703 2.23849 15.7893 2.3502 15.8847C2.4619 15.9802 2.59328 16.0499 2.73498 16.0888C2.87668 16.1278 3.02522 16.135 3.17002 16.11C4.60304 15.8619 6.07123 15.9031 7.48809 16.2311C8.90495 16.5591 10.2418 17.1674 11.42 18.02L11.54 18.09H11.65C11.7609 18.1362 11.8799 18.16 12 18.16C12.1202 18.16 12.2391 18.1362 12.35 18.09H12.46L12.58 18.02C13.75 17.1483 15.083 16.5203 16.5002 16.1734C17.9173 15.8264 19.3897 15.7674 20.83 16C20.9748 16.025 21.1234 16.0178 21.2651 15.9788C21.4068 15.9399 21.5381 15.8702 21.6498 15.7747C21.7616 15.6793 21.8508 15.5603 21.9114 15.4264C21.9719 15.2925 22.0022 15.1469 22 15V3C21.9896 2.77215 21.9016 2.55471 21.7507 2.38374C21.5997 2.21276 21.3948 2.09854 21.17 2.06ZM11 15.35C9.14991 14.3767 7.09054 13.8687 5.00002 13.87C4.67002 13.87 4.34002 13.87 4.00002 13.87V3.87C4.33308 3.8508 4.66697 3.8508 5.00002 3.87C7.13341 3.86764 9.22024 4.49369 11 5.67V15.35ZM20 13.91C19.66 13.91 19.33 13.91 19 13.91C16.9095 13.9087 14.8501 14.4167 13 15.39V5.67C14.7798 4.49369 16.8666 3.86764 19 3.87C19.3331 3.8508 19.667 3.8508 20 3.87V13.91ZM21.17 18.06C20.4532 17.9365 19.7274 17.873 19 17.87C16.5184 17.868 14.0885 18.5796 12 19.92C9.91154 18.5796 7.48166 17.868 5.00002 17.87C4.27267 17.873 3.54683 17.9365 2.83002 18.06C2.69985 18.0807 2.57505 18.1268 2.46279 18.1959C2.35053 18.265 2.25302 18.3555 2.17589 18.4624C2.09876 18.5693 2.04351 18.6903 2.01333 18.8186C1.98315 18.9469 1.97862 19.0799 2.00002 19.21C2.05084 19.4697 2.20251 19.6986 2.42181 19.8467C2.64111 19.9948 2.91016 20.0499 3.17002 20C4.60304 19.7519 6.07123 19.7931 7.48809 20.1211C8.90495 20.4491 10.2418 21.0574 11.42 21.91C11.5894 22.0306 11.7921 22.0954 12 22.0954C12.2079 22.0954 12.4107 22.0306 12.58 21.91C13.7582 21.0574 15.0951 20.4491 16.512 20.1211C17.9288 19.7931 19.397 19.7519 20.83 20C21.0899 20.0499 21.3589 19.9948 21.5782 19.8467C21.7975 19.6986 21.9492 19.4697 22 19.21C22.0214 19.0799 22.0169 18.9469 21.9867 18.8186C21.9565 18.6903 21.9013 18.5693 21.8242 18.4624C21.747 18.3555 21.6495 18.265 21.5373 18.1959C21.425 18.1268 21.3002 18.0807 21.17 18.06V18.06Z" fill="white"/>
</svg>
